<?xml version="1.0" encoding="UTF-8"?><svg id="project_menagement" xmlns="http://www.w3.org/2000/svg" width="594.24" height="379.92" xmlns:xlink="http://www.w3.org/1999/xlink" viewBox="0 0 594.24 379.92"><defs><style>.cls-1{fill:#fff;}.cls-2{fill:#9c85c2;}.cls-3{fill:#a49bc7;}.cls-4{fill:url(#_Áåçûìÿííûé_ãðàäèåíò_37);}.cls-5{fill:#5b5b82;}.cls-6{fill:#dee5f1;}</style><linearGradient id="_Áåçûìÿííûé_ãðàäèåíò_37" x1="12.29" y1="727.6" x2="13.25" y2="672.71" gradientTransform="translate(-352.73 -171.16) rotate(-56.05)" gradientUnits="userSpaceOnUse"><stop offset="0" stop-color="#9aabcf"/><stop offset="1" stop-color="#f2f1f7"/></linearGradient></defs><path class="cls-2" d="M270.18,202.01s6.85,.87,15.06,6.39c0,0,3.23-5.58,2.83-7.66-.41-2.08-12.32-7-12.32-7l-8.39,4.26,2.83,4Z"/><path class="cls-6" d="M205.05,218.82s-7.13-2.23-7.7-5.16,7.08-6.31,7.08-6.31l.62,11.48Z"/><path class="cls-4" d="M254.07,191.83l4.02,32.6c-32.8,6.41-57.92-4.8-57.97-11.32,0-.25,.03-.5,.1-.73,5.27-17.2,52.28-20.45,53.81-20.55h.04Z"/><path class="cls-1" d="M254.07,191.82c-8.02,.8-2.3,31.5,4.02,32.61,6.32,1.11,3.29-33.34-4.02-32.61Z"/><path class="cls-5" d="M256.23,215.95s-6.65-11.17-.67-20.05c0,0,5.83-3.39,13.81-3.92,0,0,2.18,4.18,3.11,8.94,.93,4.76-1.88,14.71-1.88,14.71,0,0-8.32,1.48-14.38,.31Z"/><path class="cls-3" d="M256.14,211.47c-.88,3.7,9.93,7.51,22.31,1.92,0,0,3.48-4.38,.02-8.49,0,0-20.01-3.2-22.33,6.56Z"/><path class="cls-3" d="M271.91,198.52s10.5-.64,17.39,.34c0,0,4.62-5.63,.73-10.02,0,0-12.2-.82-20.65,3.14l2.53,6.54Z"/><path class="cls-6" d="M254.03,191.84c-42.74,4.99-51.72,19.23-53.92,21.27,0-.25,.03-.5,.1-.73,5.27-17.2,52.28-20.45,53.81-20.55Z"/><path class="cls-1" d="M269.38,191.98s14.38-3.19,19.8-1.79c0,0,2.99,3.18,.12,8.67,0,0,6.06-4.68,.73-10.02,0,0-10.19-1.82-20.65,3.14Z"/><path class="cls-1" d="M277.73,204.81s1.58,4.67,.73,8.59c0,0,3.42-4.38,.99-8.54l-1.72-.05Z"/></svg>