<?xml version="1.0" encoding="UTF-8"?><svg xmlns="http://www.w3.org/2000/svg" width="594.24" height="379.92" xmlns:xlink="http://www.w3.org/1999/xlink" viewBox="0 0 594.24 379.92"><defs><style>.cls-1{fill:#197de5;}.cls-2{fill:#0031b3;}.cls-3{fill:url(#linear-gradient-3);}.cls-3,.cls-4,.cls-5,.cls-6,.cls-7,.cls-8,.cls-9,.cls-10,.cls-11,.cls-12,.cls-13,.cls-14,.cls-15,.cls-16,.cls-17{mix-blend-mode:color-dodge;}.cls-18,.cls-19{fill:#fff;}.cls-4{fill:url(#radial-gradient-7);}.cls-20{fill:#646da4;}.cls-21{fill:#6fcef6;}.cls-22,.cls-23,.cls-5,.cls-24,.cls-25,.cls-12,.cls-26{opacity:.5;}.cls-22,.cls-27,.cls-24,.cls-28,.cls-29{fill:#58fffe;}.cls-22,.cls-29,.cls-19{mix-blend-mode:soft-light;}.cls-30{fill:url(#_Áåçûìÿííûé_ãðàäèåíò_37-3);}.cls-5{fill:url(#radial-gradient-8);}.cls-6{fill:url(#_Áåçûìÿííûé_ãðàäèåíò_13);}.cls-31{fill:#6dffe5;}.cls-7{fill:url(#linear-gradient-5);}.cls-32{fill:#6fe0f6;}.cls-33{isolation:isolate;}.cls-34,.cls-28,.cls-35{opacity:.2;}.cls-36{fill:#1b4bbf;}.cls-37{fill:#aeb8d2;}.cls-38{fill:url(#radial-gradient-5);}.cls-38,.cls-39,.cls-25,.cls-26,.cls-40,.cls-41,.cls-42,.cls-43,.cls-44,.cls-45{mix-blend-mode:screen;}.cls-39{fill:url(#_Áåçûìÿííûé_ãðàäèåíò_94-2);}.cls-46{fill:#001b8d;}.cls-8{fill:url(#_Áåçûìÿííûé_ãðàäèåíò_14-2);}.cls-9{fill:url(#radial-gradient-3);}.cls-47{fill:#196bdb;}.cls-48{fill:#7cffbf;}.cls-10{fill:url(#_Áåçûìÿííûé_ãðàäèåíò_14);}.cls-49{fill:url(#_Áåçûìÿííûé_ãðàäèåíò_37-2);}.cls-25{fill:url(#radial-gradient-13);}.cls-11{fill:url(#_Áåçûìÿííûé_ãðàäèåíò_14-3);}.cls-12{fill:url(#radial-gradient-6);}.cls-26{fill:url(#radial-gradient-14);}.cls-50{fill:#4dd1ff;}.cls-51{fill:#17a8ed;}.cls-52{fill:#a49bc7;}.cls-53{fill:#c09ee9;}.cls-54{fill:#318fe8;}.cls-40{fill:url(#_Áåçûìÿííûé_ãðàäèåíò_94);}.cls-13{fill:url(#linear-gradient-2);}.cls-55{fill:#85deda;}.cls-41{fill:url(#radial-gradient-10);}.cls-42{fill:url(#radial-gradient-12);}.cls-56{fill:#878bc4;}.cls-57{fill:url(#_Áåçûìÿííûé_ãðàäèåíò_37);}.cls-14{fill:url(#radial-gradient-9);}.cls-58{fill:#1b4fdb;}.cls-43{fill:url(#radial-gradient-4);}.cls-59{fill:#5b5b82;}.cls-60{fill:#00379f;}.cls-15{fill:url(#linear-gradient-4);}.cls-61{fill:#0b1e7d;}.cls-19{fill-rule:evenodd;}.cls-62{fill:#dee5f1;}.cls-63{fill:url(#_Áåçûìÿííûé_ãðàäèåíò_37-4);}.cls-64{fill:#7cfff6;}.cls-65{fill:#b84b81;}.cls-35{fill:#196fc7;mix-blend-mode:multiply;}.cls-44{fill:url(#radial-gradient-11);}.cls-16{fill:url(#linear-gradient);}.cls-45{fill:url(#_Áåçûìÿííûé_ãðàäèåíò_41);}.cls-66{fill:#a954b8;}.cls-17{fill:url(#radial-gradient-2);}.cls-67{fill:url(#radial-gradient);opacity:.25;}</style><radialGradient id="radial-gradient" cx="-271.01" cy="264.49" fx="-271.01" fy="264.49" r="70.86" gradientTransform="translate(816.21 -333.05) scale(2.11 2)" gradientUnits="userSpaceOnUse"><stop offset="0" stop-color="#40bfff"/><stop offset=".01" stop-color="#3fbdff" stop-opacity=".99"/><stop offset=".39" stop-color="#249aff" stop-opacity=".57"/><stop offset=".68" stop-color="#1080ff" stop-opacity=".26"/><stop offset=".9" stop-color="#0470ff" stop-opacity=".07"/><stop offset="1" stop-color="#006aff" stop-opacity="0"/></radialGradient><radialGradient id="radial-gradient-2" cx="-2406.09" cy="123.48" fx="-2406.09" fy="123.48" r="42.09" gradientTransform="translate(-2138.02) rotate(-180) scale(1 -1)" gradientUnits="userSpaceOnUse"><stop offset="0" stop-color="#4a9cff"/><stop offset="1" stop-color="#02b3c4"/></radialGradient><radialGradient id="radial-gradient-3" cx="-2502.46" cy="88.12" fx="-2502.46" fy="88.12" r="60.39" xlink:href="#radial-gradient-2"/><radialGradient id="radial-gradient-4" cx="-3325.4" cy="-48.81" fx="-3325.4" fy="-48.81" r="17.95" gradientTransform="translate(-1513.29 53.23) rotate(-171.93) scale(.61 -.56)" gradientUnits="userSpaceOnUse"><stop offset="0" stop-color="#27a6fc"/><stop offset=".03" stop-color="#27a6fc" stop-opacity=".95"/><stop offset=".18" stop-color="#27a6fc" stop-opacity=".71"/><stop offset=".34" stop-color="#27a6fc" stop-opacity=".49"/><stop offset=".49" stop-color="#27a6fc" stop-opacity=".31"/><stop offset=".64" stop-color="#27a6fc" stop-opacity=".18"/><stop offset=".77" stop-color="#27a6fc" stop-opacity=".08"/><stop offset=".9" stop-color="#27a6fc" stop-opacity=".02"/><stop offset="1" stop-color="#27a6fc" stop-opacity="0"/></radialGradient><radialGradient id="radial-gradient-5" cx="-3328.52" cy="-13.96" fx="-3328.52" fy="-13.96" r="12.83" gradientTransform="translate(-1513.29 53.23) rotate(-171.93) scale(.61 -.56)" gradientUnits="userSpaceOnUse"><stop offset="0" stop-color="#ff2c77"/><stop offset=".03" stop-color="#ff2c77" stop-opacity=".94"/><stop offset=".19" stop-color="#ff2c77" stop-opacity=".7"/><stop offset=".35" stop-color="#ff2c77" stop-opacity=".48"/><stop offset=".5" stop-color="#ff2c77" stop-opacity=".31"/><stop offset=".64" stop-color="#ff2c77" stop-opacity=".18"/><stop offset=".77" stop-color="#ff2c77" stop-opacity=".08"/><stop offset=".9" stop-color="#ff2c77" stop-opacity=".02"/><stop offset="1" stop-color="#ff2c77" stop-opacity="0"/></radialGradient><radialGradient id="_Áåçûìÿííûé_ãðàäèåíò_14" cx="-2038.44" cy="166.79" fx="-2038.44" fy="166.79" r="20.16" gradientTransform="translate(-1173.88 -1609.07) rotate(-133.06) scale(1.14 -1.14)" gradientUnits="userSpaceOnUse"><stop offset="0" stop-color="#02689b"/><stop offset="1" stop-color="#000"/></radialGradient><radialGradient id="radial-gradient-6" cx="-2036.48" cy="-400.48" fx="-2036.48" fy="-400.48" r="14.59" gradientTransform="translate(-1943.7 -167.86) rotate(-161.94) scale(1.14 -.56)" gradientUnits="userSpaceOnUse"><stop offset="0" stop-color="#02689b"/><stop offset="1" stop-color="#81d9fc" stop-opacity="0"/></radialGradient><radialGradient id="radial-gradient-7" cx="-2162.29" cy="-179.22" fx="-2162.29" fy="-179.22" r="14.59" gradientTransform="translate(252.18 -2425.19) rotate(-90) scale(1.14 -1.01)" gradientUnits="userSpaceOnUse"><stop offset="0" stop-color="#02689b"/><stop offset="1" stop-color="#02689b" stop-opacity="0"/></radialGradient><radialGradient id="radial-gradient-8" cx="-2215.23" cy="-298.19" fx="-2215.23" fy="-298.19" r="27.26" gradientTransform="translate(199.38 -1966.4) rotate(-90) scale(1.04 -.61)" gradientUnits="userSpaceOnUse"><stop offset="0" stop-color="#f94081"/><stop offset="1" stop-color="#f94081" stop-opacity="0"/></radialGradient><radialGradient id="_Áåçûìÿííûé_ãðàäèåíò_14-2" cx="-2935.42" cy="-142.16" fx="-2935.42" fy="-142.16" r="21.32" gradientTransform="translate(-1484 57.4) rotate(-171.93) scale(.65 -.56)" xlink:href="#_Áåçûìÿííûé_ãðàäèåíò_14"/><radialGradient id="_Áåçûìÿííûé_ãðàäèåíò_14-3" cx="-4758.33" cy="-188.06" fx="-4758.33" fy="-188.06" r="21.32" gradientTransform="translate(-1111.89 110.14) rotate(-171.93) scale(.32 -.56)" xlink:href="#_Áåçûìÿííûé_ãðàäèåíò_14"/><radialGradient id="_Áåçûìÿííûé_ãðàäèåíò_13" cx="318.16" cy="236.56" fx="318.16" fy="236.56" r="93.42" gradientUnits="userSpaceOnUse"><stop offset="0" stop-color="#000"/><stop offset="1" stop-color="#02b3c4"/></radialGradient><radialGradient id="radial-gradient-9" cx="-1794.55" cy="29.76" fx="-1794.55" fy="29.76" r="41.88" gradientTransform="translate(-2425.63 95.13) rotate(-180) scale(1.58 -1.58)" gradientUnits="userSpaceOnUse"><stop offset="0" stop-color="#f94081"/><stop offset="1" stop-color="#000" stop-opacity="0"/></radialGradient><linearGradient id="linear-gradient" x1="146.51" y1="307.68" x2="146.51" y2="289.99" gradientUnits="userSpaceOnUse"><stop offset="0" stop-color="#85deda" stop-opacity="0"/><stop offset="1" stop-color="#85deda"/></linearGradient><radialGradient id="radial-gradient-10" cx="-1335.43" cy="-254.49" fx="-1335.43" fy="-254.49" r="24.4" gradientTransform="translate(356.78 -1230.2) rotate(-90) scale(1.14 .82)" gradientUnits="userSpaceOnUse"><stop offset="0" stop-color="#0268ff"/><stop offset="1" stop-color="#0268ff" stop-opacity="0"/></radialGradient><linearGradient id="_Áåçûìÿííûé_ãðàäèåíò_37" x1="154.19" y1="298.85" x2="155.16" y2="243.57" gradientUnits="userSpaceOnUse"><stop offset="0" stop-color="#9aabcf"/><stop offset="1" stop-color="#f2f1f7"/></linearGradient><linearGradient id="_Áåçûìÿííûé_ãðàäèåíò_37-2" x1="157.69" y1="174.41" x2="158.9" y2="105.56" xlink:href="#_Áåçûìÿííûé_ãðàäèåíò_37"/><linearGradient id="linear-gradient-2" x1="156.26" y1="251.43" x2="156.26" y2="233.74" xlink:href="#linear-gradient"/><linearGradient id="_Áåçûìÿííûé_ãðàäèåíò_37-3" x1="160.3" y1="240.31" x2="161.41" y2="176.76" xlink:href="#_Áåçûìÿííûé_ãðàäèåíò_37"/><linearGradient id="linear-gradient-3" x1="160.65" y1="180.79" x2="160.65" y2="165.32" xlink:href="#linear-gradient"/><linearGradient id="_Áåçûìÿííûé_ãðàäèåíò_37-4" x1="98.28" y1="275.07" x2="99.29" y2="217.09" xlink:href="#_Áåçûìÿííûé_ãðàäèåíò_37"/><linearGradient id="linear-gradient-4" x1="115.44" y1="211.09" x2="135.92" y2="196.21" xlink:href="#linear-gradient"/><linearGradient id="linear-gradient-5" x1="121.8" y1="206.47" x2="135.92" y2="196.21" xlink:href="#linear-gradient"/><radialGradient id="radial-gradient-11" cx="-1338.71" cy="-202.07" fx="-1338.71" fy="-202.07" r="22.68" gradientTransform="translate(321.27 -1276.22) rotate(-90) scale(1.14 .82)" xlink:href="#radial-gradient-10"/><radialGradient id="radial-gradient-12" cx="-1339.1" cy="-106.34" fx="-1339.1" fy="-106.34" r="24.91" gradientTransform="translate(250.09 -1354.4) rotate(-90) scale(1.14 .82)" xlink:href="#radial-gradient-10"/><radialGradient id="radial-gradient-13" cx="361.4" cy="857.4" fx="361.4" fy="857.4" r="30.74" gradientTransform="translate(-318.19 -459.01) scale(1.14 .82)" gradientUnits="userSpaceOnUse"><stop offset="0" stop-color="#494e89"/><stop offset=".04" stop-color="#494e89" stop-opacity=".94"/><stop offset=".26" stop-color="#494e89" stop-opacity=".6"/><stop offset=".48" stop-color="#494e89" stop-opacity=".34"/><stop offset=".68" stop-color="#494e89" stop-opacity=".15"/><stop offset=".86" stop-color="#494e89" stop-opacity=".04"/><stop offset="1" stop-color="#494e89" stop-opacity="0"/></radialGradient><radialGradient id="radial-gradient-14" cx="-1641.78" cy="-45.08" fx="-1641.78" fy="-45.08" r="24.91" gradientTransform="translate(165.85 -1315.37) rotate(-90) scale(.87 .82)" gradientUnits="userSpaceOnUse"><stop offset="0" stop-color="#71e4ff"/><stop offset=".83" stop-color="#fff" stop-opacity="0"/></radialGradient><radialGradient id="_Áåçûìÿííûé_ãðàäèåíò_94" cx="-348.69" cy="733.93" fx="-348.69" fy="733.93" r="9.72" gradientTransform="translate(-896.36 -82.19) rotate(-93.46) scale(.79 1.41)" gradientUnits="userSpaceOnUse"><stop offset="0" stop-color="#0268ff"/><stop offset=".16" stop-color="#014fc1"/><stop offset=".32" stop-color="#013787"/><stop offset=".49" stop-color="#002357"/><stop offset=".64" stop-color="#001431"/><stop offset=".78" stop-color="#000916"/><stop offset=".9" stop-color="#000205"/><stop offset="1" stop-color="#000"/></radialGradient><radialGradient id="_Áåçûìÿííûé_ãðàäèåíò_94-2" cx="412.76" cy="685.42" fx="412.76" fy="685.42" r="8.77" gradientTransform="translate(-828.75 23.81) rotate(-65.54) scale(.79 1.41)" xlink:href="#_Áåçûìÿííûé_ãðàäèåíò_94"/><radialGradient id="_Áåçûìÿííûé_ãðàäèåíò_41" cx="-1840.26" cy="71.21" fx="-1840.26" fy="71.21" r="36.66" gradientTransform="translate(-1360.98 -28.58) rotate(-177.36) scale(1 -1)" gradientUnits="userSpaceOnUse"><stop offset="0" stop-color="#000"/><stop offset=".11" stop-color="#00090a"/><stop offset=".29" stop-color="#002428"/><stop offset=".53" stop-color="#005057"/><stop offset=".82" stop-color="#018b98"/><stop offset="1" stop-color="#02b3c4"/></radialGradient></defs><g class="cls-33"><g id="project_menagement"><ellipse class="cls-67" cx="243.17" cy="194.84" rx="149.84" ry="141.44"/><path class="cls-2" d="M484.39,29.52h0c10.48-2.67,21.87,7.16,21.86,16.52l-12.45,295.7c-.38,8.1-12.35,16.68-19.9,16.68l-3.2-1.51,2.64,.95,11.05-328.34Z"/><path class="cls-21" d="M481.9,350.69l13.08-313.9c.26-6.18-6.25-10.33-11.74-7.51l-204.14,104.96c-2.5,1.29-4.15,3.78-4.36,6.59l-11.11,153.94c-.28,3.85,2.21,7.35,5.93,8.36l202.17,54.99c5,1.36,9.96-2.27,10.17-7.45Z"/><polygon class="cls-54" points="466.39 346.35 267.89 293.35 279.14 139.1 483.02 37.22 466.39 346.35"/><polygon class="cls-46" points="466.39 346.35 271.74 294.97 282.99 140.72 482.82 40.86 466.39 346.35"/><polygon class="cls-60" points="346.9 306.58 272.15 289.32 284.05 147.85 357.99 116.57 346.9 306.58"/><polygon class="cls-60" points="475.39 55.35 363.09 112.26 353.29 307.86 459.39 335.85 475.39 55.35"/><polygon class="cls-35" points="335.4 300.75 269.05 286.56 274.25 205.03 341.56 198.64 335.4 300.75"/><polygon class="cls-51" points="482.82 40.86 481.76 60.57 282.25 150.81 282.99 140.72 482.82 40.86"/><polygon class="cls-35" points="349.52 114.3 282.23 146.49 278.39 200.85 344.78 196.13 349.52 114.3"/><polygon class="cls-27" points="472.64 48.6 472.64 61.85 391.64 99.1 391.64 88.85 472.64 48.6"/><g><polygon class="cls-1" points="334.75 94.56 267.46 126.74 263.28 175.95 330.69 164.68 334.75 94.56"/><polygon class="cls-2" points="334.75 94.56 335.59 95.25 331.77 164.74 330.69 164.68 334.75 94.56"/></g><polygon class="cls-17" points="303.94 75.98 236.2 114.46 232.21 170.98 291.3 159.35 299.17 158.19 303.94 75.98"/><polygon class="cls-22" points="301.21 79.03 300.63 90.86 237.03 121.74 237.69 114.46 301.21 79.03"/><polygon class="cls-27" points="303.94 75.98 304.85 76.59 300.06 157.95 299.17 158.19 303.94 75.98"/><polygon class="cls-9" points="415.9 19.96 318.71 75.18 312.99 156.29 397.77 139.6 409.07 137.93 415.9 19.96"/><polygon class="cls-22" points="412 24.34 411.16 41.32 319.9 85.62 320.85 75.18 412 24.34"/><polygon class="cls-27" points="415.9 19.96 417.22 20.84 410.34 137.58 409.07 137.93 415.9 19.96"/><g><polygon class="cls-1" points="309.81 273.98 237.77 264.59 241.54 200.85 314.77 191.79 309.81 273.98"/><polygon class="cls-2" points="314.77 191.79 315.89 193.4 310.69 273.98 309.81 273.98 314.77 191.79"/><polygon class="cls-27" points="287.19 199.97 285.7 227.32 261.73 228.2 263.23 202.49 287.19 199.97"/></g><path class="cls-43" d="M477.69,307.76c-.79,5.54,3.41,10.71,9.36,11.56,5.96,.84,11.42-2.96,12.21-8.5s-3.41-10.71-9.36-11.56c-5.96-.84-11.42,2.96-12.21,8.5Z"/><path class="cls-38" d="M479.88,327.93c-.56,3.96,2.44,7.66,6.69,8.26,4.26,.6,8.17-2.12,8.73-6.08,.56-3.96-2.44-7.66-6.69-8.26-4.26-.6-8.17,2.12-8.73,6.08Z"/><circle class="cls-10" cx="272.98" cy="217.34" r="22.97" transform="translate(-73.73 256.69) rotate(-45)"/><path class="cls-27" d="M408.38,230.59c-7.72,0-14-9.86-14-21.98s6.28-21.98,14-21.98,14,9.86,14,21.98-6.28,21.98-14,21.98Zm0-43.02c-7.2,0-13.06,9.44-13.06,21.04s5.86,21.04,13.06,21.04,13.06-9.44,13.06-21.04-5.86-21.04-13.06-21.04Z"/><path class="cls-27" d="M408.38,265.94c-19.99,0-36.25-25.72-36.25-57.33s16.26-57.33,36.25-57.33,36.25,25.72,36.25,57.33-16.26,57.33-36.25,57.33Zm0-113.6c-19.41,0-35.2,25.24-35.2,56.27s15.79,56.27,35.2,56.27,35.2-25.24,35.2-56.27-15.79-56.27-35.2-56.27Z"/><g><path class="cls-1" d="M419.61,168.4l-3.75,13.73c5.93,4.61,9.94,14.66,9.91,26.35l8.9-1.41c-.19-17.21-6.23-31.95-15.06-38.67Zm-38.36,40.13c-.05,1.86-.04,3.69,.05,5.5l8.91-.91c-.09-1.42-.11-2.87-.07-4.34,.28-10,3.46-18.76,8.11-24.04l-4.56-12.59c-7.12,7.9-12.01,21.19-12.44,36.38Zm38.26,22.88c-3.32,4.92-7.7,7.88-12.41,7.75-6.61-.19-12.21-6.41-15.03-15.47l-8.17,6.39c4.14,14.03,12.67,23.71,22.78,24,7.22,.2,13.91-4.42,18.93-12.11l-6.1-10.55Z"/><path class="cls-21" d="M422.66,166.93l-4.62,16.92c-2.64-2.07-5.58-3.25-8.71-3.34-4.78-.14-9.27,2.29-12.99,6.56l-5.62-15.52c5.52-6.13,12.13-9.62,19.14-9.42,4.6,.13,8.93,1.83,12.81,4.8Z"/><path class="cls-47" d="M394.76,224.71l-12.19,9.53c-2.15-7.3-3.5-15.38-3.88-23.93l13.29-1.36c.33,5.66,1.3,10.97,2.79,15.76Z"/><path class="cls-53" d="M436.29,206.95c-.43,15.33-4.61,29.08-10.96,38.78l-7.41-12.82c4.39-6.51,7.28-15.84,7.58-26.27,.02-.54,.02-1.07,.02-1.59l10.81-1.71c.01,1.2,0,2.4-.03,3.61Z"/></g><path class="cls-27" d="M355.36,347.56v-14.83l-39.97-12.87v11.32l39.97,16.38Zm-1-14.1v12.61l-37.97-15.56v-9.28l37.97,12.23Z"/><path class="cls-12" d="M316.25,331.46c-1.41,4.32,4.52,10.13,13.25,12.98,8.73,2.85,16.94,1.65,18.35-2.67,1.41-4.32-4.52-10.13-13.25-12.98-8.73-2.85-16.94-1.65-18.35,2.67Z"/><path class="cls-27" d="M322.18,331.59c.1,0,.2-.03,.28-.09,.23-.16,.28-.47,.13-.7l-3.12-4.52,3.37-1.58c.25-.12,.36-.42,.24-.67-.12-.25-.42-.36-.67-.24l-4.44,2.08,3.79,5.49c.1,.14,.25,.22,.41,.22Z"/><path class="cls-27" d="M326.77,333.77c.09,0,.19-.03,.27-.08,.23-.15,.3-.46,.15-.69l-2.98-4.66,3.22-1.46c.25-.11,.36-.41,.25-.66-.11-.25-.41-.36-.66-.25l-4.28,1.93,3.61,5.63c.1,.15,.26,.23,.42,.23Z"/><path class="cls-27" d="M424.04,54.4l17.92-9.52,.31-20.81-17.69,11.64-.55,18.69Zm16.93-10.13l-15.88,8.44,.48-16.45,15.67-10.32-.27,18.33Z"/><ellipse class="cls-4" cx="432.6" cy="38.2" rx="14.69" ry="16.62" transform="translate(379.81 469.26) rotate(-88.06)"/><path class="cls-27" d="M426.73,50.1l12.36-6.99,.39-13.77-12.75,8.18v12.58Zm11.38-7.58l-10.38,5.86v-10.32l10.7-6.86-.32,11.32Z"/><polygon class="cls-27" points="431.58 42.46 439.38 30.54 438.54 30 431.39 40.93 427.57 37.42 426.9 38.16 431.58 42.46"/><path class="cls-65" d="M486.77,328.35c-.05,1.47,.87,2.7,2.05,2.74,1.18,.04,2.18-1.12,2.23-2.59,.05-1.47-.87-2.7-2.05-2.74s-2.18,1.12-2.23,2.59Z"/><path class="cls-55" d="M488.01,309.22c-.05,1.47,.87,2.7,2.05,2.74s2.18-1.12,2.23-2.59c.05-1.47-.87-2.7-2.05-2.74-1.18-.04-2.18,1.12-2.23,2.59Z"/><rect class="cls-1" x="253.62" y="215.03" width="198.19" height="1" transform="translate(117 555.09) rotate(-86.66)"/><polygon class="cls-27" points="242.9 165.91 246.27 161.55 245.48 160.94 242.84 164.35 237.57 158.52 236.83 159.19 242.9 165.91"/><polygon class="cls-1" points="338.56 288.44 337.21 316.17 244.88 292.34 245.18 274.51 338.56 288.44"/><polygon class="cls-2" points="338.56 288.44 339.67 288.72 338.41 315.69 337.21 316.17 338.56 288.44"/><path class="cls-27" d="M245,283.11l.08-.49-19.28-3.18,3.65-51.56,10.6-1.09-.05-.5-10.8,1.11c-.12,.01-.22,.11-.22,.23l-3.68,52c0,.13,.08,.24,.21,.26l19.51,3.22Z"/><path class="cls-27" d="M211.79,210.03s.03,0,.04,0l29.81-4.64-.08-.49-29.5,4.59,5.45-79.21,18.06-7.52-.19-.46-18.2,7.58c-.09,.04-.15,.12-.15,.21l-5.48,79.68c0,.08,.02,.15,.08,.2,.05,.04,.11,.07,.17,.07Z"/><path class="cls-27" d="M243.62,282.76c0,.95,.42,1.72,.94,1.72s.94-.77,.94-1.72-.42-1.72-.94-1.72-.94,.77-.94,1.72Z"/><path class="cls-27" d="M284.63,302.51c0,.95,.42,1.72,.94,1.72s.94-.77,.94-1.72-.42-1.72-.94-1.72-.94,.77-.94,1.72Z"/><path class="cls-66" d="M414.08,323.87l-47.22-13.51c-6.45-1.85-13.14,2.05-14.73,8.57h0c-1.41,5.8,1.73,11.74,7.32,13.84l50.78,19.1c6.26,2.35,13.18-1.2,14.91-7.66l.14-.53c2.3-8.56-2.69-17.37-11.21-19.81Z"/><path class="cls-53" d="M412.63,324.92l-47.22-13.51c-6.45-1.85-13.14,2.05-14.73,8.57h0c-1.41,5.8,1.73,11.74,7.32,13.84l50.78,19.1c6.26,2.35,13.18-1.2,14.91-7.66l.14-.53c2.3-8.56-2.69-17.37-11.21-19.81Z"/><ellipse class="cls-5" cx="382.25" cy="331.77" rx="16.71" ry="28.28" transform="translate(-38.39 613.28) rotate(-74.75)"/><path class="cls-27" d="M378.97,341.95c0,.95,.42,1.72,.94,1.72s.94-.77,.94-1.72-.42-1.72-.94-1.72-.94,.77-.94,1.72Z"/><path class="cls-27" d="M239.14,226.29c0,.95,.42,1.72,.94,1.72s.94-.77,.94-1.72-.42-1.72-.94-1.72-.94,.77-.94,1.72Z"/><path class="cls-27" d="M240.62,204.46c0,.95,.42,1.72,.94,1.72s.94-.77,.94-1.72-.42-1.72-.94-1.72-.94,.77-.94,1.72Z"/><path class="cls-27" d="M234.89,122.1c0,.95,.42,1.72,.94,1.72s.94-.77,.94-1.72-.42-1.72-.94-1.72-.94,.77-.94,1.72Z"/><path class="cls-27" d="M379.91,368.41s.1-.01,.14-.04c.07-.05,.11-.12,.11-.21v-25.79h-.5v25.42l-93.9-39.96v-24.98h-.5v25.14c0,.1,.06,.19,.15,.23l94.4,40.17s.06,.02,.1,.02Z"/><path class="cls-27" d="M405.8,265.34c-.08,2.11-1.03,3.78-2.12,3.74-1.09-.04-1.92-1.78-1.84-3.89s1.03-3.78,2.12-3.74c1.09,.04,1.92,1.78,1.84,3.89Z"/><path class="cls-27" d="M372.97,268.58c-.08,2.11-1.03,3.78-2.12,3.74s-1.92-1.78-1.84-3.89c.08-2.11,1.03-3.78,2.12-3.74s1.92,1.78,1.84,3.89Z"/><rect class="cls-27" x="422.17" y="225.55" width=".94" height="30.79" transform="translate(-63.78 249.25) rotate(-30.67)"/><rect class="cls-27" x="374.82" y="229.72" width="25.45" height=".94" transform="translate(-58.83 292.83) rotate(-38.7)"/><rect class="cls-27" x="373.14" y="209.04" width="21.74" height=".94" transform="translate(-16.04 32.54) rotate(-4.75)"/><rect class="cls-27" x="421.98" y="203.46" width="22.08" height=".94" transform="translate(-26.69 70.64) rotate(-9.05)"/><rect class="cls-27" x="404.1" y="174.3" width="33.54" height=".94" transform="translate(134.22 529.04) rotate(-73.57)"/><rect class="cls-27" x="392.55" y="161.82" width=".94" height="32.58" transform="translate(-37.75 153.05) rotate(-21.05)"/><g><path class="cls-27" d="M365.15,279.13l-4.92-6.05,.59-11.05,5.53-5.49,4.92,6.05-.59,11.05-5.53,5.49Zm-4.22-6.27l4.28,5.26,4.81-4.78,.56-10.53-4.28-5.26-4.81,4.78-.56,10.53Z"/><path class="cls-27" d="M365.56,272.61s-.04,0-.07,0c-.63-.03-1.18-.55-1.54-1.44-.34-.84-.5-1.92-.44-3.06,.06-1.14,.33-2.21,.76-3,.46-.85,1.07-1.29,1.69-1.27,.63,.03,1.18,.54,1.54,1.44,.34,.83,.5,1.92,.44,3.06h0c-.06,1.14-.33,2.21-.76,3-.45,.82-1.02,1.27-1.62,1.27Zm.34-8.27c-.4,0-.83,.36-1.18,1-.39,.73-.64,1.72-.7,2.79-.06,1.07,.08,2.08,.4,2.84,.29,.69,.69,1.1,1.1,1.13,.42,0,.86-.34,1.21-1,.39-.73,.64-1.72,.7-2.79h0c.06-1.07-.08-2.08-.4-2.84-.29-.69-.69-1.1-1.1-1.13-.01,0-.02,0-.04,0Z"/></g><path class="cls-8" d="M391.12,242.29c-.93,6.58,4.42,12.77,11.94,13.84,7.53,1.07,14.39-3.4,15.32-9.97,.93-6.58-4.42-12.77-11.94-13.84-7.53-1.07-14.39,3.4-15.32,9.97Z"/><path class="cls-11" d="M422.63,220.63c-.93,6.58,1.37,12.34,5.15,12.88,3.78,.54,7.59-4.36,8.53-10.94,.93-6.58-1.37-12.34-5.15-12.88-3.78-.54-7.59,4.36-8.53,10.94Z"/><polygon class="cls-27" points="403.61 274.02 370.54 268.88 370.7 267.83 402.63 272.8 403.15 265.2 404.2 265.27 403.61 274.02"/><polygon class="cls-6" points="231.47 177.71 225.29 289.47 401.82 330.52 411.03 142.6 231.47 177.71"/><polygon class="cls-27" points="411.03 142.6 409.48 142.69 400.07 330.33 401.82 330.52 411.03 142.6"/><ellipse class="cls-14" cx="415.31" cy="142.29" rx="66.3" ry="66.35"/><polygon class="cls-29" points="340.57 160.95 337.92 204.83 401.54 201.47 403.26 148.35 340.57 160.95"/><ellipse class="cls-28" cx="314.04" cy="192" rx="93.47" ry="39.39" transform="translate(96.91 489.22) rotate(-85.29)"/><ellipse class="cls-24" cx="307.89" cy="191.49" rx="58.89" ry="20.92" transform="translate(91.76 482.61) rotate(-85.29)"/><path class="cls-27" d="M312.58,193.69c-1.03,12.55-5.49,22.43-9.95,22.06-4.46-.37-7.24-10.84-6.2-23.39s5.49-22.43,9.95-22.06c4.46,.37,7.24,10.84,6.2,23.39Z"/><path class="cls-16" d="M132.67,289.99s1.62,17.7,9.28,17.7,18.41-14.61,18.41-14.61l-27.68-3.08Z"/><ellipse class="cls-41" cx="149.38" cy="291.18" rx="19.89" ry="27.8" transform="translate(-153.08 416.15) rotate(-85.29)"/><path class="cls-57" d="M185.72,278.6l-.31,.89c-3.78,9.29-33.01,21.43-42.54,18.86-9.36-2.52-15.45-12.51-18.27-22.32-2.47-8.6-1.72-19.63,1.41-22.76,3.13-3.13,12.64-10.64,28.57-9.67,15.69,.96,20.63,7.36,25.48,12.21,5.58,5.58,7.21,17.3,5.66,22.78Z"/><path class="cls-62" d="M185.72,278.6l-.31,.89s-23.94,11.68-43,1.45c-17.46-9.36-16.4-27.67-16.4-27.67,3.13-3.13,12.64-10.64,28.57-9.67,15.69,.96,20.63,7.36,25.48,12.21,5.58,5.58,7.21,17.3,5.66,22.78Z"/><ellipse class="cls-58" cx="152.95" cy="249.01" rx="14.39" ry="3.67"/><path class="cls-31" d="M164.11,249.76c0,1.62-5.14,2.93-11.48,2.93s-11.48-1.31-11.48-2.93,5.14-2.93,11.48-2.93,11.48,1.31,11.48,2.93Z"/><path class="cls-62" d="M116.3,222.7l-8.57-3.36-1.5-.59s0-.01,0-.01c.18-.28,3.51-5.12,7.25-4.04,3.85,1.11,2.81,8,2.81,8Z"/><path class="cls-20" d="M181.81,139.07c-5.74,0-14.57-10.14-14.57-22.06,0-8.31,6.11-12.91,10.86-12.91s9.51,10.51,9.51,21.27-3.59,13.7-5.8,13.7Z"/><path class="cls-49" d="M198.46,147.34s-.17,10.24-1.69,14.19c-.21,.54-.44,.97-.7,1.23-2.17,2.16-15.12,11.67-35.91,11.67s-36.81-8.08-38.46-11.53c-.47-.98-.89-1.98-1.26-3-6.69-18.2,1.11-42.32,9.94-48.76,5.54-4.05,31.8-10.79,47.47,.85,16.61,12.35,17.91,34.3,17.91,34.3l2.69,1.04Z"/><path class="cls-13" d="M142.42,233.74s1.62,17.7,9.28,17.7,18.41-14.61,18.41-14.61l-27.68-3.08Z"/><path class="cls-30" d="M194.43,205.16c0,2.28-.35,12.41-9.66,21.72-7.99,7.99-19.58,13.34-29.63,13.34-8.24,0-18.02-10.19-22.82-21.1l-.02-.03c-.44-1-.84-2.01-1.19-3.02-4.17-11.98-4.6-24.24-1.7-27.94,.82-1.05,1.72-2.01,2.68-2.88,1.47-1.35,3.1-2.51,4.83-3.49,16.03-9.11,41.54-3.67,45.16-.42,.4,.36,.79,.75,1.18,1.16,5.95,6.31,10.38,18.3,11.07,21.91,.07,.32,.1,.57,.1,.75Z"/><path class="cls-56" d="M196.77,161.54c-.21,.54-.44,.97-.7,1.23-2.17,2.16-15.12,11.67-35.91,11.67s-36.81-8.08-38.46-11.53c-.47-.98-.89-1.98-1.26-3,0,0,6.01,3.94,13.98,3.15,7.97-.79,39.74-9.67,62.35-1.53Z"/><path class="cls-58" d="M178.46,168.82c0,2.11-7.6,3.82-16.98,3.82s-16.98-1.71-16.98-3.82,7.6-3.82,16.98-3.82,16.98,1.71,16.98,3.82Z"/><ellipse class="cls-55" cx="160.65" cy="168.42" rx="13.83" ry="3.11"/><path class="cls-3" d="M146.82,168.42s5.05,12.38,13.83,12.38,13.83-12.38,13.83-12.38c-3.06-4.03-25.15-4.23-27.66,0Z"/><path class="cls-62" d="M194.43,205.16c-4.34,4.34-28.2,6.99-38.38,1.5-10.18-5.48-19.12-24.91-19.12-24.91,16.03-9.11,41.54-3.67,45.15-.42,6.54,5.88,11.52,19.22,12.26,23.06l.09,.76Z"/><path class="cls-20" d="M123.16,136.68c6.33,0,16.05-11.17,16.05-24.3,0-9.16-6.73-14.22-11.97-14.22s-10.47,11.58-10.47,23.43,3.95,15.09,6.39,15.09Z"/><path class="cls-36" d="M133.3,116.94c-.39,5.33-2.27,10.58-4.64,14.04-1.76,2.59-3.8,4.17-5.68,4.03-4.4-.33-5.53-12.56-5.05-19.08,.56-7.46,4.52-17.06,9.08-17.06,2.5,0,4.62,3.48,5.67,8.4,.61,2.87,.86,6.23,.61,9.66Z"/><path class="cls-48" d="M133.3,116.94c-.39,5.33-2.27,10.58-4.64,14.04-2.66-2.32-3.34-8.65-2.94-12.34,.47-4.35,3.36-9.76,6.98-11.36,.61,2.87,.86,6.23,.61,9.66Z"/><path class="cls-63" d="M112.12,275.31l-33.1-2.84c.37-3.35,.96-6.68,1.75-9.95v-.02c4.91-20.51,17.14-38.61,25.46-43.75,0,0,0-.01,0-.01,2.19-1.35,4.11-1.81,5.55-1.17,2.03,.9,3.5,2.7,4.51,5.13,6.16,14.73-4.18,52.61-4.18,52.61Z"/><path class="cls-20" d="M79.02,272.47c-2.31,5.46,4.21,9.09,14.39,10.13,10.18,1.03,17.75-3.54,18.7-7.29,.95-3.75-6.35-9.69-16.59-9.69s-15.14,3.62-16.51,6.85Z"/><path class="cls-20" d="M132.32,219.12l-.02-.03-4.13-7.04s-6.59-14.51,.59-25.84h0s3.14-2.92,8.16-4.45c0,0,.31,.66,.73,1.85,1.93,5.36,6.18,21.41-5.33,35.51Z"/><path class="cls-58" d="M131.98,210.16h0c-1.08,1.53-2.38,2.04-3.21,1.73-1.9-.72-6.85-17.95,0-25.69,0,0,.48,.36,1.15,1.31,1.17,1.64,2.91,5.07,3.74,11.45,.74,5.64-.3,9.24-1.68,11.19Z"/><path class="cls-55" d="M131.98,210.16h0c-.84-.84-2.55-2.8-3.27-7.48-1.17-7.64,1.21-15.17,1.21-15.17,1.17,1.64,2.91,5.07,3.74,11.45,.74,5.64-.3,9.24-1.68,11.19Z"/><path class="cls-15" d="M131.14,189.63s-15.79,16.28-14.71,22.35c1.08,6.07,16.46-3.5,16.46-3.5,0,0,2.09-5.63-1.75-18.85Z"/><path class="cls-7" d="M131.14,189.63s-9.31,11.5-8.24,17.57c1.08,6.07,9.99,1.28,9.99,1.28,0,0,2.09-5.63-1.75-18.85Z"/><path class="cls-59" d="M83.72,271.78s12.44-5.29,19.88-1.47l3.33,6.76-2.94,11.32s-13.32,5.52-24.97,1.22l-.47-6.27s1.79-6.42,5.17-11.55Z"/><path class="cls-52" d="M105.78,296.26s3.69,2.45,8.19,.69c0,0,1.2-14.3-7.92-21.64,0,0-3.05,1.8-2.56,7.44,.49,5.64,2.28,9.05,2.28,13.52Z"/><path class="cls-52" d="M79.02,285.2s-1.72,10.87-.47,14.3c1.25,3.43,11.36,4.82,11.36,4.82l-5.22-19.8s-2.55-1.17-5.68,.69Z"/><path class="cls-52" d="M84.01,283.63s-2.64,8.72,0,13.95c2.64,5.24,7.07,8.27,7.07,8.27,0,0,5.17-1.18,5.85-4.11s-5.08-18.11-5.08-18.11h-7.85Z"/><path class="cls-37" d="M101.74,281.41c-.67-1.78-7.64-2.09-9.47,1.17-1.83,3.26-1.11,16.78-.65,17.23,.46,.46,5.74,3.59,9.27,1.96,3.52-1.63,4.05-6.14,3.46-7.96s-2.02-10.84-2.61-12.4Z"/><path class="cls-18" d="M91.62,299.82c-.27-1.47,6.24-7.26,12.85-5.49,0,0,1.71,6.03-4.23,7.92-5.94,1.88-8.62-2.43-8.62-2.43Z"/><path class="cls-61" d="M187.61,122.5s-16.23-10.13-39.39,0c0,0-9.01,5.93-9.01,17.47,0,0,11.97,1.78,19.4-1.38,0,0,6.52-9.49,17.56-9.49s14.81,10.87,14.81,10.87l4.49,2.07s-3.05-14.74-7.85-19.54Z"/><path class="cls-20" d="M195.76,146.3c-25.74-10.25-70.15,6.99-70.15,6.99-6.23-3.59-4.91-18.28-4.91-18.28,0,10.45,5.86,16.15,5.86,16.15,45.67-18.74,69.2-4.87,69.2-4.87Z"/><path class="cls-62" d="M195.76,146.3c-25.74-10.25-70.15,6.99-70.15,6.99l.95-2.13c45.67-18.74,69.2-4.87,69.2-4.87Z"/><ellipse class="cls-44" cx="156.62" cy="248.9" rx="18.49" ry="25.83" transform="translate(-104.3 384.55) rotate(-85.29)"/><ellipse class="cls-42" cx="163.46" cy="171.16" rx="20.31" ry="28.38" transform="translate(-20.54 320.02) rotate(-85.29)"/><ellipse class="cls-25" cx="93.55" cy="239.95" rx="35.02" ry="25.06" transform="translate(-154.98 172.41) rotate(-53.5)"/><ellipse class="cls-26" cx="129.06" cy="117.66" rx="20.31" ry="21.74" transform="translate(1.2 236.62) rotate(-85.29)"/><path class="cls-62" d="M113.49,214.7l-1.7,2.87c-1.35,.31-2.71,.91-4.06,1.77-13.91,8.73-26.96,43.18-26.96,43.18v-.02c4.91-20.51,17.14-38.61,25.46-43.75,0,0,0-.01,0-.01,.18-.28,3.51-5.12,7.25-4.04Z"/><path class="cls-18" d="M183.26,182.5c-20.36-9.58-44.11-1.72-46.34-.74-.12,.05,.56,1.15,.56,1.15l-3.76,.71-4.96,2.59h0s3.14-2.92,8.16-4.45c16.03-9.11,41.54-3.67,45.16-.42,.4,.36,.79,.75,1.18,1.16Z"/><path class="cls-18" d="M138.55,107.66l.53,2.6s23.52-7.84,38.77,1.74c0,0-11.72-11.24-39.3-4.34Z"/><path class="cls-55" d="M147.47,127.97l17.98-1.84s-4.16,7.19-10.81,7.19-7.18-5.34-7.18-5.34Z"/><path class="cls-40" d="M155.75,121.78c7.57-.46,13.92,2.59,14.18,6.81,.25,4.22-5.68,8.01-13.25,8.47-7.57,.46-13.92-2.59-14.18-6.81-.25-4.22,5.68-8.01,13.25-8.47Z"/><path class="cls-55" d="M184.14,126.52s5.58,1.08,7.42,2.64c0,0,2.09,4.19-.51,4.04-3.06-.18-6.91-6.67-6.91-6.67Z"/><path class="cls-39" d="M191.1,122.8c6.23,2.84,10.01,7.95,8.43,11.42-1.58,3.47-7.91,3.99-14.15,1.16-6.23-2.84-10.01-7.95-8.43-11.42,1.58-3.47,7.91-3.99,14.15-1.16Z"/><path class="cls-32" d="M478.49,72.71c19.85,.92,34.81,26.18,33.41,56.42-.16,3.41-.52,6.74-1.06,9.96-1.48,8.86-4.35,16.91-8.21,23.58-7.17,12.41-17.74,20.1-29.19,19.57-19.85-.92-34.81-26.18-33.42-56.43,1.39-30.25,18.62-54.03,38.47-53.11Zm-6.57,98.69c15.07,.69,28.19-18.45,29.31-42.76,1.12-24.31-10.18-44.58-25.25-45.28-15.06-.69-28.18,18.46-29.3,42.76-1.12,24.31,10.18,44.58,25.24,45.28Z"/><g><path class="cls-64" d="M471.27,171.35c-.22,0-.45,0-.67,0-15.06-.69-26.36-20.96-25.24-45.28,1.12-24.31,14.24-43.46,29.3-42.76,.22,.01,.45,.04,.67,.06-14.78-.1-27.53,18.82-28.63,42.76-1.1,23.95,9.85,43.96,24.57,45.22Z"/><path class="cls-64" d="M501.3,162.61c3.86-6.67,6.73-14.72,8.21-23.58,.54-3.22,.9-6.55,1.06-9.96,1.38-29.9-13.23-54.92-32.74-56.37,.22,0,.45,0,.67,0,19.85,.91,34.81,26.18,33.41,56.42-.16,3.41-.52,6.74-1.06,9.96-1.48,8.86-4.35,16.91-8.21,23.58-7.17,12.41-17.74,20.1-29.19,19.57-.16,0-.33-.03-.49-.04,11.12,.12,21.35-7.5,28.34-19.59Z"/></g><path class="cls-45" d="M446.69,126.12c-1.12,24.31,10.18,44.58,25.24,45.28,15.07,.69,28.19-18.45,29.31-42.76,1.12-24.31-10.18-44.58-25.25-45.28-15.06-.69-28.18,18.45-29.3,42.76Z"/><path class="cls-1" d="M472.37,72.43c18.74,.86,32.8,26.08,31.41,56.33-1.39,30.25-17.72,54.07-36.46,53.2-18.74-.86-32.8-26.08-31.41-56.33,1.39-30.25,17.72-54.07,36.46-53.2Zm-4.63,100.35c15.6,.72,29.18-19.1,30.34-44.28,1.16-25.17-10.54-46.16-26.14-46.88-15.6-.72-29.18,19.1-30.34,44.28-1.16,25.17,10.54,46.16,26.14,46.88Z"/><g><path class="cls-50" d="M466.99,172.71c-.21,0-.42,0-.62,0-15.6-.72-27.3-21.71-26.14-46.88,1.16-25.17,14.75-45,30.34-44.28,.21,0,.41,.04,.62,.05-15.33-.17-28.57,19.44-29.72,44.28-1.14,24.83,10.23,45.58,25.52,46.83Z"/><path class="cls-50" d="M502.58,128.74c1.38-29.91-12.36-54.89-30.79-56.28,.21,0,.42,0,.62,0,18.74,.86,32.8,26.08,31.41,56.33-1.39,30.25-17.72,54.07-36.46,53.2-.21,0-.41-.04-.62-.05,18.48,.31,34.46-23.3,35.84-53.21Z"/></g><path class="cls-19" d="M450.68,108.95c-1.8,7.21-.25,13.82,3.47,14.75,3.72,.93,8.2-4.16,10-11.38,1.8-7.21,.25-13.82-3.47-14.75-3.72-.93-8.2,4.16-10,11.38Z"/><path class="cls-19" d="M449.78,129.66c-.11,2.41,1.31,4.43,3.18,4.52,1.87,.09,3.47-1.8,3.58-4.21s-1.31-4.43-3.18-4.52c-1.87-.09-3.47,1.8-3.58,4.21Z"/><path class="cls-32" d="M475.99,127.72c0,5.13-1.72,9.3-3.85,9.3s-3.85-4.16-3.85-9.3,1.72-9.3,3.85-9.3,3.85,4.16,3.85,9.3Z"/><ellipse class="cls-1" cx="470.69" cy="127.72" rx="3.85" ry="9.3"/><path class="cls-32" d="M471.14,129.82l.14,1.13c-1.13,0-2.04-.92-2.04-2.04l1.43-41.22,1.29-.25,1.37,2.13v39.34c0,1.13-1.05,.92-2.18,.92Z"/><path class="cls-1" d="M469.99,131.19h0c-1.13,0-2.04-.92-2.04-2.04l.77-37.16,1.95-4.31,1.37,2.13v39.34c0,1.13-.92,2.04-2.04,2.04Z"/><polygon class="cls-32" points="470.91 130.82 491.59 124.61 496.25 116.83 491.88 114.18 471.07 126.66 470.91 130.82"/><polygon class="cls-1" points="469.99 131.19 490.67 124.98 495.33 117.2 490.96 114.55 470.15 127.04 469.99 131.19"/><g><polygon class="cls-18" points="376.67 51.09 322.63 79.12 322.73 77.59 376.78 49.17 376.67 51.09"/><polygon class="cls-18" points="380.01 56.36 326.01 82.92 326.11 81.36 380.12 54.41 380.01 56.36"/><polygon class="cls-18" points="406.41 35.68 377.99 50.41 378.1 48.48 406.53 33.53 406.41 35.68"/><polygon class="cls-18" points="409.36 34.15 407.54 35.09 407.66 32.94 409.48 31.98 409.36 34.15"/><polygon class="cls-18" points="408.93 42.14 403.59 44.76 403.71 42.64 409.04 39.98 408.93 42.14"/><polygon class="cls-18" points="323.54 84.13 321.72 85.02 321.82 83.5 323.64 82.59 323.54 84.13"/><polygon class="cls-18" points="402.42 45.34 382.3 55.23 382.42 53.26 402.54 43.22 402.42 45.34"/><polygon class="cls-18" points="357.76 73.73 321.9 90.4 321.99 88.88 357.87 71.94 357.76 73.73"/><polygon class="cls-18" points="379.19 70.78 325.27 94.41 325.37 92.85 379.3 68.83 379.19 70.78"/><polygon class="cls-18" points="358.5 86.33 320.63 101.91 320.73 100.39 358.61 84.53 358.5 86.33"/><polygon class="cls-18" points="407.18 66.31 369.31 81.89 369.42 80 407.3 64.15 407.18 66.31"/><polygon class="cls-18" points="405.55 51.51 377.17 64.7 377.28 62.77 405.66 49.36 405.55 51.51"/><polygon class="cls-18" points="408.49 50.14 406.68 50.98 406.79 48.83 408.61 47.97 408.49 50.14"/><polygon class="cls-18" points="408.06 58.13 402.73 60.46 402.85 58.34 408.17 55.97 408.06 58.13"/><polygon class="cls-18" points="322.81 95.49 320.99 96.28 321.09 94.76 322.91 93.95 322.81 95.49"/><polygon class="cls-18" points="401.56 60.98 388.39 66.75 388.5 64.73 401.68 58.86 401.56 60.98"/><polygon class="cls-18" points="374.63 86.64 320.8 107.34 320.9 105.81 374.74 84.71 374.63 86.64"/><polygon class="cls-18" points="377.95 92.41 324.16 111.65 324.26 110.09 378.06 90.46 377.95 92.41"/><polygon class="cls-18" points="404.25 75.25 375.94 86.14 376.05 84.2 404.37 73.11 404.25 75.25"/><polygon class="cls-18" points="407.19 74.12 405.38 74.82 405.5 72.67 407.31 71.96 407.19 74.12"/><polygon class="cls-18" points="406.75 82.12 401.44 84.01 401.56 81.89 406.87 79.95 406.75 82.12"/><polygon class="cls-18" points="321.7 112.52 319.9 113.17 319.99 111.65 321.8 110.99 321.7 112.52"/><polygon class="cls-18" points="400.28 84.43 380.24 91.6 380.35 89.63 400.39 82.32 400.28 84.43"/><polygon class="cls-18" points="373.81 100.86 320.07 118.62 320.16 117.1 373.92 98.93 373.81 100.86"/><polygon class="cls-18" points="377.13 106.83 323.42 123.14 323.52 121.58 377.24 104.88 377.13 106.83"/><polygon class="cls-18" points="356.53 119.63 318.8 130.06 318.9 128.53 356.63 117.82 356.53 119.63"/><polygon class="cls-18" points="405.01 106.22 367.29 116.65 367.4 114.77 405.13 104.06 405.01 106.22"/><polygon class="cls-18" points="403.39 91.08 375.12 100.42 375.23 98.49 403.5 88.94 403.39 91.08"/><polygon class="cls-18" points="406.32 90.11 404.51 90.71 404.63 88.56 406.44 87.95 406.32 90.11"/><polygon class="cls-18" points="405.89 98.1 400.58 99.71 400.7 97.59 406 95.94 405.89 98.1"/><polygon class="cls-18" points="320.97 123.88 319.16 124.43 319.26 122.91 321.07 122.34 320.97 123.88"/><polygon class="cls-18" points="399.42 100.07 379.41 106.14 379.52 104.17 399.53 97.95 399.42 100.07"/></g><g><polygon class="cls-18" points="276.7 99.32 240.24 118.22 240.31 117.19 276.78 98.02 276.7 99.32"/><polygon class="cls-18" points="278.95 102.87 242.52 120.79 242.59 119.74 279.03 101.56 278.95 102.87"/><polygon class="cls-18" points="296.76 88.92 277.59 98.86 277.66 97.56 296.84 87.47 296.76 88.92"/><polygon class="cls-18" points="298.75 87.89 297.53 88.52 297.61 87.07 298.83 86.43 298.75 87.89"/><polygon class="cls-18" points="298.46 93.28 294.86 95.05 294.94 93.62 298.54 91.82 298.46 93.28"/><polygon class="cls-18" points="240.86 121.61 239.63 122.21 239.7 121.18 240.92 120.57 240.86 121.61"/><polygon class="cls-18" points="294.07 95.44 280.5 102.11 280.58 100.78 294.15 94.01 294.07 95.44"/><polygon class="cls-18" points="263.94 114.59 239.75 125.84 239.81 124.81 264.01 113.38 263.94 114.59"/><polygon class="cls-18" points="278.4 112.6 242.02 128.54 242.09 127.49 278.47 111.28 278.4 112.6"/><polygon class="cls-18" points="264.44 123.09 238.89 133.6 238.96 132.57 264.52 121.87 264.44 123.09"/><polygon class="cls-18" points="297.28 109.58 271.73 120.09 271.81 118.82 297.36 108.12 297.28 109.58"/><polygon class="cls-18" points="296.18 99.6 277.03 108.5 277.11 107.19 296.26 98.15 296.18 99.6"/><polygon class="cls-18" points="298.17 98.67 296.94 99.24 297.02 97.79 298.25 97.21 298.17 98.67"/><polygon class="cls-18" points="297.87 104.07 294.28 105.64 294.36 104.21 297.95 102.61 297.87 104.07"/><polygon class="cls-18" points="240.36 129.27 239.14 129.8 239.2 128.78 240.43 128.23 240.36 129.27"/><polygon class="cls-18" points="293.49 105.99 284.61 109.88 284.68 108.52 293.57 104.56 293.49 105.99"/><polygon class="cls-18" points="275.32 123.3 239.01 137.26 239.07 136.23 275.4 122 275.32 123.3"/><polygon class="cls-18" points="277.56 127.19 241.28 140.17 241.34 139.12 277.64 125.88 277.56 127.19"/><polygon class="cls-18" points="295.31 115.61 276.21 122.96 276.28 121.65 295.39 114.17 295.31 115.61"/><polygon class="cls-18" points="297.29 114.85 296.07 115.32 296.15 113.87 297.37 113.39 297.29 114.85"/><polygon class="cls-18" points="297 120.25 293.41 121.53 293.49 120.09 297.07 118.79 297 120.25"/><polygon class="cls-18" points="239.62 140.76 238.4 141.2 238.47 140.17 239.69 139.72 239.62 140.76"/><polygon class="cls-18" points="292.62 121.81 279.11 126.64 279.18 125.31 292.7 120.38 292.62 121.81"/><polygon class="cls-18" points="274.77 132.89 238.51 144.88 238.58 143.84 274.85 131.59 274.77 132.89"/><polygon class="cls-18" points="277.01 136.92 240.78 147.92 240.85 146.87 277.08 135.61 277.01 136.92"/><polygon class="cls-18" points="263.11 145.55 237.66 152.59 237.73 151.56 263.18 144.34 263.11 145.55"/><polygon class="cls-18" points="295.82 136.51 270.37 143.55 270.44 142.28 295.9 135.05 295.82 136.51"/><polygon class="cls-18" points="294.72 126.29 275.65 132.6 275.73 131.29 294.8 124.85 294.72 126.29"/><polygon class="cls-18" points="296.7 125.64 295.48 126.04 295.56 124.59 296.78 124.18 296.7 125.64"/><polygon class="cls-18" points="296.41 131.03 292.83 132.12 292.91 130.69 296.49 129.57 296.41 131.03"/><polygon class="cls-18" points="239.12 148.42 237.91 148.79 237.97 147.76 239.19 147.39 239.12 148.42"/><polygon class="cls-18" points="292.05 132.36 278.55 136.45 278.62 135.13 292.12 130.93 292.05 132.36"/></g><g><path class="cls-27" d="M450.29,324.18c-3.34,0-5.95-5.55-5.95-12.64s2.62-12.64,5.95-12.64,5.95,5.55,5.95,12.64-2.62,12.64-5.95,12.64Zm0-24.22c-2.65,0-4.9,5.3-4.9,11.58s2.24,11.58,4.9,11.58,4.9-5.3,4.9-11.58-2.24-11.58-4.9-11.58Z"/><path class="cls-27" d="M449.69,314.65l-.14-8.77c0-.26,.21-.48,.47-.48h0c.26,0,.47,.21,.47,.47l.09,5.86,1.42-2.01c.15-.21,.45-.26,.66-.11,.21,.15,.26,.45,.11,.66l-3.1,4.38Z"/></g><polygon class="cls-27" points="315.38 219.95 315.31 219.82 299.92 194.39 300.35 194.13 315.66 219.44 406.12 217.43 406.14 217.93 315.38 219.95"/><polygon class="cls-27" points="406.43 232.57 229.45 228.12 229.46 227.62 406.44 232.07 406.43 232.57"/><polygon class="cls-27" points="321.15 230.15 320.65 230.12 321.38 219.34 321.88 219.37 321.15 230.15"/><polygon class="cls-27" points="402.23 293.83 226 269.1 226.07 268.6 402.3 293.33 402.23 293.83"/><path class="cls-18" d="M302.12,202.59l-5.36-7.59c-.32-.45-.21-1.08,.24-1.39,.45-.32,1.08-.21,1.39,.24l3.52,4.97,8.3-15.12c.27-.48,.88-.66,1.36-.4,.48,.27,.66,.87,.4,1.36l-9.84,17.92Z"/><polygon class="cls-27" points="444.72 312.02 434.47 308.94 434.47 308.57 434.87 246.6 435.87 246.6 435.47 308.2 445.01 311.06 444.72 312.02"/><ellipse class="cls-27" cx="444.86" cy="311.97" rx="1.67" ry="3.58"/><path class="cls-27" d="M285.52,245.2c0,1.98-.75,3.58-1.67,3.58s-1.67-1.6-1.67-3.58,.75-3.58,1.67-3.58,1.67,1.6,1.67,3.58Z"/><polygon class="cls-27" points="308.35 175.04 307.92 174.78 313.67 165.16 313.78 165.14 409.46 148.85 409.55 149.34 313.98 165.62 308.35 175.04"/><rect class="cls-27" x="256.02" y="215.03" width=".5" height="56.15" transform="translate(-4.48 481.39) rotate(-85.91)"/><g><polygon class="cls-27" points="316.12 258.09 289.18 256.21 289.21 255.71 315.66 257.56 317.14 236.46 317.64 236.5 316.12 258.09"/><path class="cls-27" d="M295.23,257.38s-.04,0-.07,0c-.55-.04-.97-.51-.93-1.07l.51-7.6c.04-.55,.5-.95,1.07-.93,.55,.04,.97,.51,.93,1.07l-.51,7.6c-.04,.53-.48,.93-1,.93Z"/><path class="cls-27" d="M302.42,257.88s-.03,0-.04,0c-.55-.02-.98-.49-.96-1.04l.56-13.04c.02-.55,.5-.98,1.04-.96,.55,.02,.98,.49,.96,1.04l-.56,13.04c-.02,.54-.47,.96-1,.96Z"/><path class="cls-27" d="M309.15,258.35s-.05,0-.08,0c-.55-.04-.96-.53-.92-1.08l1.31-16.34c.04-.55,.51-.95,1.08-.92,.55,.04,.96,.53,.92,1.08l-1.31,16.34c-.04,.52-.48,.92-1,.92Z"/><rect class="cls-27" x="289.97" y="242.52" width="22.4" height=".5" transform="translate(-83.19 199.07) rotate(-32.39)"/><polygon class="cls-27" points="310.1 238.88 309.67 238.63 310.7 236.83 308.36 237.12 308.29 236.62 311.63 236.21 310.1 238.88"/></g><g><g><path class="cls-27" d="M319.07,200.42c-.15,0-.3-.04-.44-.12-.43-.24-.58-.79-.34-1.22l2.53-4.47-2.22-4.72c-.21-.45-.02-.98,.43-1.19,.45-.21,.98-.02,1.19,.43l2.62,5.55-2.98,5.27c-.16,.29-.47,.45-.78,.45Z"/><g class="cls-23"><path class="cls-27" d="M323.41,200.07c-.15,0-.3-.04-.44-.12-.43-.24-.58-.79-.34-1.22l2.53-4.47-2.22-4.72c-.21-.45-.02-.98,.43-1.19,.45-.21,.98-.02,1.19,.43l2.62,5.55-2.98,5.27c-.16,.29-.47,.45-.78,.45Z"/></g></g><g class="cls-34"><path class="cls-27" d="M327.74,200.42c-.15,0-.3-.04-.44-.12-.43-.24-.58-.79-.34-1.22l2.53-4.47-2.22-4.72c-.21-.45-.02-.98,.43-1.19,.45-.21,.98-.02,1.19,.43l2.62,5.55-2.98,5.27c-.16,.29-.47,.45-.78,.45Z"/></g></g><g><g><path class="cls-18" d="M402.78,344.16c-.23,0-.46-.09-.64-.27-.35-.35-.34-.92,.01-1.26l3.59-3.53-2.74-7.78c-.16-.46,.08-.97,.54-1.14,.46-.16,.97,.08,1.14,.54l3.12,8.84-4.39,4.32c-.17,.17-.4,.26-.62,.26Z"/><g class="cls-23"><path class="cls-18" d="M407.05,345.02c-.23,0-.46-.09-.64-.27-.35-.35-.34-.92,.01-1.26l3.59-3.52-2.74-7.78c-.16-.46,.08-.97,.54-1.14,.46-.16,.97,.08,1.14,.55l3.12,8.84-4.39,4.32c-.17,.17-.4,.26-.62,.26Z"/></g></g><g class="cls-34"><path class="cls-18" d="M411.11,346.55c-.23,0-.46-.09-.64-.27-.35-.35-.34-.92,.01-1.26l3.59-3.52-2.74-7.78c-.16-.46,.08-.97,.54-1.14,.46-.16,.97,.08,1.14,.54l3.12,8.84-4.39,4.32c-.17,.17-.4,.26-.62,.26Z"/></g></g><polygon class="cls-21" points="326.43 70.79 327.41 60.47 370.51 33.89 369.97 45.35 326.43 70.79"/><polygon class="cls-2" points="290.45 83.52 291.89 69.5 304.88 60.34 303.94 75.98 290.45 83.52"/><polygon class="cls-27" points="304.88 60.34 305.5 61.04 304.85 76.59 303.94 75.98 304.88 60.34"/><g><path class="cls-27" d="M296.76,76.85s-.03,0-.04,0c-.29-.02-.51-.28-.48-.57l.69-8.42c.02-.29,.28-.5,.57-.48,.29,.02,.51,.28,.48,.57l-.69,8.42c-.02,.28-.25,.48-.53,.48Z"/><path class="cls-27" d="M294.15,74.64c-.17,0-.33-.08-.44-.23-.16-.24-.1-.57,.14-.73l5.85-4.02c.24-.17,.57-.1,.73,.14,.16,.24,.1,.57-.14,.73l-5.85,4.02c-.09,.06-.2,.09-.3,.09Z"/></g></g></g></svg>