<?xml version="1.0" encoding="UTF-8"?><svg id="project_menagement" xmlns="http://www.w3.org/2000/svg" width="594.2403" height="379.9185" xmlns:xlink="http://www.w3.org/1999/xlink" viewBox="0 0 594.2403 379.9185"><defs><style>.cls-1{fill:url(#radial-gradient-4);}.cls-1,.cls-2,.cls-3,.cls-4,.cls-5,.cls-6,.cls-7,.cls-8,.cls-9,.cls-10,.cls-11{opacity:.5;}.cls-12{fill:#001863;}.cls-2{fill:url(#radial-gradient-3);}.cls-3{fill:url(#radial-gradient-9);}.cls-4{fill:url(#radial-gradient-10);}.cls-13{fill:#1341c4;}.cls-5{fill:url(#radial-gradient);}.cls-14,.cls-8{fill:#2487fb;}.cls-6{fill:url(#radial-gradient-7);}.cls-7{fill:url(#radial-gradient-2);}.cls-15{fill:#072b88;}.cls-9{fill:url(#radial-gradient-8);}.cls-10{fill:url(#radial-gradient-5);}.cls-11{fill:url(#radial-gradient-6);}</style><radialGradient id="radial-gradient" cx="-3384.433" cy="-447.1076" fx="-3384.433" fy="-447.1076" r="12.9919" gradientTransform="translate(-2285.0641 1215.5358) rotate(153.0966) scale(.8957 .8599) skewX(-1.7343)" gradientUnits="userSpaceOnUse"><stop offset="0" stop-color="#02689b"/><stop offset=".4129" stop-color="#02689b" stop-opacity=".5504"/><stop offset=".8114" stop-color="#02689b" stop-opacity=".154"/><stop offset="1" stop-color="#02689b" stop-opacity="0"/></radialGradient><radialGradient id="radial-gradient-2" cx="-3257.6232" cy="-615.8492" fx="-3257.6232" fy="-615.8492" r="12.9919" gradientTransform="translate(-2285.0641 1175.3521) rotate(154.0116) scale(.8887 .8327)" gradientUnits="userSpaceOnUse"><stop offset="0" stop-color="#02689b"/><stop offset="1" stop-color="#02689b" stop-opacity="0"/></radialGradient><radialGradient id="radial-gradient-3" cx="-1948.2347" cy="2629.9231" fx="-1948.2347" fy="2629.9231" r="16.063" gradientTransform="translate(-2649.0568 -676.4879) rotate(-111.7619) scale(.8887 .8327)" xlink:href="#radial-gradient-2"/><radialGradient id="radial-gradient-4" cx="197.3982" cy="746.3391" fx="197.3982" fy="746.3391" r="23.8803" gradientTransform="translate(26.2532 -256.2737) scale(1.1392 .8152)" xlink:href="#radial-gradient-2"/><radialGradient id="radial-gradient-5" cx="-2529.877" cy="1251.4995" fx="-2529.877" fy="1251.4995" r="15.4957" gradientTransform="translate(-2474.4317 617.4625) rotate(150.6201) scale(1.1392 -.8151)" xlink:href="#radial-gradient-2"/><radialGradient id="radial-gradient-6" cx="-1757.5956" cy="-1193.192" fx="-1757.5956" fy="-1193.192" r="23.8802" gradientTransform="translate(-903.2235 -1827.5538) rotate(-89.9986) scale(1.1392 -.8151)" xlink:href="#radial-gradient-2"/><radialGradient id="radial-gradient-7" cx="-1685.9261" cy="-1324.3658" fx="-1685.9261" fy="-1324.3658" r="23.8802" gradientTransform="translate(-994.5364 -1881.1406) rotate(-89.9986) scale(1.1392 -.8151)" xlink:href="#radial-gradient-2"/><radialGradient id="radial-gradient-8" cx="-2744.3165" cy="-292.7" fx="-2744.3165" fy="-292.7" r="12.9919" xlink:href="#radial-gradient-2"/><radialGradient id="radial-gradient-9" cx="-3107.5029" cy="-121.0704" fx="-3107.5029" fy="-121.0704" r="12.9919" xlink:href="#radial-gradient-2"/><radialGradient id="radial-gradient-10" cx="-3363.4879" cy="-200.8903" fx="-3363.4879" fy="-200.8903" r="12.9919" xlink:href="#radial-gradient-2"/></defs><path class="cls-5" d="M571.1928,197.3802c-2.6183-5.5901-.0947-12.4795,5.6367-15.388,5.7314-2.9085,12.5003-.7346,15.1186,4.8554,2.6184,5.5901,.0947,12.4795-5.6367,15.388-5.7314,2.9084-12.5002,.7345-15.1186-4.8554Z"/><polygon class="cls-8" points="470.7583 16.9295 472.1743 18.9036 479.4523 16.8324 479.9559 10.3327 477.1246 6.3853 470.0339 13.4233 470.7583 16.9295"/><polygon class="cls-13" points="470.0339 13.4233 475.3951 13.6841 479.9559 10.3327 477.1246 6.3853 470.0339 13.4233"/><polygon class="cls-14" points="12.3042 332.8022 14.6959 333.2286 18.4651 326.6672 14.2912 321.6593 9.5089 320.8066 9.3391 330.7957 12.3042 332.8022"/><polygon class="cls-13" points="9.3391 330.7957 13.3619 327.2422 14.2912 321.6593 9.5089 320.8066 9.3391 330.7957"/><polygon class="cls-14" points="579.9726 197.8985 582.3644 198.3249 586.1335 191.7635 581.9596 186.7556 577.1773 185.9029 577.0075 195.892 579.9726 197.8985"/><polygon class="cls-13" points="577.0075 195.892 581.0304 192.3385 581.9596 186.7556 577.1773 185.9029 577.0075 195.892"/><path class="cls-7" d="M531.471,372.8562c-2.6183-5.3706-.0947-11.9895,5.6367-14.7838,5.7314-2.7943,12.5003-.7058,15.1186,4.6648,2.6184,5.3706,.0947,11.9895-5.6367,14.7838-5.7314,2.7942-12.5002,.7057-15.1186-4.6648Z"/><polygon class="cls-14" points="548.2034 363.9406 547.1387 361.7568 539.6164 362.5776 538.0295 368.9007 540.1583 373.2671 548.3293 367.5186 548.2034 363.9406"/><polygon class="cls-13" points="548.3293 367.5186 543.0879 366.362 538.0295 368.9007 540.1583 373.2671 548.3293 367.5186"/><polygon class="cls-14" points="235.9262 57.7578 236.745 60.045 244.312 60.0538 246.5824 53.9427 244.9451 49.3692 236.1932 54.1875 235.9262 57.7578"/><polygon class="cls-13" points="236.1932 54.1875 241.2763 55.9117 246.5824 53.9427 244.9451 49.3692 236.1932 54.1875"/><polygon class="cls-14" points="27.6566 126.8669 29.9129 125.9662 29.6494 118.4038 23.4606 116.3548 18.949 118.1557 24.0791 126.7285 27.6566 126.8669"/><polygon class="cls-13" points="24.0791 126.7285 25.6192 121.5866 23.4606 116.3548 18.949 118.1557 24.0791 126.7285"/><path class="cls-2" d="M21.5769,106.4696c6.8613-2.7388,14.7928,.9769,17.7156,8.2992,2.9228,7.3222-.27,15.4783-7.1313,18.2171-6.8612,2.7388-14.7928-.9769-17.7156-8.2992-2.9227-7.3222,.27-15.4783,7.1313-18.2171Z"/><polygon class="cls-13" points="228.0173 358.6202 231.6293 352.5675 243.7285 345.5865 253.9496 345.2376 265.0474 356.5367 264.3951 370.2063 256.1984 376.3525 236.2425 379.3751 230.1844 363.5673 228.0173 358.6202"/><polygon class="cls-15" points="243.7285 345.5865 233.1075 353.5417 240.5718 364.7084 257.4872 367.0417 265.0474 356.5367 264.3951 370.2063 256.1984 376.3525 236.2425 379.3751 228.0173 358.6202 231.6293 352.5675 243.7285 345.5865"/><polygon class="cls-12" points="236.2425 379.3751 240.5718 364.7084 233.1075 353.5417 228.0173 358.6202 236.2425 379.3751"/><ellipse class="cls-1" cx="251.0985" cy="352.1216" rx="27.2046" ry="19.466" transform="translate(-46.9451 38.7367) rotate(-8.07)"/><polygon class="cls-13" points="554.9339 89.8125 550.685 88.1197 541.6977 89.2977 536.2948 93.151 535.0363 103.3505 540.7661 110.1349 547.4136 110.0667 558.8863 103.7495 555.7696 93.216 554.9339 89.8125"/><polygon class="cls-15" points="541.6977 89.2977 550.3079 89.2049 550.869 97.9024 543.0759 105.7789 535.0363 103.3505 540.7661 110.1349 547.4136 110.0667 558.8863 103.7495 554.9339 89.8125 550.685 88.1197 541.6977 89.2977"/><polygon class="cls-12" points="558.8863 103.7495 550.869 97.9024 550.3079 89.2049 554.9339 89.8125 558.8863 103.7495"/><path class="cls-10" d="M522.0697,101.115c3.4225,6.0788,13.0839,7.1291,21.5792,2.3459,8.4954-4.7832,12.6076-13.5886,9.1851-19.6673-3.4226-6.0788-13.084-7.1291-21.5793-2.3459s-12.6076,13.5886-9.185,19.6673Z"/><polygon class="cls-13" points="84.2985 192.7989 84.9633 185.7818 79.3313 172.9987 71.2936 166.6752 55.6631 169.2281 51.5844 183.2426 63.7972 203.087 65.3952 204.6767 79.6262 195.508 84.2985 192.7989"/><polygon class="cls-15" points="79.3313 172.9987 83.1951 185.6937 70.5736 190.2878 68.401 178.3572 55.6631 169.2281 51.5844 183.2426 65.3952 204.6767 65.3952 204.6767 84.2985 192.7989 84.9633 185.7818 79.3313 172.9987"/><polygon class="cls-12" points="65.3952 204.6767 70.5736 190.2878 83.1951 185.6937 84.2985 192.7989 65.3952 204.6767"/><ellipse class="cls-11" cx="69.349" cy="174.7617" rx="19.466" ry="27.2045" transform="translate(-104.1501 102.3117) rotate(-45.6913)"/><ellipse class="cls-6" cx="84.9633" cy="39.5276" rx="19.466" ry="27.2045" transform="translate(-2.228 5.1929) rotate(-3.4555)"/><polygon class="cls-12" points="68.401 178.3572 57.637 192.636 51.5844 183.2426 55.6631 169.2281 68.401 178.3572"/><polygon class="cls-13" points="79.4938 64.3754 85.5771 60.8151 92.6609 48.7758 93.0969 38.5581 81.8928 27.3644 68.1361 32.2423 59.1663 53.748 58.8098 55.9736 74.5653 62.1662 79.4938 64.3754"/><polygon class="cls-15" points="92.6609 48.7758 84.6155 59.3286 73.5128 51.7695 81.9261 43.0358 81.8928 27.3644 68.1361 32.2423 58.8098 55.9736 58.8098 55.9736 79.4938 64.3754 85.5771 60.8151 92.6609 48.7758"/><polygon class="cls-12" points="58.8098 55.9736 73.5128 51.7695 84.6155 59.3286 79.4938 64.3754 58.8098 55.9736"/><polygon class="cls-12" points="81.9261 43.0358 63.7234 43.4705 68.1361 32.2423 81.8928 27.3644 81.9261 43.0358"/><path class="cls-9" d="M3.5244,330.8607c-2.6183-5.3706-.0947-11.9895,5.6367-14.7838,5.7314-2.7943,12.5003-.7058,15.1186,4.6648,2.6184,5.3706,.0947,11.9895-5.6367,14.7838-5.7314,2.7942-12.5002,.7057-15.1186-4.6648Z"/><path class="cls-3" d="M231.0101,60.9712c-2.6183-5.3706-.0947-11.9895,5.6367-14.7838,5.7314-2.7943,12.5003-.7058,15.1186,4.6648,2.6184,5.3706,.0947,11.9895-5.6367,14.7838-5.7314,2.7942-12.5002,.7057-15.1186-4.6648Z"/><path class="cls-4" d="M464.6172,21.0358c-2.6183-5.3706-.0947-11.9895,5.6367-14.7838,5.7314-2.7943,12.5003-.7058,15.1186,4.6648,2.6184,5.3706,.0947,11.9895-5.6367,14.7838-5.7314,2.7942-12.5002,.7057-15.1186-4.6648Z"/></svg>