<?xml version="1.0" encoding="UTF-8"?><svg xmlns="http://www.w3.org/2000/svg" width="204.66" height="159.35" xmlns:xlink="http://www.w3.org/1999/xlink" viewBox="0 0 204.66 159.35"><defs><style>.cls-1{fill:url(#radial-gradient-44);}.cls-1,.cls-2,.cls-3,.cls-4,.cls-5,.cls-6,.cls-7,.cls-8,.cls-9,.cls-10,.cls-11,.cls-12,.cls-13,.cls-14,.cls-15,.cls-16,.cls-17,.cls-18,.cls-19,.cls-20,.cls-21,.cls-22,.cls-23,.cls-24,.cls-25,.cls-26,.cls-27,.cls-28,.cls-29,.cls-30,.cls-31,.cls-32,.cls-33,.cls-34,.cls-35,.cls-36,.cls-37,.cls-38,.cls-39{opacity:.5;}.cls-1,.cls-3,.cls-9,.cls-11,.cls-12,.cls-13,.cls-15,.cls-16,.cls-17,.cls-40,.cls-22,.cls-24,.cls-25,.cls-31,.cls-41,.cls-32,.cls-33,.cls-34,.cls-36{mix-blend-mode:multiply;}.cls-42{fill:url(#radial-gradient-46);}.cls-43{fill:url(#radial-gradient-7);}.cls-44{fill:url(#radial-gradient-34);}.cls-45{fill:url(#radial-gradient-10);}.cls-2{fill:url(#radial-gradient-17);}.cls-2,.cls-4,.cls-46,.cls-47,.cls-5,.cls-48,.cls-6,.cls-7,.cls-10,.cls-14,.cls-19,.cls-20,.cls-23,.cls-26,.cls-49,.cls-29,.cls-50,.cls-35,.cls-38{mix-blend-mode:screen;}.cls-3{fill:url(#radial-gradient-14);}.cls-4{fill:url(#radial-gradient-48);}.cls-46{fill:url(#radial-gradient-53);}.cls-46,.cls-47,.cls-48,.cls-40,.cls-49,.cls-41,.cls-50{opacity:.25;}.cls-47{fill:url(#radial-gradient-51);}.cls-5{fill:url(#radial-gradient-42);}.cls-48{fill:url(#radial-gradient-4);}.cls-6{fill:url(#radial-gradient-41);}.cls-51{fill:url(#radial-gradient-28);}.cls-7{fill:url(#radial-gradient-30);}.cls-8{fill:url(#radial-gradient-39);}.cls-9{fill:url(#radial-gradient-19);}.cls-10{fill:url(#radial-gradient-24);}.cls-52{fill:url(#radial-gradient-16);}.cls-11{fill:url(#radial-gradient-32);}.cls-53{isolation:isolate;}.cls-12{fill:url(#radial-gradient-37);}.cls-13{fill:url(#radial-gradient-5);}.cls-54{fill:url(#radial-gradient-40);}.cls-14{fill:url(#radial-gradient-23);}.cls-15{fill:url(#radial-gradient-8);}.cls-16{fill:url(#radial-gradient-20);}.cls-17{fill:url(#radial-gradient-43);}.cls-18{fill:url(#radial-gradient-21);}.cls-19{fill:url(#radial-gradient-47);}.cls-40{fill:url(#radial-gradient-54);}.cls-55{fill:url(#radial-gradient-22);}.cls-20{fill:url(#radial-gradient-36);}.cls-21{fill:url(#radial-gradient-9);}.cls-22{fill:url(#radial-gradient-49);}.cls-23{fill:url(#radial-gradient-18);}.cls-24{fill:url(#radial-gradient-50);}.cls-25{fill:url(#radial-gradient-13);}.cls-26{fill:url(#radial-gradient-11);}.cls-27{fill:url(#radial-gradient-33);}.cls-28{fill:url(#radial-gradient-15);}.cls-49{fill:url(#radial-gradient-52);}.cls-29{fill:url(#radial-gradient-29);}.cls-30{fill:url(#radial-gradient);}.cls-31{fill:url(#radial-gradient-26);}.cls-56{fill:url(#radial-gradient-2);}.cls-41{fill:url(#radial-gradient-55);}.cls-50{fill:url(#radial-gradient-3);}.cls-32{fill:url(#radial-gradient-25);}.cls-33{fill:url(#radial-gradient-6);}.cls-34{fill:url(#radial-gradient-31);}.cls-35{fill:url(#radial-gradient-35);}.cls-36{fill:url(#radial-gradient-38);}.cls-37{fill:url(#radial-gradient-45);}.cls-38{fill:url(#radial-gradient-12);}.cls-39{fill:url(#radial-gradient-27);}</style><radialGradient id="radial-gradient" cx="105.96" cy="81.55" fx="105.96" fy="81.55" r="79.83" gradientTransform="translate(86.98 -50.64) rotate(45)" gradientUnits="userSpaceOnUse"><stop offset=".06" stop-color="#5e8dec"/><stop offset=".24" stop-color="#5e8eec" stop-opacity=".99"/><stop offset=".37" stop-color="#6091ec" stop-opacity=".95"/><stop offset=".48" stop-color="#6396ec" stop-opacity=".88"/><stop offset=".59" stop-color="#689eec" stop-opacity=".79"/><stop offset=".68" stop-color="#6ea9ec" stop-opacity=".66"/><stop offset=".78" stop-color="#75b5ec" stop-opacity=".51"/><stop offset=".87" stop-color="#7dc4ed" stop-opacity=".34"/><stop offset=".95" stop-color="#87d5ed" stop-opacity=".14"/><stop offset="1" stop-color="#8ee1ee" stop-opacity="0"/></radialGradient><radialGradient id="radial-gradient-2" cx="82.79" cy="47.91" fx="82.79" fy="47.91" r="129.02" gradientTransform="translate(158.12 -40.44) rotate(76.72)" gradientUnits="userSpaceOnUse"><stop offset=".08" stop-color="#ffe245"/><stop offset=".53" stop-color="#de007b"/><stop offset="1" stop-color="#e38427"/></radialGradient><radialGradient id="radial-gradient-3" cx="91.15" cy="35.28" fx="91.15" fy="35.28" r="97.71" gradientUnits="userSpaceOnUse"><stop offset="0" stop-color="#8ee1ee"/><stop offset=".94" stop-color="#5e8dec"/></radialGradient><radialGradient id="radial-gradient-4" cx="-458.31" cy="925.93" fx="-458.31" fy="925.93" r="97.71" gradientTransform="translate(58.94 -987.05) rotate(-27.07)" xlink:href="#radial-gradient-3"/><radialGradient id="radial-gradient-5" cx="143.14" cy="80.55" fx="143.14" fy="80.55" r="246.83" xlink:href="#radial-gradient-3"/><radialGradient id="radial-gradient-6" cx="-906.82" cy="1346.16" fx="-906.82" fy="1346.16" r="246.83" gradientTransform="translate(-136.86 -1547.34) rotate(-43.53)" xlink:href="#radial-gradient-3"/><radialGradient id="radial-gradient-7" cx="103.88" cy="77.94" fx="103.88" fy="77.94" r="81.35" gradientUnits="userSpaceOnUse"><stop offset=".02" stop-color="#732fa4"/><stop offset=".35" stop-color="#702da0"/><stop offset=".62" stop-color="#672696"/><stop offset=".86" stop-color="#591c85"/><stop offset="1" stop-color="#4f1579"/><stop offset="1" stop-color="#51167b"/></radialGradient><radialGradient id="radial-gradient-8" cx="103.57" cy="77.35" fx="103.57" fy="77.35" r="76.82" xlink:href="#radial-gradient-7"/><radialGradient id="radial-gradient-9" cx="31.91" cy="129.09" fx="31.91" fy="129.09" r="17.71" gradientUnits="userSpaceOnUse"><stop offset=".06" stop-color="#ecb900"/><stop offset=".24" stop-color="#ecb800" stop-opacity=".99"/><stop offset=".37" stop-color="#ecb802" stop-opacity=".95"/><stop offset=".48" stop-color="#ecb604" stop-opacity=".88"/><stop offset=".59" stop-color="#ecb408" stop-opacity=".79"/><stop offset=".68" stop-color="#ecb20d" stop-opacity=".66"/><stop offset=".78" stop-color="#ecaf13" stop-opacity=".51"/><stop offset=".87" stop-color="#edac1b" stop-opacity=".34"/><stop offset=".95" stop-color="#eda823" stop-opacity=".14"/><stop offset="1" stop-color="#eea629" stop-opacity="0"/></radialGradient><radialGradient id="radial-gradient-10" cx="26.77" cy="121.63" fx="26.77" fy="121.63" r="28.62" gradientUnits="userSpaceOnUse"><stop offset="0" stop-color="#eeca6c"/><stop offset=".34" stop-color="#eea629"/><stop offset=".94" stop-color="#ecb900"/></radialGradient><radialGradient id="radial-gradient-11" cx="28.63" cy="118.83" fx="28.63" fy="118.83" r="21.68" gradientUnits="userSpaceOnUse"><stop offset="0" stop-color="#eea629"/><stop offset=".94" stop-color="#ecb900"/></radialGradient><radialGradient id="radial-gradient-12" cx="-535.13" cy="971.16" fx="-535.13" fy="971.16" r="21.68" gradientTransform="translate(58.94 -987.05) rotate(-27.07)" xlink:href="#radial-gradient-11"/><radialGradient id="radial-gradient-13" cx="40.16" cy="128.87" fx="40.16" fy="128.87" r="54.76" xlink:href="#radial-gradient-11"/><radialGradient id="radial-gradient-14" cx="-1023.48" cy="1331.25" fx="-1023.48" fy="1331.25" r="54.76" gradientTransform="translate(-136.86 -1547.34) rotate(-43.53)" xlink:href="#radial-gradient-11"/><radialGradient id="radial-gradient-15" cx="173.86" cy="67.02" fx="173.86" fy="67.02" r="14.7" gradientTransform="matrix(1, 0, 0, 1, 0, 0)" xlink:href="#radial-gradient"/><radialGradient id="radial-gradient-16" cx="169.59" cy="60.83" fx="169.59" fy="60.83" r="23.77" gradientUnits="userSpaceOnUse"><stop offset="0" stop-color="#d1e1ee"/><stop offset=".34" stop-color="#8ee1ee"/><stop offset=".94" stop-color="#5e8dec"/></radialGradient><radialGradient id="radial-gradient-17" cx="171.13" cy="58.5" fx="171.13" fy="58.5" r="18" xlink:href="#radial-gradient-3"/><radialGradient id="radial-gradient-18" cx="-379.96" cy="982.26" fx="-379.96" fy="982.26" r="18" gradientTransform="translate(58.94 -987.05) rotate(-27.07)" xlink:href="#radial-gradient-3"/><radialGradient id="radial-gradient-19" cx="180.71" cy="66.84" fx="180.71" fy="66.84" r="45.47" xlink:href="#radial-gradient-3"/><radialGradient id="radial-gradient-20" cx="-879.28" cy="1384.08" fx="-879.28" fy="1384.08" r="45.47" gradientTransform="translate(-136.86 -1547.34) rotate(-43.53)" xlink:href="#radial-gradient-3"/><radialGradient id="radial-gradient-21" cx="199.62" cy="38.65" fx="199.62" fy="38.65" r="4.69" xlink:href="#radial-gradient-9"/><radialGradient id="radial-gradient-22" cx="198.26" cy="36.68" fx="198.26" fy="36.68" r="7.57" xlink:href="#radial-gradient-10"/><radialGradient id="radial-gradient-23" cx="198.75" cy="35.93" fx="198.75" fy="35.93" r="5.74" xlink:href="#radial-gradient-11"/><radialGradient id="radial-gradient-24" cx="-342.37" cy="974.62" fx="-342.37" fy="974.62" r="5.74" gradientTransform="translate(58.94 -987.05) rotate(-27.07)" xlink:href="#radial-gradient-11"/><radialGradient id="radial-gradient-25" cx="201.81" cy="38.59" fx="201.81" fy="38.59" r="14.49" xlink:href="#radial-gradient-11"/><radialGradient id="radial-gradient-26" cx="-845.94" cy="1381.51" fx="-845.94" fy="1381.51" r="14.49" gradientTransform="translate(-136.86 -1547.34) rotate(-43.53)" xlink:href="#radial-gradient-11"/><radialGradient id="radial-gradient-27" cx="137.3" cy="81.26" fx="137.3" fy="81.26" r="4.69" gradientTransform="matrix(1, 0, 0, 1, 0, 0)" xlink:href="#radial-gradient"/><radialGradient id="radial-gradient-28" cx="135.94" cy="79.29" fx="135.94" fy="79.29" r="7.57" xlink:href="#radial-gradient-16"/><radialGradient id="radial-gradient-29" cx="136.43" cy="78.55" fx="136.43" fy="78.55" r="5.74" xlink:href="#radial-gradient-3"/><radialGradient id="radial-gradient-30" cx="-417.26" cy="984.2" fx="-417.26" fy="984.2" r="5.74" gradientTransform="translate(58.94 -987.05) rotate(-27.07)" xlink:href="#radial-gradient-3"/><radialGradient id="radial-gradient-31" cx="139.48" cy="81.2" fx="139.48" fy="81.2" r="14.49" xlink:href="#radial-gradient-3"/><radialGradient id="radial-gradient-32" cx="-920.47" cy="1369.49" fx="-920.47" fy="1369.49" r="14.49" gradientTransform="translate(-136.86 -1547.34) rotate(-43.53)" xlink:href="#radial-gradient-3"/><radialGradient id="radial-gradient-33" cx="58.83" cy="125.16" fx="58.83" fy="125.16" r="4.69" gradientTransform="matrix(1, 0, 0, 1, 0, 0)" xlink:href="#radial-gradient"/><radialGradient id="radial-gradient-34" cx="57.47" cy="123.19" fx="57.47" fy="123.19" r="7.57" xlink:href="#radial-gradient-16"/><radialGradient id="radial-gradient-35" cx="57.96" cy="122.45" fx="57.96" fy="122.45" r="5.74" xlink:href="#radial-gradient-3"/><radialGradient id="radial-gradient-36" cx="-507.11" cy="987.58" fx="-507.11" fy="987.58" r="5.74" gradientTransform="translate(58.94 -987.05) rotate(-27.07)" xlink:href="#radial-gradient-3"/><radialGradient id="radial-gradient-37" cx="61.01" cy="125.11" fx="61.01" fy="125.11" r="14.49" xlink:href="#radial-gradient-3"/><radialGradient id="radial-gradient-38" cx="-1007.6" cy="1347.28" fx="-1007.6" fy="1347.28" r="14.49" gradientTransform="translate(-136.86 -1547.34) rotate(-43.53)" xlink:href="#radial-gradient-3"/><radialGradient id="radial-gradient-39" cx="69.71" cy="113.03" fx="69.71" fy="113.03" r="4.69" xlink:href="#radial-gradient-9"/><radialGradient id="radial-gradient-40" cx="68.35" cy="111.06" fx="68.35" fy="111.06" r="7.57" xlink:href="#radial-gradient-10"/><radialGradient id="radial-gradient-41" cx="68.84" cy="110.32" fx="68.84" fy="110.32" r="5.74" xlink:href="#radial-gradient-11"/><radialGradient id="radial-gradient-42" cx="-491.91" cy="981.73" fx="-491.91" fy="981.73" r="5.74" gradientTransform="translate(58.94 -987.05) rotate(-27.07)" xlink:href="#radial-gradient-11"/><radialGradient id="radial-gradient-43" cx="71.89" cy="112.97" fx="71.89" fy="112.97" r="14.49" xlink:href="#radial-gradient-11"/><radialGradient id="radial-gradient-44" cx="-991.36" cy="1345.97" fx="-991.36" fy="1345.97" r="14.49" gradientTransform="translate(-136.86 -1547.34) rotate(-43.53)" xlink:href="#radial-gradient-11"/><radialGradient id="radial-gradient-45" cx="4.76" cy="127.19" fx="4.76" fy="127.19" r="4.69" gradientTransform="matrix(1, 0, 0, 1, 0, 0)" xlink:href="#radial-gradient"/><radialGradient id="radial-gradient-46" cx="3.4" cy="125.22" fx="3.4" fy="125.22" r="7.57" xlink:href="#radial-gradient-16"/><radialGradient id="radial-gradient-47" cx="3.89" cy="124.48" fx="3.89" fy="124.48" r="5.74" xlink:href="#radial-gradient-3"/><radialGradient id="radial-gradient-48" cx="-556.19" cy="964.78" fx="-556.19" fy="964.78" r="5.74" gradientTransform="translate(58.94 -987.05) rotate(-27.07)" xlink:href="#radial-gradient-3"/><radialGradient id="radial-gradient-49" cx="6.94" cy="127.13" fx="6.94" fy="127.13" r="14.49" xlink:href="#radial-gradient-3"/><radialGradient id="radial-gradient-50" cx="-1048.2" cy="1311.51" fx="-1048.2" fy="1311.51" r="14.49" gradientTransform="translate(-136.86 -1547.34) rotate(-43.53)" xlink:href="#radial-gradient-3"/><radialGradient id="radial-gradient-51" cx="76.08" cy="48.75" fx="76.08" fy="48.75" r="44.21" gradientTransform="matrix(1, 0, 0, 1, 0, 0)" xlink:href="#radial-gradient-2"/><radialGradient id="radial-gradient-52" cx="122.6" cy="55.39" fx="122.6" fy="55.39" r="52.99" gradientTransform="matrix(1, 0, 0, 1, 0, 0)" xlink:href="#radial-gradient-2"/><radialGradient id="radial-gradient-53" cx="122.6" cy="55.39" fx="122.6" fy="55.39" r="52.99" gradientTransform="matrix(1, 0, 0, 1, 0, 0)" xlink:href="#radial-gradient-2"/><radialGradient id="radial-gradient-54" cx="110.77" cy="114.59" fx="110.77" fy="114.59" r="15.32" gradientTransform="translate(202.51 -19.16) rotate(76.72)" xlink:href="#radial-gradient-3"/><radialGradient id="radial-gradient-55" cx="137.07" cy="111.73" fx="137.07" fy="111.73" r="12.69" xlink:href="#radial-gradient-3"/></defs><g class="cls-53"><g id="Layer_2"><g id="BACKGROUND2"><g><g><g><circle class="cls-30" cx="104.61" cy="79.68" r="79.68" transform="translate(-25.7 97.31) rotate(-45)"/><circle class="cls-56" cx="104.61" cy="79.68" r="64.59" transform="translate(3.03 163.18) rotate(-76.72)"/><path class="cls-50" d="M46.61,86.27c0-35.67,28.92-64.6,64.59-64.6,16.28,0,31.14,6.04,42.5,15.97-11.84-13.53-29.23-22.09-48.62-22.09-35.67,0-64.6,28.92-64.6,64.59,0,19.4,8.56,36.78,22.09,48.62-9.94-11.36-15.97-26.22-15.97-42.5Z"/><path class="cls-48" d="M55.8,111.65c-16.24-31.77-3.65-70.68,28.12-86.92,14.5-7.41,30.48-8.8,45.11-5.12-16.7-6.66-36.08-6.37-53.35,2.46-31.77,16.24-44.35,55.15-28.12,86.92,8.83,17.27,24.36,28.85,41.8,33.24-14.02-5.59-26.16-16.08-33.57-30.57Z"/><path class="cls-13" d="M133.36,21.83c11.53,9.85,18.86,24.49,18.86,40.85,0,29.67-24.05,53.72-53.72,53.72s-53.72-24.05-53.72-53.72c0-3.15,.29-6.23,.81-9.23-3.57,8.02-5.56,16.88-5.56,26.22,0,35.67,28.92,64.6,64.59,64.6s64.6-28.92,64.6-64.6c0-25.34-14.6-47.27-35.85-57.85Z"/><path class="cls-33" d="M85.18,17.45c15.15-.8,30.54,4.77,41.81,16.64,20.43,21.51,19.56,55.51-1.95,75.95-21.51,20.43-55.51,19.56-75.95-1.95-2.17-2.28-4.08-4.71-5.77-7.25,2.93,8.27,7.59,16.07,14.02,22.85,24.57,25.87,65.45,26.92,91.32,2.35,25.87-24.57,26.92-65.45,2.35-91.32-17.45-18.38-43.14-24.21-65.83-17.25Z"/></g><path class="cls-43" d="M203.61,29.6c-3.98-8.21-17.32-9.36-40.8-3.49-5.26,1.31-10.88,2.96-16.76,4.88,1.46,1.08,2.81,2.3,4.07,3.6,1.78,1.5,3.43,3.19,5.01,4.95,2.7-.82,5.34-1.58,7.88-2.25,23.58-6.21,29.76-3.5,30.74-2.91-.14,1.14-1.85,7.67-21.33,22.33-15.68,11.79-37.44,24.65-61.29,36.21-23.84,11.56-47.42,20.68-66.39,25.68-23.57,6.21-29.76,3.51-30.74,2.91,.14-1.14,1.85-7.67,21.33-22.33,2.13-1.6,4.4-3.23,6.74-4.86-1.25-3.86-1.94-7.85-1.84-11.92-4.89,3.28-9.44,6.52-13.55,9.69C7.54,106.88,.17,118.06,4.15,126.27c2.32,4.78,7.81,7.17,16.63,7.17,6.33,0,14.36-1.23,24.17-3.68,20.08-5.02,45.28-14.63,70.93-27.07,25.66-12.44,48.81-26.26,65.19-38.91,19.15-14.79,26.52-25.98,22.54-34.19Z"/><path class="cls-15" d="M117.66,94.93c76.68-36.58,87.95-60.09,79.86-65.87-7.73-5.52-30.64,.28-46.57,6.29,1.46,1.31,2.86,2.71,4.18,4.19,2.7-.82,5.34-1.58,7.88-2.25,23.58-6.21,29.76-3.5,30.74-2.91-.14,1.14-1.85,7.67-21.33,22.33-15.68,11.79-37.44,24.65-61.29,36.21-23.84,11.56-47.42,20.68-66.39,25.68-23.57,6.21-29.76,3.51-30.74,2.91,.14-1.14,1.85-7.67,21.33-22.33,2.13-1.6,4.4-3.23,6.74-4.86-.79-2.44-1.32-4.94-1.61-7.47-8.66,6.19-38.91,28.72-32.1,36.29,7.93,8.81,32.61,8.37,109.29-28.2Z"/></g><g><circle class="cls-21" cx="31.61" cy="128.68" r="17.68"/><circle class="cls-45" cx="31.61" cy="128.68" r="14.33"/><path class="cls-26" d="M18.74,130.14c0-7.91,6.42-14.33,14.33-14.33,3.61,0,6.91,1.34,9.43,3.54-2.63-3-6.48-4.9-10.79-4.9-7.91,0-14.33,6.42-14.33,14.33,0,4.3,1.9,8.16,4.9,10.79-2.2-2.52-3.54-5.82-3.54-9.43Z"/><path class="cls-38" d="M20.78,135.77c-3.6-7.05-.81-15.68,6.24-19.28,3.22-1.64,6.76-1.95,10.01-1.14-3.71-1.48-8-1.41-11.84,.55-7.05,3.6-9.84,12.24-6.24,19.28,1.96,3.83,5.4,6.4,9.27,7.37-3.11-1.24-5.8-3.57-7.45-6.78Z"/><path class="cls-25" d="M37.99,115.84c2.56,2.19,4.18,5.43,4.18,9.06,0,6.58-5.34,11.92-11.92,11.92s-11.92-5.34-11.92-11.92c0-.7,.06-1.38,.18-2.05-.79,1.78-1.23,3.75-1.23,5.82,0,7.91,6.42,14.33,14.33,14.33s14.33-6.42,14.33-14.33c0-5.62-3.24-10.49-7.95-12.83Z"/><path class="cls-3" d="M27.3,114.87c3.36-.18,6.78,1.06,9.28,3.69,4.53,4.77,4.34,12.32-.43,16.85s-12.32,4.34-16.85-.43c-.48-.51-.91-1.05-1.28-1.61,.65,1.83,1.68,3.57,3.11,5.07,5.45,5.74,14.52,5.97,20.26,.52,5.74-5.45,5.97-14.52,.52-20.26-3.87-4.08-9.57-5.37-14.6-3.83Z"/></g><g><circle class="cls-28" cx="173.61" cy="66.68" r="14.68"/><circle class="cls-52" cx="173.61" cy="66.68" r="11.9"/><path class="cls-2" d="M162.93,67.89c0-6.57,5.33-11.9,11.9-11.9,3,0,5.74,1.11,7.83,2.94-2.18-2.49-5.38-4.07-8.96-4.07-6.57,0-11.9,5.33-11.9,11.9,0,3.57,1.58,6.78,4.07,8.96-1.83-2.09-2.94-4.83-2.94-7.83Z"/><path class="cls-23" d="M164.62,72.57c-2.99-5.85-.67-13.02,5.18-16.01,2.67-1.36,5.61-1.62,8.31-.94-3.08-1.23-6.65-1.17-9.83,.45-5.85,2.99-8.17,10.16-5.18,16.01,1.63,3.18,4.49,5.32,7.7,6.12-2.58-1.03-4.82-2.96-6.18-5.63Z"/><path class="cls-9" d="M178.91,56.02c2.12,1.81,3.47,4.51,3.47,7.53,0,5.47-4.43,9.9-9.9,9.9s-9.9-4.43-9.9-9.9c0-.58,.05-1.15,.15-1.7-.66,1.48-1.03,3.11-1.03,4.83,0,6.57,5.33,11.9,11.9,11.9s11.9-5.33,11.9-11.9c0-4.67-2.69-8.71-6.6-10.66Z"/><path class="cls-16" d="M170.03,55.22c2.79-.15,5.63,.88,7.7,3.06,3.76,3.96,3.6,10.23-.36,13.99-3.96,3.76-10.23,3.6-13.99-.36-.4-.42-.75-.87-1.06-1.34,.54,1.52,1.4,2.96,2.58,4.21,4.53,4.76,12.06,4.96,16.82,.43,4.76-4.53,4.96-12.06,.43-16.82-3.22-3.39-7.95-4.46-12.13-3.18Z"/></g><g><path class="cls-18" d="M204.22,38.54c0,2.58-2.09,4.68-4.68,4.68s-4.68-2.09-4.68-4.68,2.09-4.68,4.68-4.68,4.68,2.09,4.68,4.68Z"/><path class="cls-55" d="M203.34,38.54c0,2.09-1.7,3.79-3.79,3.79s-3.79-1.7-3.79-3.79,1.7-3.79,3.79-3.79,3.79,1.7,3.79,3.79Z"/><path class="cls-14" d="M196.14,38.93c0-2.09,1.7-3.79,3.79-3.79,.96,0,1.83,.35,2.49,.94-.7-.79-1.72-1.3-2.85-1.3-2.09,0-3.79,1.7-3.79,3.79,0,1.14,.5,2.16,1.3,2.85-.58-.67-.94-1.54-.94-2.49Z"/><path class="cls-10" d="M196.68,40.42c-.95-1.86-.21-4.15,1.65-5.1,.85-.43,1.79-.52,2.65-.3-.98-.39-2.12-.37-3.13,.14-1.86,.95-2.6,3.24-1.65,5.1,.52,1.01,1.43,1.69,2.45,1.95-.82-.33-1.54-.94-1.97-1.79Z"/><path class="cls-32" d="M201.23,35.14c.68,.58,1.11,1.44,1.11,2.4,0,1.74-1.41,3.15-3.15,3.15s-3.15-1.41-3.15-3.15c0-.18,.02-.37,.05-.54-.21,.47-.33,.99-.33,1.54,0,2.09,1.7,3.79,3.79,3.79s3.79-1.7,3.79-3.79c0-1.49-.86-2.77-2.1-3.4Z"/><path class="cls-31" d="M198.4,34.89c.89-.05,1.79,.28,2.45,.98,1.2,1.26,1.15,3.26-.11,4.46-1.26,1.2-3.26,1.15-4.46-.11-.13-.13-.24-.28-.34-.43,.17,.49,.45,.94,.82,1.34,1.44,1.52,3.84,1.58,5.36,.14,1.52-1.44,1.58-3.84,.14-5.36-1.02-1.08-2.53-1.42-3.86-1.01Z"/></g><g><path class="cls-39" d="M141.9,81.15c0,2.58-2.09,4.68-4.68,4.68s-4.68-2.09-4.68-4.68,2.09-4.68,4.68-4.68,4.68,2.09,4.68,4.68Z"/><path class="cls-51" d="M141.01,81.15c0,2.09-1.7,3.79-3.79,3.79s-3.79-1.7-3.79-3.79,1.7-3.79,3.79-3.79,3.79,1.7,3.79,3.79Z"/><path class="cls-29" d="M133.82,81.54c0-2.09,1.7-3.79,3.79-3.79,.96,0,1.83,.35,2.49,.94-.69-.79-1.72-1.3-2.85-1.3-2.09,0-3.79,1.7-3.79,3.79,0,1.14,.5,2.16,1.3,2.85-.58-.67-.94-1.54-.94-2.49Z"/><path class="cls-7" d="M134.36,83.03c-.95-1.86-.21-4.15,1.65-5.1,.85-.43,1.79-.52,2.65-.3-.98-.39-2.12-.37-3.13,.14-1.86,.95-2.6,3.24-1.65,5.1,.52,1.01,1.43,1.69,2.45,1.95-.82-.33-1.54-.94-1.97-1.79Z"/><path class="cls-34" d="M138.91,77.76c.68,.58,1.11,1.44,1.11,2.4,0,1.74-1.41,3.15-3.15,3.15s-3.15-1.41-3.15-3.15c0-.18,.02-.37,.05-.54-.21,.47-.33,.99-.33,1.54,0,2.09,1.7,3.79,3.79,3.79s3.79-1.7,3.79-3.79c0-1.49-.86-2.77-2.1-3.4Z"/><path class="cls-11" d="M136.08,77.5c.89-.05,1.79,.28,2.45,.98,1.2,1.26,1.15,3.26-.11,4.46-1.26,1.2-3.26,1.15-4.46-.11-.13-.13-.24-.28-.34-.43,.17,.49,.45,.94,.82,1.34,1.44,1.52,3.84,1.58,5.36,.14,1.52-1.44,1.58-3.84,.14-5.36-1.02-1.08-2.53-1.42-3.86-1.01Z"/></g><g><circle class="cls-27" cx="58.75" cy="125.05" r="4.68"/><circle class="cls-44" cx="58.75" cy="125.05" r="3.79"/><path class="cls-35" d="M55.35,125.44c0-2.09,1.7-3.79,3.79-3.79,.96,0,1.83,.35,2.49,.94-.7-.79-1.72-1.3-2.85-1.3-2.09,0-3.79,1.7-3.79,3.79,0,1.14,.5,2.16,1.3,2.85-.58-.67-.94-1.54-.94-2.49Z"/><path class="cls-20" d="M55.89,126.93c-.95-1.86-.21-4.15,1.65-5.1,.85-.44,1.79-.52,2.65-.3-.98-.39-2.12-.37-3.13,.14-1.86,.95-2.6,3.24-1.65,5.1,.52,1.01,1.43,1.69,2.45,1.95-.82-.33-1.54-.94-1.97-1.79Z"/><path class="cls-12" d="M60.44,121.66c.68,.58,1.11,1.44,1.11,2.4,0,1.74-1.41,3.15-3.15,3.15s-3.15-1.41-3.15-3.15c0-.18,.02-.37,.05-.54-.21,.47-.33,.99-.33,1.54,0,2.09,1.7,3.79,3.79,3.79s3.79-1.7,3.79-3.79c0-1.49-.86-2.77-2.1-3.4Z"/><path class="cls-36" d="M57.61,121.4c.89-.05,1.79,.28,2.45,.98,1.2,1.26,1.15,3.26-.11,4.46-1.26,1.2-3.26,1.15-4.46-.11-.13-.13-.24-.28-.34-.43,.17,.49,.45,.94,.82,1.34,1.44,1.52,3.84,1.58,5.36,.14,1.52-1.44,1.58-3.84,.14-5.36-1.02-1.08-2.53-1.42-3.86-1.01Z"/></g><g><circle class="cls-8" cx="69.63" cy="112.92" r="4.68"/><circle class="cls-54" cx="69.63" cy="112.92" r="3.79"/><path class="cls-6" d="M66.22,113.31c0-2.09,1.7-3.79,3.79-3.79,.96,0,1.83,.35,2.49,.94-.69-.79-1.72-1.3-2.85-1.3-2.09,0-3.79,1.7-3.79,3.79,0,1.14,.5,2.16,1.3,2.85-.58-.67-.94-1.54-.94-2.49Z"/><path class="cls-5" d="M66.76,114.8c-.95-1.86-.21-4.15,1.65-5.1,.85-.43,1.79-.52,2.65-.3-.98-.39-2.12-.37-3.13,.14-1.86,.95-2.6,3.24-1.65,5.1,.52,1.01,1.43,1.69,2.45,1.95-.82-.33-1.54-.94-1.97-1.79Z"/><path class="cls-17" d="M71.31,109.53c.68,.58,1.11,1.44,1.11,2.4,0,1.74-1.41,3.15-3.15,3.15s-3.15-1.41-3.15-3.15c0-.18,.02-.37,.05-.54-.21,.47-.33,.99-.33,1.54,0,2.09,1.7,3.79,3.79,3.79s3.79-1.7,3.79-3.79c0-1.49-.86-2.77-2.1-3.4Z"/><path class="cls-1" d="M68.49,109.27c.89-.05,1.79,.28,2.45,.98,1.2,1.26,1.15,3.26-.11,4.46-1.26,1.2-3.26,1.15-4.46-.11-.13-.13-.24-.28-.34-.43,.17,.49,.45,.94,.82,1.34,1.44,1.52,3.84,1.58,5.36,.14,1.52-1.44,1.58-3.84,.14-5.36-1.02-1.08-2.53-1.42-3.86-1.01Z"/></g><g><path class="cls-37" d="M9.35,127.08c0,2.58-2.09,4.68-4.68,4.68s-4.68-2.09-4.68-4.68,2.09-4.68,4.68-4.68,4.68,2.09,4.68,4.68Z"/><path class="cls-42" d="M8.47,127.08c0,2.09-1.7,3.79-3.79,3.79s-3.79-1.7-3.79-3.79,1.7-3.79,3.79-3.79,3.79,1.7,3.79,3.79Z"/><path class="cls-19" d="M1.27,127.47c0-2.09,1.7-3.79,3.79-3.79,.96,0,1.83,.35,2.49,.94-.7-.79-1.72-1.3-2.85-1.3-2.09,0-3.79,1.7-3.79,3.79,0,1.14,.5,2.16,1.3,2.85-.58-.67-.94-1.54-.94-2.49Z"/><path class="cls-4" d="M1.81,128.96c-.95-1.86-.21-4.15,1.65-5.1,.85-.43,1.79-.52,2.65-.3-.98-.39-2.12-.37-3.13,.14-1.86,.95-2.6,3.24-1.65,5.1,.52,1.01,1.43,1.69,2.45,1.95-.82-.33-1.54-.94-1.97-1.79Z"/><path class="cls-22" d="M6.36,123.69c.68,.58,1.11,1.44,1.11,2.4,0,1.74-1.41,3.15-3.15,3.15s-3.15-1.41-3.15-3.15c0-.18,.02-.37,.05-.54-.21,.47-.33,.99-.33,1.54,0,2.09,1.7,3.79,3.79,3.79s3.79-1.7,3.79-3.79c0-1.49-.86-2.77-2.1-3.4Z"/><path class="cls-24" d="M3.54,123.43c.89-.05,1.79,.28,2.45,.98,1.2,1.26,1.15,3.26-.11,4.46-1.26,1.2-3.26,1.15-4.46-.11-.13-.13-.24-.28-.34-.43,.17,.49,.45,.94,.82,1.34,1.44,1.52,3.84,1.58,5.36,.14,1.52-1.44,1.58-3.84,.14-5.36-1.02-1.08-2.53-1.42-3.86-1.01Z"/></g><circle class="cls-47" cx="83.56" cy="59.63" r="22.13"/><circle class="cls-49" cx="121.25" cy="71.03" r="8.55"/><path class="cls-46" d="M134.26,56.29c0,2.19-1.77,3.96-3.96,3.96s-3.96-1.77-3.96-3.96,1.77-3.96,3.96-3.96,3.96,1.77,3.96,3.96Z"/><circle class="cls-40" cx="113.36" cy="118.36" r="7.67" transform="translate(-27.88 201.5) rotate(-76.72)"/><circle class="cls-41" cx="139.22" cy="114.86" r="6.36"/></g></g></g></g></svg>