<?xml version="1.0" encoding="UTF-8"?><svg xmlns="http://www.w3.org/2000/svg" width="198.63" height="197.91" xmlns:xlink="http://www.w3.org/1999/xlink" viewBox="0 0 198.63 197.91"><defs><style>.cls-1{fill:url(#radial-gradient-44);}.cls-1,.cls-2,.cls-3,.cls-4,.cls-5,.cls-6,.cls-7,.cls-8,.cls-9,.cls-10,.cls-11,.cls-12,.cls-13,.cls-14,.cls-15,.cls-16,.cls-17,.cls-18,.cls-19,.cls-20,.cls-21,.cls-22,.cls-23,.cls-24,.cls-25,.cls-26,.cls-27,.cls-28,.cls-29,.cls-30,.cls-31,.cls-32,.cls-33,.cls-34,.cls-35,.cls-36,.cls-37,.cls-38,.cls-39,.cls-40,.cls-41,.cls-42,.cls-43,.cls-44,.cls-45,.cls-46,.cls-47,.cls-48,.cls-49,.cls-50,.cls-51,.cls-52,.cls-53,.cls-54,.cls-55,.cls-56,.cls-57,.cls-58,.cls-59,.cls-60{mix-blend-mode:multiply;}.cls-1,.cls-3,.cls-7,.cls-8,.cls-9,.cls-10,.cls-13,.cls-14,.cls-15,.cls-16,.cls-17,.cls-19,.cls-22,.cls-24,.cls-27,.cls-28,.cls-61,.cls-29,.cls-30,.cls-31,.cls-32,.cls-34,.cls-35,.cls-37,.cls-42,.cls-48,.cls-51,.cls-56,.cls-62{opacity:.5;}.cls-2{fill:url(#radial-gradient-11);}.cls-3{fill:url(#radial-gradient-48);}.cls-4{fill:url(#radial-gradient-36);}.cls-5{fill:url(#radial-gradient-38);}.cls-6{fill:url(#radial-gradient-18);}.cls-7{fill:url(#radial-gradient-58);}.cls-8{fill:url(#radial-gradient-54);}.cls-9{fill:url(#radial-gradient-63);}.cls-63{fill:url(#radial-gradient-7);}.cls-63,.cls-61{mix-blend-mode:screen;}.cls-10{fill:url(#radial-gradient-42);}.cls-11{fill:url(#radial-gradient-29);}.cls-12{fill:url(#radial-gradient-22);}.cls-64{fill:url(#radial-gradient-5);}.cls-13{fill:url(#radial-gradient-57);}.cls-65{fill:url(#radial-gradient-4);}.cls-66{isolation:isolate;}.cls-14{fill:url(#radial-gradient-41);}.cls-15{fill:url(#radial-gradient-45);}.cls-16{fill:url(#radial-gradient-56);}.cls-17{fill:url(#radial-gradient-43);}.cls-18{fill:url(#radial-gradient-20);}.cls-19{fill:url(#radial-gradient-53);}.cls-20{fill:url(#radial-gradient-37);}.cls-21{fill:url(#radial-gradient-40);}.cls-22{fill:url(#radial-gradient-49);}.cls-23{fill:url(#radial-gradient-19);}.cls-24{fill:url(#radial-gradient-64);}.cls-25{fill:url(#radial-gradient-34);}.cls-26{fill:url(#radial-gradient-35);}.cls-67{fill:url(#radial-gradient);}.cls-27{fill:url(#radial-gradient-50);}.cls-28{fill:url(#radial-gradient-66);}.cls-61{fill:url(#radial-gradient-67);}.cls-29{fill:url(#radial-gradient-59);}.cls-30{fill:url(#radial-gradient-52);}.cls-31{fill:url(#radial-gradient-46);}.cls-32{fill:url(#radial-gradient-61);}.cls-33{fill:url(#radial-gradient-28);}.cls-35{fill:url(#radial-gradient-47);}.cls-68{fill:url(#radial-gradient-2);}.cls-36{fill:url(#radial-gradient-33);}.cls-37{fill:url(#radial-gradient-62);}.cls-69{fill:none;}.cls-38{fill:url(#radial-gradient-39);}.cls-39{fill:url(#radial-gradient-15);}.cls-70{fill:url(#radial-gradient-3);}.cls-40{fill:url(#radial-gradient-30);}.cls-41{fill:url(#radial-gradient-23);}.cls-42{fill:url(#radial-gradient-60);}.cls-43{fill:url(#radial-gradient-31);}.cls-44{fill:url(#radial-gradient-14);}.cls-45{fill:url(#radial-gradient-27);}.cls-46{fill:url(#radial-gradient-8);}.cls-46,.cls-53{opacity:.25;}.cls-47{fill:url(#radial-gradient-17);}.cls-48{fill:url(#radial-gradient-55);}.cls-49{fill:url(#radial-gradient-13);}.cls-50{fill:url(#radial-gradient-16);}.cls-51{fill:url(#radial-gradient-51);}.cls-52{fill:url(#radial-gradient-10);}.cls-53{fill:url(#radial-gradient-9);}.cls-54{fill:url(#radial-gradient-26);}.cls-55{fill:url(#radial-gradient-25);}.cls-56{fill:url(#radial-gradient-65);}.cls-57{fill:url(#radial-gradient-32);}.cls-58{fill:url(#radial-gradient-21);}.cls-59{fill:url(#radial-gradient-12);}.cls-60{fill:url(#radial-gradient-24);}.cls-62{fill:url(#radial-gradient-6);}</style><radialGradient id="radial-gradient" cx="-1289.58" cy="-1453.77" fx="-1289.58" fy="-1453.77" r="45.24" gradientTransform="translate(-1911.6 251.43) rotate(135.31) scale(1.22 .97)" gradientUnits="userSpaceOnUse"><stop offset=".08" stop-color="#ffe245"/><stop offset=".53" stop-color="#de007b" stop-opacity=".47"/><stop offset="1" stop-color="#e38427" stop-opacity="0"/></radialGradient><radialGradient id="radial-gradient-2" cx="-1286.41" cy="-2727.58" fx="-1286.41" fy="-2727.58" r="42.25" gradientTransform="translate(-1746.4 417.47) rotate(135.31) scale(1.22 .43)" xlink:href="#radial-gradient"/><radialGradient id="radial-gradient-3" cx="-1175.46" cy="-1425.29" fx="-1175.46" fy="-1425.29" r="46.69" gradientTransform="translate(-1641.99 -32.94) rotate(135.31)" xlink:href="#radial-gradient"/><radialGradient id="radial-gradient-4" cx="-1176.05" cy="-1421.66" fx="-1176.05" fy="-1421.66" r="48.27" gradientTransform="translate(-1641.99 -32.94) rotate(135.31)" xlink:href="#radial-gradient"/><radialGradient id="radial-gradient-5" cx="-1173.31" cy="-1426.11" fx="-1173.31" fy="-1426.11" r="10.06" gradientTransform="translate(-1641.83 -32.56) rotate(135.23)" gradientUnits="userSpaceOnUse"><stop offset=".08" stop-color="#ffe245"/><stop offset="1" stop-color="#e38427"/></radialGradient><radialGradient id="radial-gradient-6" cx="-1173.51" cy="-1426.58" fx="-1173.51" fy="-1426.58" r="11.25" xlink:href="#radial-gradient-5"/><radialGradient id="radial-gradient-7" cx="-1173.46" cy="-1426.75" fx="-1173.46" fy="-1426.75" r="8.36" xlink:href="#radial-gradient-5"/><radialGradient id="radial-gradient-8" cx="-1173.71" cy="-1425.62" fx="-1173.71" fy="-1425.62" r="9.44" xlink:href="#radial-gradient-5"/><radialGradient id="radial-gradient-9" cx="-1168.21" cy="-1411.18" fx="-1168.21" fy="-1411.18" r="8.74" xlink:href="#radial-gradient-5"/><radialGradient id="radial-gradient-10" cx="-1548.05" cy="-1574.73" fx="-1548.05" fy="-1574.73" r="3.07" gradientTransform="translate(-1869.64 -627.05) rotate(155.16)" xlink:href="#radial-gradient-5"/><radialGradient id="radial-gradient-11" cx="-1547.94" cy="-1574.69" fx="-1547.94" fy="-1574.69" r="2.97" gradientTransform="translate(-1869.64 -627.05) rotate(155.16)" xlink:href="#radial-gradient-5"/><radialGradient id="radial-gradient-12" cx="-1605.69" cy="-1573.72" fx="-1605.69" fy="-1573.72" r="1.1" gradientTransform="translate(-2447.34 -359.17) rotate(155.16) scale(1.36 1)" xlink:href="#radial-gradient-5"/><radialGradient id="radial-gradient-13" cx="-1605.69" cy="-1573.72" fx="-1605.69" fy="-1573.72" r="1.1" gradientTransform="translate(-2447.34 -359.17) rotate(155.16) scale(1.36 1)" xlink:href="#radial-gradient-5"/><radialGradient id="radial-gradient-14" cx="-1605.65" cy="-1573.71" fx="-1605.65" fy="-1573.71" r="1.07" gradientTransform="translate(-2447.34 -359.17) rotate(155.16) scale(1.36 1)" xlink:href="#radial-gradient-5"/><radialGradient id="radial-gradient-15" cx="-2241.9" cy="522.1" fx="-2241.9" fy="522.1" r="1.97" gradientTransform="translate(1889.89 -2428.86) rotate(-46.89) scale(1.36 1)" xlink:href="#radial-gradient-5"/><radialGradient id="radial-gradient-16" cx="-2241.83" cy="522.12" fx="-2241.83" fy="522.12" r="1.9" gradientTransform="translate(1889.89 -2428.86) rotate(-46.89) scale(1.36 1)" xlink:href="#radial-gradient-5"/><radialGradient id="radial-gradient-17" cx="-1175.74" cy="-1262.19" fx="-1175.74" fy="-1262.19" r="2.14" gradientTransform="translate(-1726.7 830.79) rotate(122.17) scale(1.36 1)" xlink:href="#radial-gradient-5"/><radialGradient id="radial-gradient-18" cx="-1175.66" cy="-1262.16" fx="-1175.66" fy="-1262.16" r="2.07" gradientTransform="translate(-1726.7 830.79) rotate(122.17) scale(1.36 1)" xlink:href="#radial-gradient-5"/><radialGradient id="radial-gradient-19" cx="-1776.45" cy="-1600.84" fx="-1776.45" fy="-1600.84" r="1.35" gradientTransform="translate(-1902.7 -992.82) rotate(166.61)" xlink:href="#radial-gradient-5"/><radialGradient id="radial-gradient-20" cx="-1776.41" cy="-1600.82" fx="-1776.41" fy="-1600.82" r="1.3" gradientTransform="translate(-1902.7 -992.82) rotate(166.61)" xlink:href="#radial-gradient-5"/><radialGradient id="radial-gradient-21" cx="-1256.74" cy="-1470.57" fx="-1256.74" fy="-1470.57" r="1.99" gradientTransform="translate(-1712.72 -172.3) rotate(140.08)" xlink:href="#radial-gradient-5"/><radialGradient id="radial-gradient-22" cx="-1256.74" cy="-1470.57" fx="-1256.74" fy="-1470.57" r="1.99" gradientTransform="translate(-1712.72 -172.3) rotate(140.08)" xlink:href="#radial-gradient-5"/><radialGradient id="radial-gradient-23" cx="-1256.67" cy="-1470.55" fx="-1256.67" fy="-1470.55" r="1.92" gradientTransform="translate(-1712.72 -172.3) rotate(140.08)" xlink:href="#radial-gradient-5"/><radialGradient id="radial-gradient-24" cx="-2323.71" cy="559.29" fx="-2323.71" fy="559.29" r="1.99" gradientTransform="translate(1494.28 -1846.35) rotate(-43.34)" xlink:href="#radial-gradient-5"/><radialGradient id="radial-gradient-25" cx="-2323.65" cy="559.32" fx="-2323.65" fy="559.32" r="1.92" gradientTransform="translate(1494.28 -1846.35) rotate(-43.34)" xlink:href="#radial-gradient-5"/><radialGradient id="radial-gradient-26" cx="-1936.82" cy="689.1" fx="-1936.82" fy="689.1" r="1.52" gradientTransform="translate(1700.1 -1239.59) rotate(-23)" xlink:href="#radial-gradient-5"/><radialGradient id="radial-gradient-27" cx="-1936.82" cy="689.1" fx="-1936.82" fy="689.1" r="1.52" gradientTransform="translate(1700.1 -1239.59) rotate(-23)" xlink:href="#radial-gradient-5"/><radialGradient id="radial-gradient-28" cx="-1936.77" cy="689.12" fx="-1936.77" fy="689.12" r="1.47" gradientTransform="translate(1700.1 -1239.59) rotate(-23)" xlink:href="#radial-gradient-5"/><radialGradient id="radial-gradient-29" cx="-1935.76" cy="692.04" fx="-1935.76" fy="692.04" r="1.2" gradientTransform="translate(1700.1 -1239.59) rotate(-23)" xlink:href="#radial-gradient-5"/><radialGradient id="radial-gradient-30" cx="-1935.72" cy="692.05" fx="-1935.72" fy="692.05" r="1.16" gradientTransform="translate(1700.1 -1239.59) rotate(-23)" xlink:href="#radial-gradient-5"/><radialGradient id="radial-gradient-31" cx="-2884.81" cy="-465.64" fx="-2884.81" fy="-465.64" r="2.81" gradientTransform="translate(-112.33 -2749.42) rotate(-105.15)" xlink:href="#radial-gradient-5"/><radialGradient id="radial-gradient-32" cx="-2884.81" cy="-465.64" fx="-2884.81" fy="-465.64" r="2.81" gradientTransform="translate(-112.33 -2749.42) rotate(-105.15)" xlink:href="#radial-gradient-5"/><radialGradient id="radial-gradient-33" cx="-2884.72" cy="-465.6" fx="-2884.72" fy="-465.6" r="2.72" gradientTransform="translate(-112.33 -2749.42) rotate(-105.15)" xlink:href="#radial-gradient-5"/><radialGradient id="radial-gradient-34" cx="-2780.43" cy="-907.6" fx="-2780.43" fy="-907.6" r="1.2" gradientTransform="translate(-795.73 -2595.96) rotate(-127.88)" xlink:href="#radial-gradient-5"/><radialGradient id="radial-gradient-35" cx="-2780.39" cy="-907.58" fx="-2780.39" fy="-907.58" r="1.16" gradientTransform="translate(-795.73 -2595.96) rotate(-127.88)" xlink:href="#radial-gradient-5"/><radialGradient id="radial-gradient-36" cx="-546.18" cy="-438.77" fx="-546.18" fy="-438.77" r="1.2" gradientTransform="translate(-116.1 776.03) rotate(77.28)" xlink:href="#radial-gradient-5"/><radialGradient id="radial-gradient-37" cx="-546.18" cy="-438.77" fx="-546.18" fy="-438.77" r="1.2" gradientTransform="translate(-116.1 776.03) rotate(77.28)" xlink:href="#radial-gradient-5"/><radialGradient id="radial-gradient-38" cx="-546.14" cy="-438.75" fx="-546.14" fy="-438.75" r="1.16" gradientTransform="translate(-116.1 776.03) rotate(77.28)" xlink:href="#radial-gradient-5"/><radialGradient id="radial-gradient-39" cx="-1935.81" cy="690.28" fx="-1935.81" fy="690.28" r="2.66" gradientTransform="translate(1703.37 -1233.68) rotate(-22.81)" xlink:href="#radial-gradient-5"/><radialGradient id="radial-gradient-40" cx="-1935.72" cy="690.32" fx="-1935.72" fy="690.32" r="2.57" gradientTransform="translate(1703.37 -1233.68) rotate(-22.81)" xlink:href="#radial-gradient-5"/><radialGradient id="radial-gradient-41" cx="-1167.64" cy="-1425.51" fx="-1167.64" fy="-1425.51" r=".47" xlink:href="#radial-gradient-5"/><radialGradient id="radial-gradient-42" cx="-1167.74" cy="-1424.28" fx="-1167.74" fy="-1424.28" r=".3" xlink:href="#radial-gradient-5"/><radialGradient id="radial-gradient-43" cx="-1175.53" cy="-1419.81" fx="-1175.53" fy="-1419.81" r=".53" xlink:href="#radial-gradient-5"/><radialGradient id="radial-gradient-44" cx="-1175.14" cy="-1421.57" fx="-1175.14" fy="-1421.57" r=".4" xlink:href="#radial-gradient-5"/><radialGradient id="radial-gradient-45" cx="-1172.7" cy="-1418.86" fx="-1172.7" fy="-1418.86" r="1.53" xlink:href="#radial-gradient-5"/><radialGradient id="radial-gradient-46" cx="-1171.67" cy="-1419.52" fx="-1171.67" fy="-1419.52" r=".57" xlink:href="#radial-gradient-5"/><radialGradient id="radial-gradient-47" cx="-1171.58" cy="-1418.48" fx="-1171.58" fy="-1418.48" r=".43" xlink:href="#radial-gradient-5"/><radialGradient id="radial-gradient-48" cx="-1176.76" cy="-1419.76" fx="-1176.76" fy="-1419.76" r=".43" xlink:href="#radial-gradient-5"/><radialGradient id="radial-gradient-49" cx="-1175.01" cy="-1422.94" fx="-1175.01" fy="-1422.94" r=".33" xlink:href="#radial-gradient-5"/><radialGradient id="radial-gradient-50" cx="-1173.11" cy="-1426.83" fx="-1173.11" fy="-1426.83" r=".93" xlink:href="#radial-gradient-5"/><radialGradient id="radial-gradient-51" cx="-1174.03" cy="-1424.74" fx="-1174.03" fy="-1424.74" r=".4" xlink:href="#radial-gradient-5"/><radialGradient id="radial-gradient-52" cx="-1173.78" cy="-1427.38" fx="-1173.78" fy="-1427.38" r=".47" xlink:href="#radial-gradient-5"/><radialGradient id="radial-gradient-53" cx="-1175.3" cy="-1426.66" fx="-1175.3" fy="-1426.66" r=".33" xlink:href="#radial-gradient-5"/><radialGradient id="radial-gradient-54" cx="-1170.87" cy="-1426.74" fx="-1170.87" fy="-1426.74" r="1.37" xlink:href="#radial-gradient-5"/><radialGradient id="radial-gradient-55" cx="-1172.04" cy="-1424.64" fx="-1172.04" fy="-1424.64" r=".53" xlink:href="#radial-gradient-5"/><radialGradient id="radial-gradient-56" cx="-1168.01" cy="-1426.82" fx="-1168.01" fy="-1426.82" r=".43" xlink:href="#radial-gradient-5"/><radialGradient id="radial-gradient-57" cx="-1168.55" cy="-1424.24" fx="-1168.55" fy="-1424.24" r=".6" xlink:href="#radial-gradient-5"/><radialGradient id="radial-gradient-58" cx="-1168.59" cy="-1423.03" fx="-1168.59" fy="-1423.03" r=".53" xlink:href="#radial-gradient-5"/><radialGradient id="radial-gradient-59" cx="-1171.03" cy="-1420.79" fx="-1171.03" fy="-1420.79" r=".47" xlink:href="#radial-gradient-5"/><radialGradient id="radial-gradient-60" cx="-1168.41" cy="-1420.86" fx="-1168.41" fy="-1420.86" r=".5" xlink:href="#radial-gradient-5"/><radialGradient id="radial-gradient-61" cx="-1168.42" cy="-1420" fx="-1168.42" fy="-1420" r=".43" xlink:href="#radial-gradient-5"/><radialGradient id="radial-gradient-62" cx="-1168.47" cy="-1418.19" fx="-1168.47" fy="-1418.19" r=".87" xlink:href="#radial-gradient-5"/><radialGradient id="radial-gradient-63" cx="-1167.62" cy="-1417.84" fx="-1167.62" fy="-1417.84" r=".27" xlink:href="#radial-gradient-5"/><radialGradient id="radial-gradient-64" cx="-1166.61" cy="-1419" fx="-1166.61" fy="-1419" r=".23" xlink:href="#radial-gradient-5"/><radialGradient id="radial-gradient-65" cx="-1165.67" cy="-1422.74" fx="-1165.67" fy="-1422.74" r=".33" xlink:href="#radial-gradient-5"/><radialGradient id="radial-gradient-66" cx="-1166.38" cy="-1425.36" fx="-1166.38" fy="-1425.36" r=".23" xlink:href="#radial-gradient-5"/><radialGradient id="radial-gradient-67" cx="-1173.13" cy="-1425.73" fx="-1173.13" fy="-1425.73" r="5.86" xlink:href="#radial-gradient-5"/></defs><g class="cls-66"><g id="Layer_2"><g id="BACKGROUND2"><g><g><path class="cls-67" d="M162.46,177.49c11.14-4.02,19.02-13.38,21.34-24.1,1.04-4.56,4.23-8.71,8.61-8.91h0c4.36-.24,7.78,6.12,5.28,13.03-5.45,15.01-18.1,25.69-32.71,28.84-6.65,1.46-12.34-.88-12.19-3h0c.11-2.15,4.83-4.04,9.67-5.85Z"/><path class="cls-68" d="M159.83,180.29c15.07-2.32,26.31-14.5,27.74-29,.22-2.16,1.74-4.02,3.68-4.05h0c1.94-.04,3.49,2.25,3.05,4.95-2.89,17.46-17.18,30.34-34.01,31.81-2.59,.23-4.75-.66-4.72-1.61h0c.03-.95,2-1.75,4.26-2.1Z"/><path class="cls-70" d="M195.59,153.62c.13-.82,.08-1.63-.11-2.33-.88-1.35-2.11-2.23-3.52-2.56-1.66,.38-2.9,2.04-3.1,4-1.42,14.49-12.78,26.66-27.93,28.74-1.53,.21-2.9,.62-3.68,1.15,.92,1.16,3.21,2.19,6.16,2.35,16.02-2.05,29.43-14.57,32.19-31.35Z"/><path class="cls-65" d="M159.08,182.57c16.87-1.39,31.2-14.32,34-31.84,.34-2.15-.59-4.09-1.98-4.7-1.6,.17-3.03,.95-4.22,1.98-.28,.56-.47,1.18-.53,1.86-1.35,14.51-12.6,26.74-27.7,28.99-.18,.03-.36,.06-.54,.09-1.6,.79-2.92,1.61-3.56,2.49,.55,.74,2.41,1.32,4.53,1.14Z"/><g><path class="cls-64" d="M186.93,156.45c-2.49-2.51-2.47-6.56,.04-9.05s6.56-2.47,9.05,.04c2.49,2.51,2.47,6.56-.04,9.05s-6.56,2.47-9.05-.04Z"/><path class="cls-62" d="M186.4,156.98c-2.78-2.81-2.77-7.34,.04-10.12,2.81-2.78,7.34-2.77,10.12,.04s2.77,7.34-.04,10.12c-2.81,2.78-7.34,2.77-10.12-.04Z"/><path class="cls-63" d="M195.26,147.15c2.49,2.51,2.47,6.56-.04,9.05-1.74,1.72-4.21,2.24-6.39,1.57,2.35,1.07,5.21,.64,7.15-1.28,2.51-2.49,2.53-6.54,.04-9.05-.77-.77-1.68-1.31-2.66-1.61,.69,.31,1.33,.75,1.9,1.32Z"/><path class="cls-46" d="M186.7,150.78c2.51-2.49,6.56-2.47,9.05,.04,.93,.94,1.51,2.1,1.74,3.31,.82-2.26,.33-4.88-1.47-6.7-2.49-2.51-6.54-2.53-9.05-.04-1.57,1.56-2.16,3.72-1.78,5.74,.31-.86,.81-1.67,1.51-2.35Z"/><path class="cls-53" d="M191.49,158.34c-.52-.28-1-.64-1.44-1.08-2.39-2.4-2.37-6.29,.03-8.67,1.46-1.45,3.46-2,5.34-1.69-2.5-1.96-6.13-1.8-8.45,.5-2.51,2.49-2.53,6.54-.04,9.05,1.25,1.26,2.9,1.89,4.55,1.89Z"/><g><path class="cls-52" d="M195.44,150.35c-.32-.69-.25-1.4,.16-1.59,.41-.19,.99,.22,1.31,.91s.25,1.4-.16,1.59c-.41,.19-.99-.22-1.31-.91Z"/><path class="cls-2" d="M196.59,151.29c.25-.29,.26-.88,0-1.45-.28-.6-.77-.99-1.15-.95-.25,.29-.26,.88,0,1.45,.28,.6,.77,.99,1.15,.95Z"/></g><g><path class="cls-59" d="M193.2,151.98c-.11-.25-.05-.52,.15-.61,.2-.09,.45,.03,.57,.28,.11,.25,.05,.52-.15,.61-.2,.09-.45-.03-.57-.28Z"/><path class="cls-49" d="M193.2,151.98c-.11-.25-.05-.52,.15-.61,.2-.09,.45,.03,.57,.28,.11,.25,.05,.52-.15,.61-.2,.09-.45-.03-.57-.28Z"/><path class="cls-44" d="M193.69,152.28c.13-.12,.16-.35,.07-.55-.1-.22-.31-.34-.49-.31-.13,.12-.16,.35-.07,.55,.1,.22,.31,.34,.49,.31Z"/></g><g><path class="cls-39" d="M190.22,152.34c.35,.33,.43,.83,.16,1.12-.27,.28-.77,.25-1.12-.09s-.43-.83-.16-1.12c.27-.28,.77-.25,1.12,.09Z"/><path class="cls-50" d="M189.21,152.16c-.13,.29-.04,.68,.26,.96,.31,.29,.74,.36,1.02,.18,.13-.29,.04-.68-.26-.96-.31-.29-.74-.36-1.02-.18Z"/></g><g><path class="cls-47" d="M191.02,150.15c-.45-.28-.63-.8-.4-1.16s.77-.42,1.22-.14c.45,.28,.63,.8,.4,1.16s-.77,.42-1.22,.14Z"/><path class="cls-6" d="M192.14,150.12c.08-.34-.1-.74-.48-.97-.39-.25-.86-.23-1.12,.02-.08,.34,.1,.74,.48,.97,.39,.25,.86,.23,1.12-.02Z"/></g><g><path class="cls-23" d="M195.97,152.3c-.08-.32,.02-.62,.21-.67,.19-.05,.41,.18,.49,.5s-.02,.62-.21,.67c-.19,.05-.41-.18-.49-.5Z"/><path class="cls-18" d="M196.38,152.81c.13-.1,.19-.35,.12-.63-.07-.28-.24-.49-.41-.51-.13,.1-.19,.35-.12,.63,.07,.28,.24,.49,.41,.51Z"/></g><g><path class="cls-58" d="M193.82,148.43c-.31-.38-.39-.83-.17-1.02,.22-.19,.66-.03,.97,.34,.32,.38,.39,.83,.17,1.02-.22,.19-.66,.03-.97-.34Z"/><path class="cls-12" d="M193.82,148.43c-.31-.38-.39-.83-.17-1.02,.22-.19,.66-.03,.97,.34,.32,.38,.39,.83,.17,1.02-.22,.19-.66,.03-.97-.34Z"/><path class="cls-41" d="M194.7,148.83c.11-.22,.01-.59-.25-.91-.28-.33-.64-.49-.88-.4-.11,.22-.01,.59,.25,.91,.28,.33,.64,.49,.88,.4Z"/></g><g><path class="cls-60" d="M189.19,156.06c.34,.36,.44,.81,.23,1.01-.21,.2-.66,.07-.99-.29-.34-.36-.44-.81-.23-1.01,.21-.2,.66-.07,.99,.29Z"/><path class="cls-55" d="M188.29,155.72c-.09,.23,.02,.59,.3,.89,.3,.31,.67,.45,.9,.34,.09-.23-.02-.59-.3-.89-.3-.31-.67-.45-.9-.34Z"/></g><g class="cls-34"><path class="cls-54" d="M186.92,152.22c.15,.35,.1,.7-.1,.78-.2,.09-.49-.12-.64-.47-.15-.35-.1-.7,.1-.78,.2-.09,.49,.12,.64,.47Z"/><path class="cls-45" d="M186.92,152.22c.15,.35,.1,.7-.1,.78-.2,.09-.49-.12-.64-.47-.15-.35-.1-.7,.1-.78,.2-.09,.49,.12,.64,.47Z"/><path class="cls-33" d="M186.36,151.73c-.13,.14-.14,.43-.02,.72,.13,.3,.36,.5,.56,.49,.13-.14,.14-.43,.02-.72-.13-.3-.36-.5-.56-.49Z"/></g><g><path class="cls-11" d="M188.92,154.35c.12,.27,.08,.55-.08,.62-.16,.07-.39-.1-.5-.37-.12-.27-.08-.55,.08-.62,.16-.07,.39,.1,.5,.37Z"/><path class="cls-40" d="M188.48,153.97c-.1,.11-.11,.34-.01,.57,.1,.24,.29,.4,.44,.39,.1-.11,.11-.34,.01-.57-.1-.24-.29-.4-.44-.39Z"/></g><g><path class="cls-43" d="M193.42,155.89c.67-.18,1.3,0,1.41,.39,.11,.4-.35,.86-1.02,1.04-.67,.18-1.3,0-1.41-.39-.11-.4,.35-.86,1.02-1.04Z"/><path class="cls-57" d="M193.42,155.89c.67-.18,1.3,0,1.41,.39,.11,.4-.35,.86-1.02,1.04-.67,.18-1.3,0-1.41-.39-.11-.4,.35-.86,1.02-1.04Z"/><path class="cls-36" d="M192.39,156.79c.22,.27,.75,.37,1.31,.22,.59-.16,1.01-.54,1.03-.89-.22-.27-.75-.37-1.31-.22-.59,.16-1.01,.54-1.03,.89Z"/></g><g><path class="cls-25" d="M195.31,155.31c.23-.18,.51-.22,.62-.08s0,.4-.23,.58-.51,.22-.62,.08c-.11-.14,0-.4,.23-.58Z"/><path class="cls-26" d="M195.05,155.83c.13,.07,.36,.02,.55-.13,.21-.16,.31-.38,.26-.52-.13-.07-.36-.02-.55,.13-.21,.16-.31,.38-.26,.52Z"/></g><g><path class="cls-4" d="M190.93,146.95c-.29,.07-.56-.02-.6-.19-.04-.17,.17-.36,.45-.43,.29-.07,.56,.02,.6,.19s-.17,.36-.45,.43Z"/><path class="cls-20" d="M190.93,146.95c-.29,.07-.56-.02-.6-.19-.04-.17,.17-.36,.45-.43,.29-.07,.56,.02,.6,.19s-.17,.36-.45,.43Z"/><path class="cls-5" d="M191.39,146.59c-.09-.12-.31-.17-.56-.12-.25,.06-.44,.21-.46,.36,.09,.12,.31,.17,.56,.12,.25-.06,.44-.21,.46-.36Z"/></g><g><path class="cls-38" d="M187.52,154.36c.25,.61,.17,1.22-.19,1.37s-.86-.22-1.11-.82c-.25-.61-.17-1.22,.19-1.37,.36-.15,.86,.22,1.11,.82Z"/><path class="cls-21" d="M186.55,153.51c-.22,.24-.25,.75-.04,1.26,.22,.53,.63,.88,.97,.86,.22-.24,.25-.75,.04-1.26-.22-.53-.63-.88-.97-.86Z"/></g><path class="cls-14" d="M190.77,157.04c-.08-.08-.08-.21,0-.29s.21-.08,.29,0,.08,.21,0,.29-.21,.08-.29,0Z"/><path class="cls-10" d="M190.08,156.14c-.05-.05-.05-.14,0-.19,.05-.05,.14-.05,.19,0,.05,.05,.05,.14,0,.19-.05,.05-.14,.05-.19,0Z"/><path class="cls-17" d="M192.32,147.42c-.09-.09-.09-.24,0-.33s.24-.09,.33,0,.09,.24,0,.33-.24,.09-.33,0Z"/><path class="cls-1" d="M193.37,148.98c-.07-.07-.07-.18,0-.25,.07-.07,.18-.07,.25,0,.07,.07,.07,.18,0,.25-.07,.07-.18,.07-.25,0Z"/><path class="cls-15" d="M189.07,148.5c-.26-.26-.26-.69,0-.95,.26-.26,.69-.26,.95,0,.26,.26,.26,.69,0,.95-.26,.26-.69,.26-.95,0Z"/><path class="cls-31" d="M189.36,149.92c-.1-.1-.1-.26,0-.35s.26-.1,.35,0,.1,.26,0,.35-.26,.1-.35,0Z"/><path class="cls-35" d="M188.64,149.28c-.07-.07-.07-.2,0-.27s.2-.07,.27,0c.07,.07,.07,.2,0,.27-.07,.07-.2,.07-.27,0Z"/><path class="cls-3" d="M193.23,146.54c-.07-.07-.07-.2,0-.27s.2-.07,.27,0,.07,.2,0,.27c-.07,.07-.2,.07-.27,0Z"/><path class="cls-22" d="M194.28,150.06c-.06-.06-.06-.15,0-.21,.06-.06,.15-.06,.21,0,.06,.06,.06,.15,0,.21-.06,.06-.15,.06-.21,0Z"/><path class="cls-27" d="M195.32,154.01c-.16-.16-.16-.42,0-.58,.16-.16,.42-.16,.58,0,.16,.16,.16,.42,0,.58-.16,.16-.42,.16-.58,0Z"/><path class="cls-51" d="M194.81,152c-.07-.07-.07-.18,0-.25,.07-.07,.18-.07,.25,0,.07,.07,.07,.18,0,.25-.07,.07-.18,.07-.25,0Z"/><path class="cls-30" d="M196.46,154.04c-.08-.08-.08-.21,0-.29,.08-.08,.21-.08,.29,0,.08,.08,.08,.21,0,.29s-.21,.08-.29,0Z"/><path class="cls-19" d="M197.11,152.49c-.06-.06-.06-.15,0-.21,.06-.06,.15-.06,.21,0,.06,.06,.06,.15,0,.21-.06,.06-.15,.06-.21,0Z"/><path class="cls-8" d="M193.42,155.42c-.23-.24-.23-.62,0-.85,.24-.23,.62-.23,.85,0,.23,.24,.23,.62,0,.85-.24,.23-.62,.23-.85,0Z"/><path class="cls-48" d="M193.25,153.3c-.09-.09-.09-.24,0-.33,.09-.09,.24-.09,.33,0s.09,.24,0,.33-.24,.09-.33,0Z"/><path class="cls-16" d="M191.98,157.72c-.07-.07-.07-.2,0-.27,.07-.07,.2-.07,.27,0,.07,.07,.07,.2,0,.27s-.2,.07-.27,0Z"/><path class="cls-13" d="M190.45,155.46c-.1-.1-.1-.27,0-.37,.1-.1,.27-.1,.37,0s.1,.27,0,.37-.27,.1-.37,0Z"/><path class="cls-7" d="M189.67,154.59c-.09-.09-.09-.24,0-.33,.09-.09,.24-.09,.33,0,.09,.09,.09,.24,0,.33s-.24,.09-.33,0Z"/><path class="cls-29" d="M189.87,151.3c-.08-.08-.08-.21,0-.29s.21-.08,.29,0,.08,.21,0,.29c-.08,.08-.21,.08-.29,0Z"/><path class="cls-42" d="M188.03,153.19c-.09-.09-.08-.23,0-.31s.23-.08,.31,0c.09,.09,.08,.23,0,.31-.09,.09-.23,.08-.31,0Z"/><path class="cls-32" d="M187.47,152.59c-.07-.07-.07-.2,0-.27s.2-.07,.27,0c.07,.07,.07,.2,0,.27-.07,.07-.2,.07-.27,0Z"/><path class="cls-37" d="M185.98,151.16c-.15-.15-.15-.39,0-.54,.15-.15,.39-.15,.54,0,.15,.15,.15,.39,0,.54-.15,.15-.39,.15-.54,0Z"/><path class="cls-9" d="M185.48,151.66s-.05-.12,0-.17c.05-.05,.12-.05,.17,0,.05,.05,.05,.12,0,.17-.05,.05-.12,.05-.17,0Z"/><path class="cls-24" d="M185.6,153.2s-.04-.1,0-.14,.11-.04,.14,0c.04,.04,.04,.11,0,.14-.04,.04-.11,.04-.14,0Z"/><path class="cls-56" d="M187.51,156.49c-.06-.06-.06-.15,0-.21,.06-.06,.15-.06,.21,0,.06,.06,.06,.15,0,.21-.06,.06-.15,.06-.21,0Z"/><path class="cls-28" d="M189.91,157.87s-.04-.11,0-.14c.04-.04,.11-.04,.14,0,.04,.04,.04,.11,0,.14-.04,.04-.11,.04-.14,0Z"/><path class="cls-61" d="M190.12,155.1c-1.45-1.46-1.44-3.82,.02-5.27,1.46-1.45,3.82-1.44,5.27,.02s1.44,3.82-.02,5.27-3.82,1.44-5.27-.02Z"/></g></g><circle class="cls-69" cx="98.95" cy="98.95" r="98.95"/></g></g></g></g></svg>