<?xml version="1.0" encoding="UTF-8"?><svg id="Layer_2" xmlns="http://www.w3.org/2000/svg" width="210.79" height="318.73" xmlns:xlink="http://www.w3.org/1999/xlink" viewBox="0 0 210.79 318.73"><defs><style>.cls-1{fill:url(#linear-gradient-2);}.cls-2{fill:url(#linear-gradient-3);}.cls-3{fill:url(#linear-gradient);}.cls-4{fill:url(#linear-gradient-4);}</style><linearGradient id="linear-gradient" x1="-15.76" y1="314.15" x2="194.24" y2="-13.35" gradientUnits="userSpaceOnUse"><stop offset="0" stop-color="#951b81"/><stop offset="1" stop-color="#29235c"/></linearGradient><linearGradient id="linear-gradient-2" x1="37.25" y1="348.14" x2="247.25" y2="20.64" xlink:href="#linear-gradient"/><linearGradient id="linear-gradient-3" x1="-20.28" y1="311.25" x2="189.72" y2="-16.25" xlink:href="#linear-gradient"/><linearGradient id="linear-gradient-4" x1="43.81" y1="352.35" x2="253.81" y2="24.84" xlink:href="#linear-gradient"/></defs><g id="Icons"><g><path class="cls-3" d="M179.56,94.05c-8.64-7.7-18.67-13.85-29.67-18.31,1.46-8.07,5.71-18.16,11.98-28.19,3.77-6.03,7.59-10.94,11.03-14.66,2.03,.85,4.25,1.32,6.58,1.32,9.43,0,17.11-7.68,17.11-17.1S188.92,0,179.49,0s-17.1,7.67-17.1,17.1c0,.74,.05,1.46,.14,2.18-7.15,7.22-12.82,15.82-15,19.29-3.58,5.72-10.91,18.56-13.85,32-9.05-2.15-18.54-3.27-28.29-3.27s-19.24,1.11-28.28,3.27c-2.95-13.44-10.27-26.28-13.85-32-2.18-3.48-7.85-12.07-15-19.29,.09-.72,.14-1.45,.14-2.18C48.4,7.67,40.73,0,31.3,0S14.19,7.67,14.19,17.1s7.67,17.1,17.1,17.1c2.33,0,4.55-.47,6.57-1.32,3.44,3.72,7.26,8.64,11.03,14.66,6.27,10.03,10.52,20.13,11.98,28.19-11,4.45-21.03,10.61-29.67,18.31C11.09,112,0,137.24,0,165.11s11.61,66.66,29.57,96.97c21.65,36.53,48.58,56.65,75.82,56.65s54.17-20.12,75.82-56.65c17.96-30.31,29.58-68.37,29.58-96.97s-11.09-53.11-31.22-71.05Zm-12.91,159.39c-18.21,30.73-40.54,48.35-61.26,48.35s-43.04-17.62-61.25-48.35c-16.53-27.89-27.21-62.56-27.21-88.33,0-35.71,21.62-63.96,54.59-75.38,.72-.14,1.41-.37,2.05-.68,9.75-3.12,20.43-4.8,31.82-4.8s22.08,1.68,31.82,4.8c.64,.31,1.33,.55,2.05,.68,32.98,11.42,54.59,39.66,54.59,75.38,0,25.77-10.68,60.45-27.21,88.33Z"/><path class="cls-1" d="M178.42,153.02c-.62-3.51-3.36-6.26-6.88-6.88-.21-.03-5.17-.89-11.89-.89-10.52,0-25.14,2.08-35.02,11.96-16.23,16.23-11.28,45.67-11.06,46.91,.62,3.51,3.36,6.25,6.88,6.87,.21,.04,5.17,.89,11.89,.89h0c10.52,0,25.14-2.08,35.02-11.96,16.23-16.23,11.28-45.66,11.06-46.91Zm-23.04,34.94c-6.09,6.09-17.05,7-23.05,7h0c-.95,0-1.86-.02-2.7-.06-.31-7.93,.72-19.48,6.96-25.73,6.09-6.09,17.06-7,23.05-7,.95,0,1.86,.02,2.7,.06,.31,7.93-.73,19.48-6.97,25.72Z"/><path class="cls-2" d="M86.15,157.21c-9.88-9.88-24.5-11.96-35.02-11.96-6.73,0-11.68,.86-11.89,.89-3.51,.62-6.26,3.36-6.87,6.88-.22,1.25-5.16,30.68,11.06,46.91,9.88,9.88,24.5,11.95,35.02,11.95,6.73,0,11.68-.85,11.89-.89,3.51-.62,6.26-3.36,6.87-6.87,.22-1.25,5.17-30.68-11.06-46.91Zm-5,37.7c-.84,.03-1.75,.06-2.7,.06-5.99,0-16.96-.91-23.05-7-6.24-6.25-7.28-17.8-6.97-25.72,.84-.04,1.75-.06,2.7-.06,5.99,0,16.96,.91,23.05,7s7.28,17.81,6.97,25.73Z"/><path class="cls-4" d="M133.54,264.77h-56.29c-4.68,0-8.46-3.79-8.46-8.47s3.79-8.46,8.46-8.46h56.29c4.67,0,8.46,3.79,8.46,8.46s-3.79,8.47-8.46,8.47Z"/></g></g></svg>