<?xml version="1.0" encoding="UTF-8"?><svg id="Layer_1" xmlns="http://www.w3.org/2000/svg" width="500" height="500" viewBox="0 0 500 500"><path d="M366.12,147.75c-13.52-12.06-29.23-21.69-46.45-28.66,2.28-12.63,8.94-28.44,18.76-44.14,5.9-9.43,11.88-17.13,17.27-22.96,3.17,1.33,6.65,2.06,10.29,2.06,14.76,0,26.78-12.02,26.78-26.78S380.76,.5,366,.5s-26.78,12.01-26.78,26.78c0,1.15,.08,2.29,.22,3.42-11.19,11.31-20.07,24.76-23.48,30.2-5.61,8.96-17.08,29.06-21.69,50.1-14.17-3.37-29.03-5.11-44.29-5.11s-30.12,1.74-44.28,5.11c-4.61-21.04-16.08-41.14-21.68-50.1-3.41-5.44-12.29-18.9-23.48-30.2,.15-1.12,.23-2.26,.23-3.42,0-14.77-12.01-26.78-26.78-26.78s-26.78,12.01-26.78,26.78,12.01,26.78,26.78,26.78c3.65,0,7.12-.73,10.29-2.06,5.39,5.83,11.37,13.52,17.27,22.96,9.82,15.7,16.48,31.51,18.76,44.14-17.22,6.97-32.93,16.6-46.45,28.66-31.52,28.1-48.88,67.61-48.88,111.24s18.18,104.36,46.3,151.81c33.9,57.19,76.05,88.69,118.7,88.69s84.81-31.5,118.71-88.69c28.12-47.46,46.3-107.05,46.3-151.81s-17.36-83.14-48.88-111.24Zm-20.22,249.54c-28.51,48.12-63.47,75.7-95.91,75.7s-67.39-27.59-95.9-75.7c-25.88-43.66-42.6-97.95-42.6-138.3,0-55.91,33.84-100.14,85.47-118.01,1.13-.21,2.21-.58,3.21-1.07,15.26-4.89,31.99-7.52,49.82-7.52s34.56,2.63,49.82,7.52c1.01,.49,2.08,.86,3.21,1.07,51.63,17.87,85.47,62.1,85.47,118.01,0,40.35-16.72,94.64-42.6,138.3Z"/><path d="M364.33,240.07c-.97-5.5-5.27-9.8-10.76-10.76-.33-.05-8.09-1.4-18.62-1.4-16.47,0-39.35,3.25-54.83,18.72-25.41,25.41-17.66,71.5-17.32,73.45,.96,5.5,5.27,9.79,10.76,10.76,.33,.06,8.09,1.4,18.62,1.4h0c16.47,0,39.35-3.25,54.83-18.72,25.4-25.4,17.66-71.49,17.32-73.44Zm-36.07,54.7c-9.53,9.53-26.69,10.96-36.08,10.96h0c-1.49,0-2.9-.04-4.23-.09-.49-12.41,1.13-30.5,10.9-40.28,9.54-9.53,26.7-10.95,36.09-10.95,1.49,0,2.9,.03,4.23,.09,.49,12.41-1.14,30.5-10.91,40.27Z"/><path d="M219.88,246.62c-15.47-15.47-38.36-18.72-54.83-18.72-10.53,0-18.29,1.35-18.62,1.4-5.49,.96-9.8,5.27-10.76,10.76-.34,1.95-8.08,48.04,17.32,73.45,15.47,15.46,38.36,18.71,54.83,18.71,10.53,0,18.29-1.34,18.62-1.4,5.49-.96,9.8-5.26,10.76-10.76,.34-1.95,8.09-48.04-17.32-73.45Zm-7.83,59.02c-1.32,.05-2.74,.09-4.23,.09-9.38,0-26.55-1.43-36.09-10.96-9.77-9.78-11.39-27.87-10.91-40.27,1.32-.06,2.73-.09,4.22-.09,9.38,0,26.55,1.42,36.09,10.95,9.78,9.78,11.4,27.88,10.91,40.28Z"/><path d="M294.06,415.03h-88.13c-7.32,0-13.25-5.93-13.25-13.26s5.93-13.25,13.25-13.25h88.13c7.32,0,13.25,5.93,13.25,13.25s-5.93,13.26-13.25,13.26Z"/></svg>