<?xml version="1.0" encoding="UTF-8"?><svg id="Layer_2" xmlns="http://www.w3.org/2000/svg" width="318.73" height="308.99" xmlns:xlink="http://www.w3.org/1999/xlink" viewBox="0 0 318.73 308.99"><defs><style>.cls-1{fill:url(#linear-gradient-2);}.cls-2{fill:url(#linear-gradient);}</style><linearGradient id="linear-gradient" x1="10.7" y1="318.88" x2="320.7" y2="-8.62" gradientUnits="userSpaceOnUse"><stop offset="0" stop-color="#951b81"/><stop offset="1" stop-color="#29235c"/></linearGradient><linearGradient id="linear-gradient-2" x1="-1.43" y1="307.4" x2="308.57" y2="-20.1" xlink:href="#linear-gradient"/></defs><g id="Icons"><g><path class="cls-2" d="M310.26,118.2h-23.09c-6.56-19.38-17.53-37.15-32.42-52.05-16.23-16.23-35.87-27.8-57.3-34.08V8.47c0-4.68-3.79-8.47-8.46-8.47h-59.24c-4.67,0-8.47,3.79-8.47,8.47v23.61c-21.43,6.27-41.07,17.85-57.3,34.08-14.89,14.9-25.87,32.66-32.42,52.05H8.47c-4.68,0-8.47,3.79-8.47,8.47v59.24c0,4.68,3.79,8.47,8.47,8.47H29.35c5.21,15.69,14.61,28.31,28.1,37.74,1.43,13.9,4.84,26.02,10.19,36.04,5.61,10.53,13.5,19.1,23.43,25.48,16.31,10.47,38.02,15.35,68.3,15.35s52.06-4.9,68.38-15.41c9.94-6.41,17.83-15.01,23.43-25.58,5.3-10,8.69-22.06,10.11-35.9,13.49-9.43,22.89-22.05,28.1-37.74h20.88c4.68,0,8.46-3.79,8.46-8.47v-59.24c0-4.68-3.79-8.47-8.46-8.47ZM25.49,177.44h-8.56v-42.31h10.11c-1.7,8.61-2.57,17.44-2.57,26.41,0,5.55,.34,10.85,1.02,15.9ZM138.21,16.93h42.31v11.37c-6.94-1.08-14-1.65-21.16-1.65s-14.22,.56-21.16,1.65v-11.37Zm21.16,275.13c-50.5,0-75.71-14.7-83.28-49.95,20.45,8.33,47.3,12.25,83.28,12.25s62.83-3.92,83.28-12.25c-7.57,35.24-32.79,49.95-83.28,49.95Zm90.93-72.94c-1.1,.41-2.1,1.04-2.93,1.85-.86,.51-1.73,1.01-2.62,1.49-18.91,10.22-46.04,14.98-85.38,14.98s-66.46-4.76-85.38-14.98c-21.93-11.85-32.59-31.77-32.59-60.92,0-65.04,52.92-117.96,117.96-117.96s117.97,52.92,117.97,117.96c0,26.56-8.86,45.46-27.04,57.58Zm51.5-41.67h-8.56c.68-5.05,1.02-10.36,1.02-15.9,0-8.97-.87-17.8-2.57-26.41h10.11v42.31Z"/><path class="cls-1" d="M226.3,87.39c-18-13.98-41.77-21.67-66.94-21.67s-48.94,7.7-66.94,21.67c-18.63,14.47-28.89,33.87-28.89,54.64,0,9.52,2.16,17.28,6.43,23.07,2.16,2.93,6.09,7.28,15.3,11.14,15.13,6.35,39.37,9.43,74.1,9.43s58.97-3.09,74.1-9.43c9.2-3.86,13.13-8.21,15.3-11.14,4.26-5.79,6.43-13.55,6.43-23.07,0-20.77-10.26-40.17-28.89-54.64Zm8.83,67.67c-.62,.84-2.26,3.06-8.22,5.56-12.83,5.39-35.56,8.12-67.55,8.12s-54.72-2.73-67.55-8.12c-5.96-2.5-7.6-4.73-8.22-5.56-2.05-2.78-3.13-7.29-3.13-13.03,0-15.42,7.94-30.08,22.35-41.27,15.04-11.68,35.13-18.12,56.55-18.12s41.51,6.43,56.55,18.12c14.41,11.19,22.34,25.85,22.34,41.27,0,5.75-1.08,10.25-3.13,13.03Z"/></g></g></svg>