<?xml version="1.0" encoding="UTF-8"?><svg id="Layer_2" xmlns="http://www.w3.org/2000/svg" width="318.73" height="309.76" xmlns:xlink="http://www.w3.org/1999/xlink" viewBox="0 0 318.73 309.76"><defs><style>.cls-1{fill:url(#linear-gradient-2);}.cls-2{fill:url(#linear-gradient-6);}.cls-3{fill:url(#linear-gradient-5);}.cls-4{fill:url(#linear-gradient-7);}.cls-5{fill:url(#linear-gradient-3);}.cls-6{fill:url(#linear-gradient);}.cls-7{fill:url(#linear-gradient-4);}.cls-8{fill:url(#linear-gradient-8);}</style><linearGradient id="linear-gradient" x1="-12.52" y1="327.17" x2="314.98" y2="-20.33" gradientUnits="userSpaceOnUse"><stop offset="0" stop-color="#951b81"/><stop offset="1" stop-color="#29235c"/></linearGradient><linearGradient id="linear-gradient-2" x1="-6.19" y1="333.14" x2="321.31" y2="-14.36" xlink:href="#linear-gradient"/><linearGradient id="linear-gradient-3" x1="7.04" y1="345.6" x2="334.54" y2="-1.9" xlink:href="#linear-gradient"/><linearGradient id="linear-gradient-4" x1="-133.19" y1="213.44" x2="194.31" y2="-134.06" xlink:href="#linear-gradient"/><linearGradient id="linear-gradient-5" x1="-68.23" y1="274.67" x2="259.27" y2="-72.83" xlink:href="#linear-gradient"/><linearGradient id="linear-gradient-6" x1="99.18" y1="432.44" x2="426.68" y2="84.94" gradientTransform="translate(64.65 -55.65) rotate(13.28)" xlink:href="#linear-gradient"/><linearGradient id="linear-gradient-7" x1="29.15" y1="366.44" x2="356.65" y2="18.94" gradientTransform="translate(37.49 -53.36) rotate(13.28)" xlink:href="#linear-gradient"/><linearGradient id="linear-gradient-8" x1="63.24" y1="398.56" x2="390.73" y2="51.06" gradientTransform="translate(69.24 -32.44) rotate(13.28)" xlink:href="#linear-gradient"/></defs><g id="Icons"><g><path class="cls-6" d="M300.57,160.99c-2.3-2.3-5.73-3.08-8.8-2-12.39,4.37-25.36,6.58-38.56,6.58-30.91,0-59.98-12.04-81.84-33.9-31.33-31.32-42.05-78.58-27.32-120.4,1.08-3.07,.3-6.49-2-8.79-2.3-2.3-5.72-3.08-8.79-2-18.77,6.62-35.47,17.15-49.64,31.32-25.06,25.06-38.86,58.37-38.86,93.81s13.8,68.75,38.86,93.81,58.37,38.86,93.82,38.86,68.76-13.8,93.81-38.86c14.17-14.16,24.7-30.86,31.32-49.63,1.08-3.07,.31-6.49-2-8.8Zm-41.29,46.46c-21.86,21.86-50.93,33.9-81.84,33.9s-59.98-12.04-81.84-33.9c-45.13-45.13-45.13-118.56,0-163.69,8.26-8.26,17.5-15.11,27.61-20.46-3.67,18.03-3.56,36.69,.38,54.83,5.4,24.81,17.78,47.47,35.82,65.5,25.06,25.05,58.37,38.85,93.81,38.85,8.96,0,17.83-.89,26.53-2.66-5.35,10.11-12.2,19.35-20.46,27.61Z"/><path class="cls-1" d="M294.68,53.36c-5.39-7.97-14.01-13.27-23.61-14.46-3.25-7.01-8.19-13.08-14.49-17.78-8.14-6.07-17.81-9.28-27.99-9.28s-19.85,3.21-27.99,9.28c-6.3,4.7-11.24,10.78-14.49,17.78-16.52,2.03-29.35,16.14-29.35,33.2,0,18.44,15,33.44,33.45,33.44h102.39c14.41,0,26.14-11.72,26.14-26.13s-10.61-24.99-24.05-26.05Zm-2.09,35.26h-102.39c-9.11,0-16.52-7.41-16.52-16.52s7.41-16.52,16.52-16.52c.33,0,.7,.01,1.17,.05,3.92,.27,7.49-2.18,8.66-5.91,3.93-12.53,15.41-20.95,28.56-20.95s24.62,8.42,28.55,20.95c1.17,3.74,4.75,6.18,8.66,5.91,.47-.03,.84-.05,1.17-.05,6.52,0,12.44,3.85,15.1,9.82,1.55,3.5,5.27,5.52,9.05,4.92,.49-.07,.98-.11,1.46-.11,5.08,0,9.21,4.13,9.21,9.2s-4.13,9.21-9.21,9.21Z"/><path class="cls-5" d="M111.71,265.07c-4.38-6.06-11.02-10.17-18.44-11.35-6.46-13.09-19.77-21.53-34.76-21.53-8.42,0-16.44,2.66-23.17,7.69-4.96,3.69-8.89,8.41-11.58,13.84-13.46,2.13-23.77,13.81-23.77,27.85,0,15.55,12.65,28.2,28.2,28.2H109.08c12.36,0,22.42-10.06,22.42-22.43,0-11.47-8.66-20.96-19.79-22.27Zm-2.64,27.76H28.2c-6.22,0-11.27-5.06-11.27-11.27s5.05-11.27,11.27-11.27c.22,0,.48,0,.81,.03,3.9,.27,7.48-2.17,8.65-5.91,2.87-9.15,11.25-15.3,20.86-15.3s17.99,6.15,20.86,15.3c1.17,3.74,4.75,6.18,8.65,5.91,.33-.02,.59-.03,.81-.03,4.45,0,8.49,2.63,10.3,6.7,1.56,3.5,5.27,5.52,9.06,4.92,.29-.05,.59-.07,.87-.07,3.03,0,5.49,2.47,5.49,5.49s-2.46,5.5-5.49,5.5Z"/><g><path class="cls-7" d="M58.01,28.53c0-9.35-7.58-16.92-16.93-16.92s-16.92,7.58-16.92,16.92,7.58,16.93,16.92,16.93,16.93-7.58,16.93-16.93Z"/><path class="cls-3" d="M34.31,176.65c0-5.61-4.55-10.16-10.16-10.16s-10.16,4.55-10.16,10.16,4.55,10.16,10.16,10.16,10.16-4.55,10.16-10.16Z"/><circle class="cls-2" cx="271.3" cy="249.81" r="10.16" transform="translate(-50.14 69.01) rotate(-13.28)"/><circle class="cls-4" cx="247.9" cy="134.33" r="10.16" transform="translate(-24.23 60.55) rotate(-13.28)"/><circle class="cls-8" cx="173.91" cy="281.13" r="10.16" transform="translate(-59.94 47.48) rotate(-13.28)"/></g></g></g></svg>