<?xml version="1.0" encoding="UTF-8"?><svg id="Layer_2" xmlns="http://www.w3.org/2000/svg" width="318.73" height="318.73" xmlns:xlink="http://www.w3.org/1999/xlink" viewBox="0 0 318.73 318.73"><defs><style>.cls-1{fill:url(#linear-gradient-2);}.cls-2{fill:url(#linear-gradient-5);}.cls-3{fill:url(#linear-gradient-3);}.cls-4{fill:url(#linear-gradient);}.cls-5{fill:url(#linear-gradient-4);}</style><linearGradient id="linear-gradient" x1="22.51" y1="308.3" x2="315.01" y2="-24.2" gradientUnits="userSpaceOnUse"><stop offset="0" stop-color="#951b81"/><stop offset="1" stop-color="#29235c"/></linearGradient><linearGradient id="linear-gradient-2" x1="79.33" y1="358.29" x2="371.83" y2="25.79" xlink:href="#linear-gradient"/><linearGradient id="linear-gradient-3" x1="32.76" y1="317.33" x2="325.27" y2="-15.17" xlink:href="#linear-gradient"/><linearGradient id="linear-gradient-4" x1="-17.98" y1="272.69" x2="274.52" y2="-59.81" xlink:href="#linear-gradient"/><linearGradient id="linear-gradient-5" x1="18.59" y1="304.86" x2="311.1" y2="-27.64" xlink:href="#linear-gradient"/></defs><g id="Icons"><g><path class="cls-4" d="M189.25,129.48c-20.94-20.94-48.78-32.47-78.39-32.47-24.59,0-47.94,7.97-67.14,22.66-.29,.2-.56,.41-.82,.63-3.63,2.83-7.12,5.87-10.43,9.17C11.53,150.42,0,178.26,0,207.87s11.53,57.45,32.47,78.39,48.77,32.47,78.39,32.47c24.6,0,47.97-7.98,67.19-22.69,.28-.2,.56-.41,.82-.64,3.61-2.82,7.09-5.85,10.39-9.14,15-15.01,25.15-33.57,29.71-53.77,.33-.83,.52-1.69,.57-2.56,1.44-7.19,2.19-14.56,2.19-22.06,0-29.61-11.53-57.45-32.47-78.39Zm-80.27-15.49c.03,.51,.05,1.02,.05,1.53,0,14.84-12.07,26.91-26.91,26.91-9.56,0-18.19-5.01-22.99-12.91,14.36-9.51,31.46-15.17,49.85-15.53Zm63.9,164.33c-5.38-5.03-8.48-12.03-8.48-19.62,0-14.84,12.08-26.91,26.91-26.91,3.41,0,6.74,.64,9.85,1.86-5.01,17.51-14.97,32.94-28.28,44.67Zm31.47-61.48c-4.19-1.3-8.57-1.98-13.04-1.98-24.17,0-43.84,19.67-43.84,43.84,0,11.1,4.3,21.7,11.66,29.71-14.12,8.49-30.63,13.39-48.27,13.39-51.79,0-93.93-42.14-93.93-93.93,0-26.59,11.12-50.62,28.94-67.72,8.01,11.81,21.44,19.21,36.25,19.21,24.17,0,43.84-19.67,43.84-43.84,0-.12-.01-.23-.01-.35,44.64,7.24,78.84,46.04,78.84,92.7,0,3.03-.16,6.02-.44,8.97Z"/><path class="cls-1" d="M310.26,91.83c2.17,0,4.33,.83,5.99,2.48,3.31,3.31,3.31,8.66,0,11.97l-66.05,66.05c-3.3,3.31-8.66,3.31-11.97,0-3.31-3.31-3.31-8.66,0-11.97l66.05-66.05c1.65-1.65,3.82-2.48,5.98-2.48Z"/><path class="cls-3" d="M310.26,0c2.17,0,4.33,.83,5.99,2.48,3.31,3.31,3.31,8.67,0,11.97l-96.31,96.31c-3.31,3.31-8.66,3.31-11.97,0s-3.31-8.66,0-11.97L304.28,2.48c1.65-1.65,3.82-2.48,5.98-2.48Z"/><path class="cls-5" d="M218.43,0c2.17,0,4.33,.83,5.98,2.48,3.31,3.31,3.31,8.66,0,11.97l-66.05,66.05c-3.31,3.31-8.66,3.31-11.97,0-3.31-3.31-3.31-8.66,0-11.97L212.45,2.48c1.65-1.65,3.82-2.48,5.99-2.48Z"/><path class="cls-2" d="M82.12,198.96c-18.57,0-33.68,15.11-33.68,33.68s15.11,33.68,33.68,33.68,33.68-15.11,33.68-33.68-15.11-33.68-33.68-33.68Zm0,50.44c-9.24,0-16.76-7.52-16.76-16.76s7.52-16.76,16.76-16.76,16.76,7.52,16.76,16.76-7.52,16.76-16.76,16.76Z"/></g></g></svg>