<?xml version="1.0" encoding="UTF-8"?><svg id="Layer_1" xmlns="http://www.w3.org/2000/svg" width="500" height="500" viewBox="0 0 500 500"><path d="M384.18,186.78c-17.81-18.68-38.81-33.16-62.43-43.06-18.71-7.83-38.32-12.5-58.47-13.92v-37.59h35.85l49.38,22.13c1.73,.78,3.59,1.16,5.43,1.16,2.53,0,5.04-.72,7.22-2.13,3.78-2.45,6.06-6.65,6.06-11.15V36.46c0-5.23-3.07-9.98-7.85-12.12L307.41,1.05c-1.71-.77-3.56-1.16-5.43-1.16h-51.97c-7.34,0-13.28,5.95-13.28,13.29v116.62c-42.93,3.04-83.23,20.79-114.66,50.76-35.84,34.17-56.23,80.26-57.41,129.76-1.18,49.51,16.99,96.52,51.17,132.36,17.8,18.67,38.8,33.16,62.42,43.05,22.81,9.56,46.95,14.4,71.78,14.4h0c47.84,0,93.27-18.19,127.91-51.22,35.84-34.18,56.23-80.26,57.41-129.78,1.18-49.51-16.99-96.5-51.17-132.35ZM263.29,36.46v-10.01h35.85l41.53,18.61v36.64l-33.26-14.91c-1.71-.77-3.56-1.16-5.43-1.16h-38.69v-29.18Zm-122.89,163.31c3.34-3.19,6.8-6.2,10.36-9.06,.6,.87,1.18,1.74,1.74,2.64,15.73,25.49,7.78,59.03-17.71,74.75-11.58,7.14-25.4,9.59-38.57,7.14,7.11-27.89,21.86-54.18,44.18-75.47Zm219.22,229.9c-29.68,28.29-68.59,43.88-109.58,43.88h0c-43.88,0-84.72-17.49-114.98-49.23-32.58-34.16-46.89-79.18-43.24-122.89,4.77,.86,9.59,1.29,14.4,1.29,14.84,0,29.62-4.05,42.52-12.01,37.96-23.42,49.79-73.35,26.37-111.31-.74-1.2-1.51-2.37-2.31-3.52,23.39-13.04,49.82-19.99,77.18-19.99h.03c43.87,0,84.69,17.49,114.95,49.22,11.19,11.73,20.36,24.87,27.39,38.98-9.86,2.86-18.94,8.06-26.58,15.34-25.85,24.64-26.82,65.72-2.18,91.56,9.54,10.01,22.03,16.59,35.4,19.02-8.28,22.36-21.6,42.72-39.36,59.66Zm49.18-111.18c-.21,8.74-1.13,17.34-2.7,25.76-8.81-.98-16.99-5-23.29-11.6-14.53-15.24-13.96-39.48,1.29-54.01,5.12-4.89,11.35-8.18,18.1-9.66,4.74,15.83,7,32.49,6.6,49.5Z"/><path d="M284.08,339.77c-10.61-11.13-24.93-17.25-40.3-17.25-14.37,0-28.01,5.46-38.42,15.38-10.76,10.26-16.89,24.1-17.24,38.97-.35,14.87,5.1,28.98,15.37,39.75,10.61,11.13,24.92,17.25,40.3,17.25h0c14.37,0,28.01-5.46,38.41-15.38,22.22-21.18,23.06-56.5,1.87-78.72Zm-20.21,59.49c-5.44,5.19-12.57,8.05-20.08,8.05-8.04,0-15.53-3.21-21.07-9.03-5.36-5.62-8.22-13.01-8.03-20.78,.18-7.78,3.38-15.01,9.01-20.38,5.44-5.19,12.57-8.04,20.08-8.04,8.04,0,15.53,3.2,21.07,9.02,11.07,11.62,10.64,30.08-.98,41.15Z"/></svg>