<?xml version="1.0" encoding="UTF-8"?><svg id="Layer_2" xmlns="http://www.w3.org/2000/svg" width="318.7" height="238.92" xmlns:xlink="http://www.w3.org/1999/xlink" viewBox="0 0 318.7 238.92"><defs><style>.cls-1{fill:url(#linear-gradient-2);}.cls-2{fill:url(#linear-gradient-3);}.cls-3{fill:url(#linear-gradient);}</style><linearGradient id="linear-gradient" x1="-16.9" y1="248.16" x2="363.09" y2="-29.34" gradientUnits="userSpaceOnUse"><stop offset="0" stop-color="#951b81"/><stop offset="1" stop-color="#29235c"/></linearGradient><linearGradient id="linear-gradient-2" x1="-26.54" y1="234.95" x2="353.45" y2="-42.54" xlink:href="#linear-gradient"/><linearGradient id="linear-gradient-3" x1="3.4" y1="275.96" x2="383.39" y2="-1.54" xlink:href="#linear-gradient"/></defs><g id="Icons"><g><path class="cls-3" d="M314.72,49.66c-6.1-13.57-18.96-23.66-37.17-29.15-15.69-4.74-35.5-6.09-57.45-3.95C201.89,5.77,181.06,0,159.33,0c-31.91,0-61.91,12.43-84.47,34.99-17.06,17.06-28.32,38.36-32.8,61.53-16.18,14.99-28.34,30.7-35.22,45.58-7.99,17.28-9,33.58-2.9,47.15,9.66,21.51,35.46,33.61,72.66,34.09,.77,0,1.53,.01,2.3,.01,6.36,0,12.93-.33,19.68-.99,18.21,10.79,39.04,16.55,60.76,16.55,31.91,0,61.91-12.43,84.47-34.99,17.05-17.06,28.31-38.36,32.8-61.53,5.57-5.16,10.71-10.43,15.34-15.79,24.35-28.12,32.44-55.45,22.78-76.96ZM148.5,17.5c.64,2.1,.96,4.3,.96,6.53,0,12.41-10.1,22.51-22.51,22.51-9.5,0-17.82-5.99-21.07-14.55,12.66-7.77,27.13-12.86,42.62-14.49ZM76.81,206.42c-29.79-.38-50.73-9.17-57.43-24.1-4.08-9.1-3.14-20.23,2.82-33.11,3.92-8.47,9.93-17.36,17.72-26.29,.87,30.61,13.19,59.27,34.94,81.01,.84,.84,1.7,1.67,2.57,2.49-.21,0-.41,0-.62,0Zm82.52,15.58c-10.51,0-20.66-1.59-30.22-4.55,21.02-4.64,42.91-11.95,64.51-21.65,21.59-9.7,41.58-21.2,59.01-33.81-16.19,35.38-51.92,60.01-93.29,60.01Zm101.52-88.16c-19.97,17.56-45.54,33.66-74.17,46.52-28.62,12.86-57.61,21.26-83.99,24.54-27.64-18.39-45.9-49.81-45.9-85.43,0-30.78,13.63-58.43,35.17-77.24,6.64,12.7,19.96,21.25,34.98,21.25,21.75,0,39.44-17.7,39.44-39.44,0-2.32-.21-4.63-.61-6.89,53.54,3.34,96.09,47.96,96.09,102.33,0,4.88-.35,9.68-1.01,14.37Zm18.29-18.3c-.13,.16-.27,.31-.41,.46-.86-30.61-13.19-59.26-34.94-81.01-.85-.84-1.7-1.67-2.57-2.49,11.85,.11,22.49,1.52,31.43,4.22,13.58,4.1,22.54,10.79,26.62,19.88,6.71,14.93-.63,36.41-20.14,58.94Z"/><path class="cls-1" d="M126.95,91.71c-17.18,0-31.15,13.97-31.15,31.15s13.97,31.15,31.15,31.15,31.15-13.97,31.15-31.15-13.97-31.15-31.15-31.15Zm0,45.37c-7.84,0-14.22-6.38-14.22-14.22s6.38-14.22,14.22-14.22,14.22,6.38,14.22,14.22-6.38,14.22-14.22,14.22Z"/><path class="cls-2" d="M217.7,93.48c-14.33,0-25.99,11.66-25.99,25.99s11.66,25.98,25.99,25.98,25.99-11.66,25.99-25.98-11.66-25.99-25.99-25.99Zm0,35.04c-5,0-9.06-4.06-9.06-9.06s4.07-9.06,9.06-9.06,9.06,4.06,9.06,9.06-4.06,9.06-9.06,9.06Z"/></g></g></svg>