<?xml version="1.0" encoding="UTF-8"?><svg id="Layer_2" xmlns="http://www.w3.org/2000/svg" width="236.26" height="318.72" xmlns:xlink="http://www.w3.org/1999/xlink" viewBox="0 0 236.26 318.72"><defs><style>.cls-1{fill:url(#linear-gradient-2);}.cls-2{fill:url(#linear-gradient);}</style><linearGradient id="linear-gradient" x1="-9.65" y1="340.04" x2="282.85" y2="-4.95" gradientUnits="userSpaceOnUse"><stop offset="0" stop-color="#951b81"/><stop offset="1" stop-color="#29235c"/></linearGradient><linearGradient id="linear-gradient-2" x1="13.55" y1="359.72" x2="306.05" y2="14.72" xlink:href="#linear-gradient"/></defs><g id="Icons"><g><path class="cls-2" d="M203.62,119.08c-11.35-11.9-24.73-21.13-39.78-27.44-11.92-4.99-24.42-7.96-37.25-8.87v-23.95h22.84l31.46,14.1c1.1,.5,2.29,.74,3.46,.74,1.61,0,3.21-.46,4.6-1.36,2.41-1.56,3.86-4.24,3.86-7.1V23.31c0-3.34-1.96-6.36-5-7.72L154.71,.74c-1.09-.49-2.27-.74-3.46-.74h-33.12c-4.68,0-8.46,3.79-8.46,8.47V82.77c-27.35,1.94-53.03,13.25-73.05,32.34C13.78,136.88,.79,166.24,.03,197.79c-.75,31.54,10.83,61.49,32.6,84.33,11.34,11.89,24.72,21.13,39.77,27.43,14.53,6.09,29.92,9.17,45.73,9.17h0c30.48,0,59.43-11.59,81.5-32.63,22.84-21.78,35.83-51.14,36.58-82.69,.75-31.54-10.83-61.49-32.6-84.32ZM126.59,23.31v-6.38h22.84l26.46,11.86v23.34l-21.19-9.5c-1.09-.49-2.27-.74-3.46-.74h-24.65V23.31ZM48.29,127.36c2.13-2.03,4.33-3.95,6.6-5.77,.38,.55,.75,1.11,1.11,1.68,10.02,16.24,4.96,37.61-11.28,47.62-7.38,4.55-16.18,6.11-24.58,4.55,4.53-17.77,13.93-34.52,28.15-48.08Zm139.67,146.48c-18.91,18.03-43.7,27.96-69.82,27.96h0c-27.96,0-53.98-11.14-73.26-31.37-20.76-21.77-29.88-50.45-27.55-78.3,3.04,.55,6.11,.82,9.18,.82,9.46,0,18.87-2.58,27.09-7.65,24.18-14.92,31.72-46.74,16.8-70.92-.47-.76-.96-1.51-1.47-2.24,14.9-8.31,31.74-12.74,49.18-12.74h.02c27.95,0,53.96,11.14,73.24,31.36,7.13,7.48,12.97,15.84,17.45,24.83-6.28,1.82-12.07,5.13-16.94,9.77-16.47,15.7-17.09,41.87-1.39,58.34,6.08,6.38,14.04,10.57,22.55,12.12-5.28,14.25-13.76,27.22-25.08,38.01Zm31.34-70.83c-.13,5.57-.72,11.05-1.72,16.42-5.61-.62-10.82-3.18-14.84-7.39-9.26-9.71-8.89-25.15,.82-34.41,3.26-3.12,7.23-5.21,11.53-6.15,3.02,10.09,4.46,20.7,4.21,31.54Z"/><path class="cls-1" d="M139.84,216.56c-6.76-7.09-15.88-10.99-25.68-10.99-9.16,0-17.85,3.48-24.48,9.8-6.86,6.54-10.76,15.36-10.98,24.83-.22,9.47,3.25,18.47,9.79,25.33,6.76,7.09,15.88,10.99,25.68,10.99h0c9.15,0,17.85-3.48,24.48-9.8,14.16-13.5,14.69-36,1.19-50.16Zm-12.88,37.91c-3.47,3.31-8.01,5.13-12.8,5.13-5.12,0-9.89-2.05-13.43-5.75-3.42-3.58-5.24-8.29-5.12-13.24,.12-4.96,2.16-9.57,5.74-12.98,3.46-3.31,8.01-5.12,12.8-5.12,5.12,0,9.89,2.04,13.43,5.75,7.06,7.4,6.78,19.17-.62,26.22Z"/></g></g></svg>