<?xml version="1.0" encoding="UTF-8"?><svg id="Layer_2" xmlns="http://www.w3.org/2000/svg" width="318.73" height="318.73" xmlns:xlink="http://www.w3.org/1999/xlink" viewBox="0 0 318.73 318.73"><defs><style>.cls-1{fill:url(#linear-gradient-2);}.cls-2{fill:url(#linear-gradient-3);}.cls-3{fill:url(#linear-gradient);}.cls-4{fill:url(#linear-gradient-4);}</style><linearGradient id="linear-gradient" x1="14.46" y1="304.27" x2="298.27" y2="20.45" gradientUnits="userSpaceOnUse"><stop offset="0" stop-color="#951b81"/><stop offset="1" stop-color="#29235c"/></linearGradient><linearGradient id="linear-gradient-2" x1="21.33" y1="311.14" x2="305.15" y2="27.32" xlink:href="#linear-gradient"/><linearGradient id="linear-gradient-3" x1="-42.95" y1="246.87" x2="240.87" y2="-36.95" xlink:href="#linear-gradient"/><linearGradient id="linear-gradient-4" x1="24.49" y1="314.31" x2="308.31" y2="30.49" xlink:href="#linear-gradient"/></defs><g id="Icons"><g><path class="cls-3" d="M306.2,97.33c-8.03-18.98-19.52-36.02-34.15-50.65-14.63-14.63-31.68-26.12-50.65-34.15-15.46-6.54-31.68-10.53-48.37-11.94-.11-.01-.23-.02-.34-.03-4.41-.36-8.85-.56-13.32-.56-21.51,0-42.38,4.21-62.04,12.53-18.98,8.03-36.02,19.52-50.65,34.15-14.63,14.63-26.12,31.67-34.15,50.65C4.22,116.98,0,137.85,0,159.36s4.22,42.38,12.53,62.03c8.03,18.98,19.52,36.02,34.15,50.65,14.63,14.63,31.67,26.12,50.65,34.15,19.65,8.31,40.52,12.53,62.04,12.53s42.38-4.21,62.03-12.53c18.98-8.03,36.02-19.52,50.65-34.15,14.63-14.63,26.12-31.67,34.15-50.65,8.31-19.65,12.53-40.52,12.53-62.03s-4.21-42.38-12.53-62.03ZM159.36,16.93c1.79,0,3.58,.04,5.36,.11,.02,.43,.04,.86,.04,1.29,0,18.29-14.88,33.16-33.16,33.16-14.24,0-26.5-8.86-31.17-21.78,17.97-8.2,37.93-12.78,58.94-12.78Zm74.89,263.54c-9.61-5.73-15.64-16.11-15.64-27.5,0-17.66,14.37-32.02,32.02-32.02,11.75,0,22.29,6.3,27.9,16.33-11.43,17.42-26.57,32.2-44.29,43.2Zm53.47-59.4c-2.73-3.17-5.84-6.01-9.34-8.43-8.18-5.64-17.78-8.62-27.75-8.62-26.99,0-48.95,21.96-48.95,48.95,0,14.09,6.04,27.17,16.12,36.28-17.84,8.06-37.63,12.55-58.45,12.55-78.54,0-142.44-63.9-142.44-142.44,0-51.47,27.44-96.65,68.47-121.68,3,7.14,7.62,13.55,13.58,18.67,9.07,7.78,20.65,12.07,32.61,12.07,27.5,0,49.89-22.28,50.08-49.74,67.98,10.74,120.12,69.73,120.12,140.68,0,22.09-5.06,43.02-14.07,61.7Z"/><path class="cls-1" d="M108.94,184.59c-21.47,0-38.93,17.47-38.93,38.93s17.46,38.93,38.93,38.93,38.93-17.47,38.93-38.93-17.46-38.93-38.93-38.93Zm0,60.94c-12.13,0-22.01-9.87-22.01-22s9.87-22,22.01-22,22,9.87,22,22-9.87,22-22,22Z"/><path class="cls-2" d="M81.33,95.12c-15.14,0-27.46,12.32-27.46,27.46s12.32,27.46,27.46,27.46,27.46-12.32,27.46-27.46-12.32-27.46-27.46-27.46Zm0,37.99c-5.81,0-10.53-4.72-10.53-10.53s4.72-10.53,10.53-10.53,10.53,4.72,10.53,10.53-4.72,10.53-10.53,10.53Z"/><path class="cls-4" d="M216.36,79.7c-23.57,0-42.74,19.17-42.74,42.74s19.17,42.74,42.74,42.74,42.74-19.17,42.74-42.74-19.17-42.74-42.74-42.74Zm0,68.55c-14.23,0-25.81-11.58-25.81-25.81s11.58-25.82,25.81-25.82,25.81,11.58,25.81,25.82-11.58,25.81-25.81,25.81Z"/></g></g></svg>