<?xml version="1.0" encoding="UTF-8"?><svg id="Layer_2" xmlns="http://www.w3.org/2000/svg" width="318.73" height="280.99" xmlns:xlink="http://www.w3.org/1999/xlink" viewBox="0 0 318.73 280.99"><defs><style>.cls-1{fill:url(#linear-gradient-2);}.cls-2{fill:url(#linear-gradient-3);}.cls-3{fill:url(#linear-gradient);}.cls-4{fill:url(#linear-gradient-4);}</style><linearGradient id="linear-gradient" x1="37.25" y1="302.03" x2="317.25" y2="22.03" gradientUnits="userSpaceOnUse"><stop offset="0" stop-color="#951b81"/><stop offset="1" stop-color="#29235c"/></linearGradient><linearGradient id="linear-gradient-2" x1="61.02" y1="325.8" x2="341.02" y2="45.8" xlink:href="#linear-gradient"/><linearGradient id="linear-gradient-3" x1="-.71" y1="264.07" x2="279.29" y2="-15.92" xlink:href="#linear-gradient"/><linearGradient id="linear-gradient-4" x1="60.03" y1="324.81" x2="340.03" y2="44.81" xlink:href="#linear-gradient"/></defs><g id="Icons"><g><path class="cls-3" d="M282.67,143.65v-3.67c0-28.96-23.56-52.53-52.53-52.53h-62.31v-22.45c14.14-3.75,24.59-16.65,24.59-31.95,0-18.23-14.83-33.05-33.05-33.05s-33.05,14.82-33.05,33.05c0,15.3,10.45,28.2,24.59,31.95v22.45h-62.31c-28.97,0-52.53,23.56-52.53,52.53v3.67C15.54,147.61,0,165.7,0,187.35s15.58,39.79,36.12,43.73c1.37,27.75,24.38,49.91,52.47,49.91H230.14c28.09,0,51.09-22.16,52.47-49.91,20.54-3.94,36.12-22.05,36.12-43.73s-15.54-39.74-36.06-43.71ZM36.06,213.61c-11.09-3.58-19.13-13.99-19.13-26.26s8.04-22.68,19.13-26.25v52.51ZM143.24,33.05c0-8.89,7.23-16.12,16.13-16.12s16.12,7.23,16.12,16.12-7.23,16.12-16.12,16.12-16.13-7.23-16.13-16.12Zm122.5,195.41c0,19.63-15.97,35.6-35.6,35.6H88.59c-19.63,0-35.61-15.97-35.61-35.6v-88.48c0-19.63,15.97-35.6,35.61-35.6H230.14c19.63,0,35.6,15.97,35.6,35.6v88.48Zm16.93-14.84v-52.51c11.09,3.58,19.13,13.99,19.13,26.25s-8.04,22.68-19.13,26.26Z"/><path class="cls-1" d="M221.09,140.77c-13.77,0-24.97,11.2-24.97,24.97s11.2,24.97,24.97,24.97,24.97-11.2,24.97-24.97-11.2-24.97-24.97-24.97Zm0,33.01c-4.43,0-8.04-3.6-8.04-8.04s3.61-8.04,8.04-8.04,8.04,3.61,8.04,8.04-3.61,8.04-8.04,8.04Z"/><path class="cls-2" d="M97.63,140.77c-13.77,0-24.97,11.2-24.97,24.97s11.2,24.97,24.97,24.97,24.97-11.2,24.97-24.97-11.2-24.97-24.97-24.97Zm0,33.01c-4.43,0-8.04-3.6-8.04-8.04s3.61-8.04,8.04-8.04,8.04,3.61,8.04,8.04-3.61,8.04-8.04,8.04Z"/><path class="cls-4" d="M182.43,217.02h-46.13c-4.68,0-8.46,3.79-8.46,8.46s3.79,8.47,8.46,8.47h46.13c4.67,0,8.46-3.79,8.46-8.47s-3.79-8.46-8.46-8.46Z"/></g></g></svg>