<?xml version="1.0" encoding="UTF-8"?><svg id="Layer_1" xmlns="http://www.w3.org/2000/svg" width="500" height="500" viewBox="0 0 500 500"><path d="M443.53,254.95v-5.76c0-45.46-36.98-82.44-82.44-82.44h-97.8v-35.23c22.19-5.89,38.59-26.13,38.59-50.14,0-28.61-23.27-51.87-51.87-51.87s-51.88,23.27-51.88,51.87c0,24.01,16.4,44.26,38.59,50.14v35.23h-97.8c-45.46,0-82.45,36.98-82.45,82.44v5.76C24.27,261.17-.12,289.57-.12,323.55s24.45,62.44,56.69,68.63c2.15,43.55,38.26,78.33,82.35,78.33h222.17c44.08,0,80.19-34.78,82.35-78.33,32.24-6.18,56.69-34.6,56.69-68.63s-24.39-62.37-56.59-68.6ZM56.47,364.76c-17.4-5.62-30.02-21.96-30.02-41.21s12.62-35.59,30.02-41.21v82.42ZM224.69,81.37c0-13.96,11.35-25.31,25.31-25.31s25.31,11.35,25.31,25.31-11.35,25.31-25.31,25.31-25.31-11.35-25.31-25.31Zm192.27,306.69c0,30.81-25.07,55.88-55.88,55.88H138.92c-30.82,0-55.88-25.07-55.88-55.88V249.19c0-30.81,25.07-55.88,55.88-55.88h222.17c30.81,0,55.88,25.07,55.88,55.88v138.87Zm26.57-23.3v-82.42c17.4,5.62,30.02,21.96,30.02,41.21s-12.62,35.6-30.02,41.21Z"/><path d="M346.88,250.43c-21.61,0-39.19,17.58-39.19,39.19s17.58,39.18,39.19,39.18,39.19-17.58,39.19-39.18-17.58-39.19-39.19-39.19Zm0,51.81c-6.96,0-12.62-5.66-12.62-12.61s5.66-12.62,12.62-12.62,12.62,5.66,12.62,12.62-5.66,12.61-12.62,12.61Z"/><path d="M153.12,250.43c-21.61,0-39.19,17.58-39.19,39.19s17.58,39.18,39.19,39.18,39.19-17.58,39.19-39.18-17.58-39.19-39.19-39.19Zm0,51.81c-6.96,0-12.62-5.66-12.62-12.61s5.66-12.62,12.62-12.62,12.62,5.66,12.62,12.62-5.66,12.61-12.62,12.61Z"/><path d="M286.2,370.1h-72.4c-7.34,0-13.28,5.95-13.28,13.28s5.95,13.29,13.28,13.29h72.4c7.33,0,13.28-5.95,13.28-13.29s-5.95-13.28-13.28-13.28Z"/></svg>