<?xml version="1.0" encoding="UTF-8"?><svg id="Layer_2" xmlns="http://www.w3.org/2000/svg" width="318.73" height="318.73" xmlns:xlink="http://www.w3.org/1999/xlink" viewBox="0 0 318.73 318.73"><defs><style>.cls-1{fill:url(#linear-gradient-2);}.cls-2{fill:url(#linear-gradient-5);}.cls-3{fill:url(#linear-gradient-3);}.cls-4{fill:url(#linear-gradient);}.cls-5{fill:url(#linear-gradient-4);}</style><linearGradient id="linear-gradient" x1="-4.9" y1="323.63" x2="326.41" y2="-7.68" gradientUnits="userSpaceOnUse"><stop offset="0" stop-color="#951b81"/><stop offset="1" stop-color="#29235c"/></linearGradient><linearGradient id="linear-gradient-2" x1="-33.82" y1="294.71" x2="297.49" y2="-36.6" xlink:href="#linear-gradient"/><linearGradient id="linear-gradient-3" x1="-4.9" y1="323.63" x2="326.41" y2="-7.68" xlink:href="#linear-gradient"/><linearGradient id="linear-gradient-4" x1="24.02" y1="352.55" x2="355.32" y2="21.24" xlink:href="#linear-gradient"/><linearGradient id="linear-gradient-5" x1="-4.9" y1="323.63" x2="326.41" y2="-7.68" xlink:href="#linear-gradient"/></defs><g id="Icons"><g><path class="cls-4" d="M240.04,78.68c-5.68-5.68-13.24-8.81-21.28-8.81s-15.6,3.13-21.28,8.81-8.81,13.24-8.81,21.28,3.13,15.6,8.81,21.28,13.24,8.81,21.28,8.81h0c8.04,0,15.6-3.13,21.28-8.81s8.81-13.24,8.81-21.28-3.13-15.6-8.81-21.28Zm-11.97,30.59c-2.49,2.49-5.79,3.86-9.31,3.86h0c-3.52,0-6.82-1.37-9.31-3.86-2.49-2.49-3.86-5.79-3.86-9.31s1.37-6.82,3.86-9.31c2.49-2.49,5.79-3.86,9.31-3.86s6.82,1.37,9.31,3.86c5.13,5.13,5.13,13.48,0,18.62Z"/><path class="cls-1" d="M8.46,260.89c-2.17,0-4.33-.83-5.98-2.48-3.3-3.31-3.3-8.66,0-11.97l48.94-48.94c3.3-3.31,8.66-3.31,11.97,0s3.31,8.66,0,11.97l-48.94,48.94c-1.66,1.65-3.82,2.48-5.99,2.48Z"/><path class="cls-3" d="M19.41,307.79c-2.17,0-4.33-.83-5.98-2.48-3.31-3.31-3.31-8.66,0-11.97l51.01-51.01c3.31-3.31,8.66-3.31,11.97,0s3.31,8.66,0,11.97l-51.01,51.01c-1.65,1.65-3.82,2.48-5.99,2.48Z"/><path class="cls-5" d="M66.3,318.73c-2.16,0-4.33-.83-5.98-2.48-3.31-3.31-3.31-8.66,0-11.97l48.94-48.94c3.3-3.3,8.66-3.31,11.97,0,3.31,3.31,3.31,8.66,0,11.97l-48.94,48.94c-1.65,1.65-3.82,2.48-5.99,2.48Z"/><path class="cls-2" d="M316.25,2.48c-1.92-1.92-4.65-2.81-7.33-2.37-.98,.16-24.44,4.01-56.41,16.23-18.75,7.17-36.57,15.74-52.96,25.5-20.13,11.98-38.14,25.79-53.57,41.05l-63.92,12.44c-1.65,.32-3.17,1.13-4.36,2.31l-57.91,57.72c-2.64,2.63-3.25,6.67-1.5,9.96,1.49,2.8,4.39,4.49,7.47,4.49,.54,0,1.08-.05,1.62-.15l65.32-12.72c-4.25,8.34-8.23,17-11.92,25.98-1.3,3.16-.57,6.79,1.84,9.2l16,16-14.87,14.87c-3.31,3.31-3.31,8.66,0,11.97,1.65,1.65,3.82,2.48,5.99,2.48s4.33-.83,5.98-2.48l14.87-14.87,16,16c1.62,1.62,3.78,2.48,5.99,2.48,1.08,0,2.18-.21,3.22-.64,8.98-3.69,17.64-7.67,25.98-11.92l-12.71,65.32c-.71,3.65,1.05,7.35,4.34,9.09,1.25,.67,2.62,.99,3.97,.99,2.2,0,4.37-.86,5.99-2.49l57.72-57.91c1.19-1.19,1.99-2.71,2.31-4.36l12.44-63.92c15.26-15.44,29.07-33.45,41.05-53.58,9.76-16.39,18.33-34.21,25.5-52.96,12.21-31.97,16.06-55.43,16.23-56.41,.43-2.68-.45-5.41-2.37-7.33ZM51.41,147.75l36.41-36.29,39.17-7.63c-8.5,10.45-16.38,21.73-23.61,33.8l-51.97,10.12Zm155.86,83.16l-36.29,36.41,10.12-51.97c12.08-7.23,23.35-15.11,33.8-23.61l-7.63,39.17ZM286.42,60.59c-10.69,27.87-30.39,68.05-63.55,101.22-15.27,15.27-33.05,28.84-53.13,40.59-.36,.18-.71,.38-1.04,.61-10.75,6.23-22.15,11.94-34.17,17.11l-11.98-11.98,24.18-24.17c3.31-3.31,3.31-8.66,0-11.97-3.31-3.31-8.66-3.31-11.97,0l-24.18,24.17-11.98-11.98c5.17-12.03,10.88-23.43,17.12-34.18,.23-.33,.42-.67,.6-1.03,11.75-20.08,25.32-37.86,40.59-53.13,33.17-33.16,73.35-52.87,101.22-63.55,16.93-6.5,31.51-10.55,41.15-12.87-2.32,9.64-6.37,24.22-12.87,41.15Z"/></g></g></svg>