<?xml version="1.0" encoding="UTF-8"?><svg id="Layer_1" xmlns="http://www.w3.org/2000/svg" width="500" height="500" viewBox="0 0 500 500"><path d="M425.12,473.48h-102.95l-169.12-169.13,46.26-46.26c28.29,20.44,62.17,31.48,97.76,31.48,44.71,0,86.74-17.41,118.36-49.02,2.49-2.49,3.89-5.87,3.89-9.4s-1.4-6.9-3.89-9.39l-99.58-99.58,28.19-28.19c5.65,2.83,12.01,4.43,18.74,4.43,23.14,0,41.96-18.82,41.96-41.96s-18.82-41.97-41.96-41.97-41.96,18.82-41.96,41.97c0,6.73,1.61,13.09,4.43,18.74l-28.19,28.19L197.49,3.83c-2.49-2.49-5.87-3.89-9.4-3.89s-6.9,1.4-9.39,3.89c-31.62,31.61-49.03,73.65-49.03,118.36,0,30.88,8.31,60.48,23.86,86.26l-64.69,64.68c-9.03,6.84-14.88,17.68-14.88,29.86,0,15.73,9.76,29.23,23.53,34.77l63.03,135.71H74.88c-7.34,0-13.28,5.95-13.28,13.29s5.95,13.28,13.28,13.28h106.38s.06,0,.09,0c.04,0,.08,0,.12,0h243.64c7.34,0,13.28-5.95,13.28-13.28s-5.95-13.29-13.28-13.29ZM362.79,41.08c8.49,0,15.4,6.9,15.4,15.4s-6.9,15.39-15.4,15.39-15.39-6.9-15.39-15.39,6.91-15.4,15.39-15.4Zm-174.26-8.63l99.14,99.14s0,0,0,0h0l99.14,99.14c-25.19,20.91-56.6,32.28-89.74,32.28-37.62,0-72.98-14.64-99.58-41.24-26.6-26.59-41.25-61.96-41.25-99.57,0-33.15,11.38-64.56,32.29-89.75Zm-19.27,197.86c2.99,3.53,6.13,6.95,9.44,10.25,.1,.09,.2,.18,.29,.28l-38.52,38.51c-3.05-3.73-6.8-6.87-11.05-9.21l39.85-39.84Zm-57.83,83.59c-6.01,0-10.89-4.89-10.89-10.9s4.89-10.89,10.89-10.89,10.89,4.89,10.89,10.89-4.89,10.9-10.89,10.9Zm78.39,159.59l-63.27-136.22c4.84-2.15,9.15-5.28,12.66-9.16l145.38,145.38h-94.77Z"/></svg>