<?xml version="1.0" encoding="UTF-8"?><svg id="Layer_2" xmlns="http://www.w3.org/2000/svg" width="318.72" height="318.72" xmlns:xlink="http://www.w3.org/1999/xlink" viewBox="0 0 318.72 318.72"><defs><style>.cls-1{fill:url(#linear-gradient);}</style><linearGradient id="linear-gradient" x1="30.28" y1="273.96" x2="297.78" y2="36.46" gradientUnits="userSpaceOnUse"><stop offset="0" stop-color="#951b81"/><stop offset="1" stop-color="#29235c"/></linearGradient></defs><g id="Icons"><path class="cls-1" d="M318.69,253.23c-.21-2.49-1.51-4.76-3.55-6.19l-90.5-63.85c-3.36-2.38-7.95-1.98-10.86,.93l-8.84,8.85-13.86-13.85,59.27-59.27h0c6.87-6.87,10.65-16.01,10.65-25.73s-3.78-18.85-10.66-25.73c-14.15-14.15-37.14-14.19-51.33-.12-.04,.04-.08,.08-.12,.12l-59.27,59.27-13.85-13.85,8.84-8.85c2.91-2.91,3.31-7.5,.93-10.86L71.69,3.59c-1.44-2.04-3.71-3.34-6.19-3.55-2.49-.21-4.94,.68-6.71,2.45L2.48,58.79C.71,60.55-.18,63.01,.03,65.5c.21,2.49,1.51,4.75,3.55,6.19l90.5,63.85c1.47,1.04,3.18,1.55,4.88,1.55,2.18,0,4.35-.84,5.99-2.48l8.85-8.85,13.85,13.85-23.77,23.77s0,0,0,0c0,0,0,0,0,0l-29.42,29.43s-.08,.08-.11,.11c-14.07,14.2-14.03,37.19,.11,51.34,7.09,7.09,16.41,10.64,25.73,10.64,9.32,0,18.64-3.55,25.73-10.64,.02-.02,.03-.03,.05-.05l53.16-53.16,13.86,13.86-8.84,8.84c-2.92,2.91-3.31,7.5-.93,10.86l63.85,90.5c1.44,2.04,3.7,3.34,6.19,3.55,.24,.02,.48,.03,.72,.03,2.24,0,4.39-.88,5.99-2.48l56.31-56.31c1.76-1.77,2.66-4.22,2.45-6.71ZM21.55,63.65L63.65,21.55l16.51,23.4-35.21,35.2-23.4-16.51Zm76.46,53.95l-39.03-27.53,31.07-31.07,27.53,39.03-19.58,19.58Zm112.73-37.14s.07-.07,.1-.1c7.59-7.59,19.93-7.59,27.52,0,3.67,3.67,5.7,8.56,5.7,13.76s-2.03,10.08-5.7,13.76l-29.51,29.51-27.52-27.52,29.4-29.4ZM113.92,232.31s-.03,.02-.04,.04c-7.59,7.55-19.9,7.53-27.48-.04-7.59-7.59-7.59-19.93,0-27.52,.03-.03,.07-.07,.1-.1l23.35-23.35,27.52,27.52-23.45,23.45Zm35.42-35.42l-27.52-27.52,47.55-47.55,27.51,27.52-47.55,47.55Zm51.78,23.81l19.58-19.58,39.03,27.53-31.07,31.07-27.53-39.03Zm53.95,76.46l-16.51-23.4,35.2-35.2,23.4,16.51-42.09,42.09Z"/></g></svg>