<?xml version="1.0" encoding="UTF-8"?><svg id="Layer_2" xmlns="http://www.w3.org/2000/svg" width="240.08" height="318.65" xmlns:xlink="http://www.w3.org/1999/xlink" viewBox="0 0 240.08 318.65"><defs><style>.cls-1{fill:url(#linear-gradient);}</style><linearGradient id="linear-gradient" x1="4.45" y1="324.58" x2="281.95" y2="22.08" gradientUnits="userSpaceOnUse"><stop offset="0" stop-color="#951b81"/><stop offset="1" stop-color="#29235c"/></linearGradient></defs><g id="Icons"><path class="cls-1" d="M231.62,301.72h-65.6L58.26,193.96l29.48-29.47c18.02,13.02,39.61,20.06,62.29,20.06,28.49,0,55.27-11.09,75.41-31.23,1.59-1.59,2.48-3.74,2.48-5.99s-.89-4.39-2.48-5.98l-63.44-63.45,17.96-17.96c3.6,1.8,7.65,2.82,11.94,2.82,14.74,0,26.74-11.99,26.74-26.73s-11.99-26.74-26.74-26.74-26.74,11.99-26.74,26.74c0,4.29,1.02,8.34,2.82,11.94l-17.96,17.96L86.58,2.48c-1.59-1.59-3.74-2.48-5.99-2.48s-4.4,.89-5.98,2.48c-20.14,20.14-31.24,46.92-31.24,75.42,0,19.67,5.3,38.54,15.21,54.96l-41.22,41.21c-5.75,4.36-9.48,11.26-9.48,19.02,0,10.02,6.22,18.62,14.99,22.15l40.16,86.47H8.46c-4.68,0-8.46,3.79-8.46,8.47s3.79,8.46,8.46,8.46H76.25s.04,0,.06,0c.02,0,.05,0,.08,0H231.62c4.68,0,8.46-3.79,8.46-8.46s-3.79-8.47-8.46-8.47ZM191.9,26.21c5.41,0,9.81,4.4,9.81,9.81s-4.4,9.8-9.81,9.8-9.81-4.4-9.81-9.8,4.4-9.81,9.81-9.81Zm-111.03-5.5l63.16,63.16s0,0,0,0h0l63.16,63.17c-16.05,13.32-36.06,20.56-57.18,20.56-23.97,0-46.5-9.33-63.45-26.28-16.95-16.94-26.28-39.48-26.28-63.44,0-21.12,7.25-41.13,20.57-57.18Zm-12.28,126.06c1.91,2.25,3.91,4.43,6.01,6.53,.06,.06,.12,.12,.19,.18l-24.55,24.54c-1.94-2.38-4.33-4.38-7.04-5.87l25.39-25.38Zm-36.85,53.26c-3.83,0-6.94-3.12-6.94-6.94s3.11-6.94,6.94-6.94,6.94,3.12,6.94,6.94-3.12,6.94-6.94,6.94Zm49.95,101.68l-40.31-86.79c3.09-1.37,5.83-3.36,8.06-5.83l92.63,92.63h-60.38Z"/></g></svg>