<?xml version="1.0" encoding="UTF-8"?><svg id="Layer_2" xmlns="http://www.w3.org/2000/svg" width="318.73" height="318.73" xmlns:xlink="http://www.w3.org/1999/xlink" viewBox="0 0 318.73 318.73"><defs><style>.cls-1{fill:url(#linear-gradient-2);}.cls-2{fill:url(#linear-gradient-3);}.cls-3{fill:url(#linear-gradient);}</style><linearGradient id="linear-gradient" x1="-14.12" y1="330.21" x2="313.38" y2="7.71" gradientUnits="userSpaceOnUse"><stop offset="0" stop-color="#951b81"/><stop offset="1" stop-color="#29235c"/></linearGradient><linearGradient id="linear-gradient-2" x1="-14.12" y1="330.2" x2="313.38" y2="7.7" xlink:href="#linear-gradient"/><linearGradient id="linear-gradient-3" x1="-6.67" y1="337.77" x2="320.83" y2="15.27" xlink:href="#linear-gradient"/></defs><g id="Icons"><g><path class="cls-3" d="M159.36,91.92c-36.45,0-66.23,29.08-67.39,65.25-8.77,4.6-14.78,13.79-14.78,24.38,0,15.17,12.34,27.5,27.51,27.5,2.75,0,5.41-.41,7.92-1.17,12.13,11.7,28.6,18.92,46.74,18.92,37.19,0,67.45-30.25,67.45-67.45s-30.26-67.44-67.45-67.44Zm-65.24,89.63c0-5.83,4.75-10.58,10.58-10.58s10.58,4.75,10.58,10.58-4.75,10.58-10.58,10.58-10.58-4.75-10.58-10.58Zm65.24,28.33c-12.41,0-23.77-4.51-32.57-11.96,3.4-4.58,5.42-10.24,5.42-16.37,0-13.68-10.03-25.04-23.12-27.15,2.5-25.53,24.09-45.55,50.27-45.55,27.86,0,50.52,22.66,50.52,50.52s-22.66,50.52-50.52,50.52Z"/><path class="cls-1" d="M257.77,103c3.69-5,5.88-11.17,5.88-17.84,0-16.59-13.5-30.08-30.08-30.08-6.68,0-12.85,2.19-17.85,5.88-16.97-9.77-36.25-15-56.36-15-30.29,0-58.77,11.8-80.19,33.22-21.42,21.42-33.22,49.9-33.22,80.19s11.8,58.77,33.22,80.19c21.42,21.42,49.9,33.21,80.19,33.21s58.77-11.79,80.19-33.21c21.42-21.42,33.22-49.9,33.22-80.19,0-20.1-5.23-39.39-15-56.36Zm-11.05-17.84c0,7.26-5.9,13.16-13.16,13.16s-13.16-5.9-13.16-13.16,5.9-13.15,13.16-13.15,13.16,5.9,13.16,13.15Zm-19.14,142.43c-18.22,18.22-42.45,28.26-68.22,28.26s-50-10.04-68.22-28.26c-18.22-18.22-28.26-42.45-28.26-68.22s10.03-50,28.26-68.22c18.22-18.22,42.45-28.26,68.22-28.26,16.36,0,32.08,4.06,46.05,11.68-1.24,3.3-1.93,6.86-1.93,10.59,0,16.59,13.5,30.09,30.09,30.09,3.72,0,7.29-.68,10.59-1.93,7.62,13.97,11.68,29.69,11.68,46.04,0,25.77-10.03,50-28.26,68.22Z"/><path class="cls-2" d="M318.73,159.36c0-42.57-16.58-82.59-46.68-112.69C241.95,16.58,201.93,0,159.36,0S76.78,16.58,46.68,46.67C16.58,76.77,0,116.79,0,159.36s16.58,82.59,46.68,112.69c30.1,30.1,70.12,46.67,112.69,46.67,38.58,0,75.07-13.62,103.98-38.58,4.32,2.3,9.25,3.61,14.48,3.61,17.02,0,30.88-13.85,30.88-30.88,0-7.79-2.91-14.92-7.69-20.36,11.57-22.34,17.73-47.28,17.73-73.16ZM58.65,260.08c-26.9-26.9-41.72-62.67-41.72-100.72S31.75,85.55,58.65,58.64c26.9-26.9,62.67-41.72,100.72-41.72s73.82,14.82,100.72,41.72c26.9,26.9,41.72,62.67,41.72,100.72,0,22.58-5.24,44.35-15.1,63.95-2.81-.84-5.79-1.3-8.88-1.3-17.03,0-30.88,13.85-30.88,30.87,0,5.62,1.52,10.9,4.16,15.44-25.64,21.67-57.78,33.48-91.73,33.48-38.04,0-73.81-14.81-100.72-41.72Zm219.17,6.75c-7.69,0-13.95-6.25-13.95-13.95s6.26-13.95,13.95-13.95,13.95,6.25,13.95,13.95-6.26,13.95-13.95,13.95Z"/></g></g></svg>