<?xml version="1.0" encoding="UTF-8"?><svg id="Layer_1" xmlns="http://www.w3.org/2000/svg" width="500" height="500" viewBox="0 0 500 500"><path d="M250,144.14c-57.19,0-103.89,45.61-105.71,102.37-13.76,7.22-23.19,21.64-23.19,38.24,0,23.79,19.36,43.15,43.15,43.15,4.32,0,8.48-.64,12.42-1.83,19.03,18.35,44.87,29.68,73.33,29.68,58.34,0,105.81-47.46,105.81-105.81s-47.46-105.8-105.81-105.8Zm-102.34,140.61c0-9.15,7.45-16.6,16.6-16.6s16.6,7.45,16.6,16.6-7.45,16.59-16.6,16.59-16.6-7.45-16.6-16.59Zm102.34,44.44c-19.46,0-37.3-7.07-51.1-18.76,5.34-7.19,8.5-16.07,8.5-25.68,0-21.46-15.73-39.29-36.26-42.6,3.93-40.05,37.79-71.46,78.86-71.46,43.7,0,79.25,35.55,79.25,79.25s-35.55,79.25-79.25,79.25Z"/><path d="M404.38,161.52c5.79-7.84,9.22-17.52,9.22-27.99,0-26.02-21.17-47.19-47.19-47.19-10.47,0-20.16,3.43-28,9.23-26.62-15.32-56.87-23.53-88.41-23.53-47.52,0-92.19,18.51-125.79,52.11-33.6,33.6-52.11,78.28-52.11,125.79s18.51,92.19,52.11,125.8c33.6,33.6,78.28,52.1,125.79,52.1s92.2-18.5,125.8-52.1c33.6-33.6,52.11-78.28,52.11-125.8,0-31.54-8.21-61.79-23.52-88.42Zm-17.33-27.99c0,11.38-9.26,20.64-20.64,20.64s-20.64-9.26-20.64-20.64,9.26-20.64,20.64-20.64,20.64,9.25,20.64,20.64Zm-30.03,223.43c-28.59,28.58-66.59,44.33-107.02,44.33s-78.43-15.75-107.02-44.33c-28.59-28.59-44.33-66.6-44.33-107.02s15.74-78.43,44.33-107.02c28.59-28.59,66.59-44.33,107.02-44.33,25.66,0,50.33,6.37,72.24,18.33-1.95,5.17-3.03,10.76-3.03,16.61,0,26.03,21.17,47.2,47.2,47.2,5.84,0,11.44-1.07,16.61-3.03,11.95,21.91,18.33,46.58,18.33,72.23,0,40.43-15.74,78.44-44.33,107.02Z"/><path d="M500,249.94c0-66.78-26.01-129.56-73.22-176.78C379.56,25.94,316.78-.06,250-.06S120.44,25.94,73.22,73.16C26,120.38,0,183.16,0,249.94s26.01,129.56,73.22,176.78c47.22,47.22,110,73.22,176.78,73.22,60.53,0,117.77-21.37,163.12-60.53,6.78,3.61,14.51,5.67,22.71,5.67,26.71,0,48.44-21.73,48.44-48.44,0-12.23-4.57-23.4-12.07-31.93,18.16-35.05,27.81-74.16,27.81-114.77ZM92,407.94c-42.2-42.2-65.45-98.31-65.45-158s23.24-115.79,65.45-158C134.2,49.74,190.32,26.49,250,26.49s115.8,23.25,158,65.45c42.2,42.21,65.44,98.31,65.44,158,0,35.43-8.22,69.57-23.69,100.31-4.42-1.33-9.09-2.05-13.93-2.05-26.71,0-48.44,21.73-48.44,48.43,0,8.82,2.39,17.1,6.52,24.23-40.23,33.99-90.64,52.52-143.91,52.52-59.68,0-115.79-23.24-158-65.45Zm343.82,10.59c-12.07,0-21.88-9.81-21.88-21.88s9.82-21.88,21.88-21.88,21.88,9.81,21.88,21.88-9.82,21.88-21.88,21.88Z"/></svg>