<?xml version="1.0" encoding="UTF-8"?><svg id="Layer_2" xmlns="http://www.w3.org/2000/svg" width="278.3" height="318.73" xmlns:xlink="http://www.w3.org/1999/xlink" viewBox="0 0 278.3 318.73"><defs><style>.cls-1{fill:url(#linear-gradient-2);}.cls-2{fill:url(#linear-gradient-6);}.cls-3{fill:url(#linear-gradient-5);}.cls-4{fill:url(#linear-gradient-7);}.cls-5{fill:url(#linear-gradient-3);}.cls-6{fill:url(#linear-gradient);}.cls-7{fill:url(#linear-gradient-4);}</style><linearGradient id="linear-gradient" x1="-1.8" y1="318.69" x2="285.7" y2="-6.31" gradientUnits="userSpaceOnUse"><stop offset="0" stop-color="#951b81"/><stop offset="1" stop-color="#29235c"/></linearGradient><linearGradient id="linear-gradient-2" x1="-52.43" y1="273.91" x2="235.07" y2="-51.09" xlink:href="#linear-gradient"/><linearGradient id="linear-gradient-3" x1="-88.3" y1="242.18" x2="199.2" y2="-82.82" xlink:href="#linear-gradient"/><linearGradient id="linear-gradient-4" x1="-23.61" y1="299.41" x2="263.89" y2="-25.59" xlink:href="#linear-gradient"/><linearGradient id="linear-gradient-5" x1="48.82" y1="363.48" x2="336.32" y2="38.48" xlink:href="#linear-gradient"/><linearGradient id="linear-gradient-6" x1="84.69" y1="395.21" x2="372.19" y2="70.21" xlink:href="#linear-gradient"/><linearGradient id="linear-gradient-7" x1="20.01" y1="337.99" x2="307.51" y2="12.99" xlink:href="#linear-gradient"/></defs><g id="Icons"><g><path class="cls-6" d="M139.14,78.75c-44.45,0-80.62,36.16-80.62,80.62s36.16,80.62,80.62,80.62,80.62-36.17,80.62-80.62-36.17-80.62-80.62-80.62Zm0,144.31c-35.12,0-63.69-28.57-63.69-63.69s28.57-63.69,63.69-63.69,63.69,28.57,63.69,63.69-28.57,63.69-63.69,63.69Z"/><path class="cls-1" d="M180.44,63.07L146.48,4.23c-1.51-2.62-4.31-4.23-7.33-4.23s-5.82,1.61-7.33,4.23l-34.16,59.16c-1.78,3.09-1.44,6.96,.85,9.68,1.64,1.95,4.03,3.01,6.48,3.01,.98,0,1.96-.17,2.92-.52,9.97-3.66,20.48-5.52,31.24-5.52s21.27,1.86,31.24,5.52c1.04,.39,2.12,.55,3.19,.52,4.55-.15,8.2-3.88,8.2-8.46,0-1.67-.49-3.24-1.33-4.56Zm-41.3-9.95c-5.65,0-11.25,.43-16.75,1.29l16.75-29.02,16.76,29.02c-5.51-.86-11.1-1.29-16.76-1.29Z"/><path class="cls-5" d="M76.4,75.45H8.46c-3.02,0-5.82,1.61-7.33,4.23-1.51,2.62-1.51,5.84,0,8.47l34.16,59.16c1.78,3.09,5.3,4.73,8.81,4.1,2.5-.44,4.62-1.98,5.85-4.1,.49-.84,.84-1.78,1.01-2.79,1.81-10.46,5.46-20.49,10.83-29.81,5.38-9.32,12.24-17.49,20.4-24.29,.85-.71,1.54-1.56,2.05-2.51,2.15-4.01,.74-9.03-3.23-11.33-1.46-.84-3.05-1.2-4.61-1.12Zm-29.27,30.79c-2.83,4.9-5.25,9.96-7.26,15.16l-16.76-29.02H56.63c-3.5,4.34-6.67,8.97-9.5,13.86Z"/><path class="cls-7" d="M35.11,171.74L1.14,230.59c-1.51,2.62-1.51,5.84,0,8.46,1.51,2.62,4.31,4.23,7.33,4.23H76.78c3.56,0,6.74-2.23,7.96-5.59,.87-2.39,.6-4.99-.63-7.11-.49-.84-1.13-1.62-1.91-2.27-8.16-6.8-15.02-14.98-20.4-24.29-5.38-9.32-9.02-19.35-10.83-29.81-.19-1.1-.59-2.12-1.15-3.03-2.4-3.87-7.46-5.16-11.43-2.87-1.45,.83-2.56,2.04-3.28,3.42Zm12.03,40.75c2.82,4.89,6,9.52,9.5,13.86H23.13l16.76-29.02c2.01,5.21,4.43,10.26,7.26,15.16Z"/><path class="cls-3" d="M97.85,255.65l33.97,58.84c1.51,2.62,4.31,4.23,7.33,4.23s5.82-1.61,7.33-4.23l34.16-59.16c1.78-3.09,1.44-6.96-.85-9.68-1.64-1.95-4.02-3.01-6.47-3.01-.98,0-1.96,.17-2.92,.52-9.97,3.66-20.48,5.52-31.24,5.52s-21.26-1.86-31.24-5.52c-1.04-.39-2.12-.55-3.2-.52-4.55,.14-8.19,3.88-8.19,8.46,0,1.67,.49,3.24,1.33,4.55Zm41.3,9.95c5.65,0,11.25-.43,16.75-1.29l-16.75,29.02-16.75-29.02c5.51,.86,11.1,1.29,16.75,1.29Z"/><path class="cls-2" d="M201.9,243.27h67.93c3.03,0,5.82-1.61,7.33-4.23,1.51-2.62,1.51-5.84,0-8.46l-34.16-59.16c-1.78-3.09-5.3-4.73-8.81-4.1-2.51,.45-4.62,1.98-5.85,4.1-.49,.84-.84,1.79-1.01,2.79-1.81,10.46-5.45,20.5-10.83,29.81-5.38,9.32-12.24,17.49-20.4,24.29-.85,.71-1.54,1.57-2.05,2.51-2.15,4.01-.74,9.03,3.23,11.32,1.45,.84,3.05,1.2,4.61,1.13Zm29.27-30.79c2.82-4.89,5.24-9.96,7.26-15.16l16.75,29.02h-33.51c3.5-4.34,6.67-8.97,9.5-13.86Z"/><path class="cls-4" d="M243.19,146.98l33.97-58.84c1.51-2.62,1.51-5.84,0-8.46-1.51-2.62-4.31-4.23-7.33-4.23h-68.32c-3.56,0-6.74,2.23-7.95,5.58-.87,2.4-.6,5,.62,7.12,.49,.84,1.13,1.62,1.91,2.27,8.16,6.8,15.02,14.98,20.4,24.29,5.38,9.31,9.02,19.34,10.84,29.81,.19,1.1,.59,2.11,1.15,3.03,2.4,3.87,7.45,5.16,11.42,2.87,1.45-.84,2.56-2.04,3.28-3.43Zm-12.03-40.74c-2.83-4.89-6-9.52-9.5-13.86h33.51l-16.75,29.02c-2.01-5.2-4.43-10.26-7.26-15.16Z"/></g></g></svg>