<?xml version="1.0" encoding="UTF-8"?><svg id="Layer_2" xmlns="http://www.w3.org/2000/svg" width="318.73" height="308.28" xmlns:xlink="http://www.w3.org/1999/xlink" viewBox="0 0 318.73 308.28"><defs><style>.cls-1{fill:url(#linear-gradient);}</style><linearGradient id="linear-gradient" x1="4.47" y1="334.77" x2="349.47" y2="7.27" gradientUnits="userSpaceOnUse"><stop offset="0" stop-color="#951b81"/><stop offset="1" stop-color="#29235c"/></linearGradient></defs><g id="Icons"><path class="cls-1" d="M317.92,61.69l-26.8-56.84c-1.99-4.23-7.04-6.04-11.27-4.05L138.3,67.55c-2.03,.96-3.6,2.68-4.36,4.8-.76,2.11-.65,4.44,.31,6.47l.12,.24-66.81,31.5c-2.03,.96-3.6,2.68-4.36,4.8-.57,1.58-.65,3.29-.25,4.9L4.86,147.66c-4.23,1.99-6.04,7.04-4.05,11.27l13.54,28.72c1.45,3.06,4.49,4.86,7.66,4.86,1.21,0,2.44-.26,3.6-.81l58.11-27.4c.99,1.33,2.36,2.36,3.94,2.93,.93,.33,1.89,.5,2.86,.5,1.24,0,2.47-.27,3.61-.81l23.28-10.98v1.72c0,4.67,3.79,8.46,8.46,8.46h21.62l-62.73,130.02c-2.03,4.21-.27,9.27,3.95,11.3,1.19,.57,2.44,.84,3.67,.84,3.14,0,6.17-1.76,7.63-4.79l50.89-105.47v101.8c0,4.68,3.79,8.46,8.46,8.46s8.46-3.79,8.46-8.46v-101.8l50.89,105.47c1.46,3.02,4.48,4.79,7.63,4.79,1.23,0,2.49-.27,3.67-.84,4.21-2.03,5.98-7.09,3.95-11.3l-62.73-130.02h21.62c4.68,0,8.47-3.79,8.47-8.46v-31.63l112.56-53.07c2.03-.96,3.6-2.68,4.36-4.79,.76-2.11,.65-4.44-.31-6.47ZM26.05,172.78l-6.32-13.41,50.3-23.72,6.32,13.42-50.3,23.72Zm68.52-24.78l-12.13-25.73,59.15-27.89,12.13,25.72-59.15,27.89Zm89.81,1.2h-50.04v-1.24l26.6-12.54,.12,.25c1.45,3.06,4.49,4.86,7.66,4.86,1.21,0,2.44-.26,3.6-.81l12.07-5.69v15.18Zm-11.63-28.41l-.11-.23s0,0,0-.01l-19.35-41.04h0s-.12-.25-.12-.25l126.24-59.52,19.58,41.53-126.24,59.53Z"/></g></svg>