<?xml version="1.0" encoding="UTF-8"?><svg id="Layer_2" xmlns="http://www.w3.org/2000/svg" width="318.77" height="318.73" xmlns:xlink="http://www.w3.org/1999/xlink" viewBox="0 0 318.77 318.73"><defs><style>.cls-1{fill:url(#linear-gradient-2);}.cls-2{fill:url(#linear-gradient-6);}.cls-3{fill:url(#linear-gradient-5);}.cls-4{fill:url(#linear-gradient-7);}.cls-5{fill:url(#linear-gradient-3);}.cls-6{fill:url(#linear-gradient);}.cls-7{fill:url(#linear-gradient-4);}.cls-8{fill:url(#linear-gradient-8);}</style><linearGradient id="linear-gradient" x1="-14.6" y1="317.28" x2="307.9" y2="-15.22" gradientUnits="userSpaceOnUse"><stop offset="0" stop-color="#951b81"/><stop offset="1" stop-color="#29235c"/></linearGradient><linearGradient id="linear-gradient-2" x1="23.76" y1="354.48" x2="346.26" y2="21.98" xlink:href="#linear-gradient"/><linearGradient id="linear-gradient-3" x1="-13.36" y1="318.48" x2="309.14" y2="-14.03" xlink:href="#linear-gradient"/><linearGradient id="linear-gradient-4" x1="48.27" y1="378.24" x2="370.75" y2="45.75" xlink:href="#linear-gradient"/><linearGradient id="linear-gradient-5" x1="-59.84" y1="273.4" x2="262.67" y2="-59.1" xlink:href="#linear-gradient"/><linearGradient id="linear-gradient-6" x1="11.11" y1="342.21" x2="333.61" y2="9.71" xlink:href="#linear-gradient"/><linearGradient id="linear-gradient-7" x1="95.49" y1="424.05" x2="417.99" y2="91.55" xlink:href="#linear-gradient"/><linearGradient id="linear-gradient-8" x1="53.3" y1="383.14" x2="375.8" y2="50.63" xlink:href="#linear-gradient"/></defs><g id="Icons"><g><path class="cls-6" d="M232.82,67.88C229.86,29.96,198.06,0,159.38,0S88.91,29.96,85.95,67.88C32.75,81.04,0,107.33,0,137.32c0,11.5,4.68,22.78,13.91,33.5,8.39,9.75,20.13,18.55,34.88,26.16,30.4,15.68,69.68,24.31,110.6,24.31s80.2-8.63,110.6-24.31c14.76-7.61,26.49-16.41,34.88-26.16,9.23-10.73,13.91-22,13.91-33.5,0-30-32.75-56.28-85.96-69.44Zm-130.16,6.65h0v-.87c0-31.28,25.45-56.73,56.73-56.73s56.73,25.45,56.73,56.73v27.33c-17.91,5.15-36.96,7.75-56.73,7.75s-38.82-2.6-56.73-7.75v-26.46Zm189.38,85.26c-6.87,7.98-17.17,15.64-29.8,22.16-28.05,14.46-64.57,22.43-102.84,22.43s-74.79-7.97-102.84-22.43c-12.64-6.51-22.94-14.17-29.81-22.16-6.51-7.57-9.81-15.13-9.81-22.47,0-13.28,11.04-23.98,20.31-30.62,12.2-8.75,28.82-16.02,48.49-21.29v21.84c0,3.67,2.37,6.92,5.86,8.05,21.27,6.88,44.08,10.37,67.8,10.37s46.53-3.49,67.8-10.37c3.5-1.13,5.86-4.38,5.86-8.05v-21.84c19.67,5.27,36.29,12.54,48.49,21.29,9.26,6.64,20.31,17.34,20.31,30.62,0,7.34-3.3,14.9-9.81,22.47Z"/><path class="cls-1" d="M210.25,166.07c-11.12,2.47-22.6,4.09-34.11,4.83-5.51,.35-9.68,5.11-9.33,10.62,.34,5.29,4.74,9.35,9.96,9.35,.21,0,.43,0,.65-.02,12.53-.81,25.03-2.58,37.15-5.27,5.39-1.19,8.79-6.53,7.59-11.91-1.19-5.39-6.53-8.79-11.91-7.59Z"/><path class="cls-5" d="M141.55,170.66c-12.1-.91-23.18-2.64-33.88-5.28-5.35-1.32-10.77,1.94-12.09,7.3-1.33,5.36,1.94,10.78,7.3,12.1,11.63,2.88,24.14,4.83,37.18,5.81,.25,.01,.51,.03,.76,.03,5.18,0,9.56-4,9.96-9.25,.41-5.5-3.72-10.3-9.22-10.71Z"/><path class="cls-7" d="M273.37,140.45c-9.05,5.87-19.23,11.09-30.28,15.52-5.12,2.06-7.61,7.87-5.56,12.99,1.57,3.9,5.32,6.27,9.28,6.27,1.24,0,2.5-.23,3.72-.72,12.25-4.91,23.6-10.74,33.73-17.31,4.62-3,5.94-9.19,2.93-13.82-3-4.63-9.19-5.94-13.82-2.94Z"/><path class="cls-3" d="M75.6,154.04c-11.34-5.29-21.22-11.29-30.37-16.98-4.69-2.92-10.84-1.48-13.76,3.21s-1.48,10.84,3.21,13.76c9.66,6.01,20.13,12.36,32.47,18.12,1.37,.64,2.8,.94,4.22,.94,3.76,0,7.36-2.13,9.06-5.77,2.33-5,.18-10.94-4.83-13.27Z"/><path class="cls-2" d="M97.71,229.56c-4.25-1.94-9.27-.07-11.22,4.18l-33.37,73c-1.94,4.25-.07,9.27,4.18,11.22,1.14,.52,2.34,.77,3.52,.77,3.21,0,6.28-1.84,7.7-4.95l33.37-73c1.94-4.25,.07-9.28-4.18-11.22Z"/><path class="cls-4" d="M232.28,233.74c-1.94-4.25-6.96-6.12-11.22-4.18-4.25,1.94-6.12,6.97-4.18,11.22l33.37,73c1.42,3.11,4.49,4.95,7.71,4.95,1.18,0,2.37-.25,3.51-.77,4.25-1.94,6.12-6.96,4.18-11.22l-33.37-73Z"/><path class="cls-8" d="M159.38,228.8c-4.67,0-8.46,3.79-8.46,8.46v73c0,4.67,3.79,8.46,8.46,8.46s8.47-3.79,8.47-8.46v-73c0-4.67-3.79-8.46-8.47-8.46Z"/></g></g></svg>