<?xml version="1.0" encoding="UTF-8"?><svg xmlns="http://www.w3.org/2000/svg" width="436.52" height="336.63" xmlns:xlink="http://www.w3.org/1999/xlink" viewBox="0 0 436.52 336.63"><defs><style>.cls-1{fill:url(#radial-gradient-3);}.cls-1,.cls-2,.cls-3,.cls-4,.cls-5,.cls-6,.cls-7,.cls-8,.cls-9,.cls-10,.cls-11,.cls-12,.cls-13,.cls-14,.cls-15,.cls-16,.cls-17,.cls-18{mix-blend-mode:screen;}.cls-19{fill:url(#_Áåçûìÿííûé_ãðàäèåíò_84);}.cls-19,.cls-20,.cls-2,.cls-21,.cls-22,.cls-23,.cls-24,.cls-25,.cls-26,.cls-27,.cls-28,.cls-29,.cls-30,.cls-31,.cls-32,.cls-33,.cls-34,.cls-35,.cls-4,.cls-36,.cls-37,.cls-38,.cls-6,.cls-7,.cls-39,.cls-40,.cls-8,.cls-41,.cls-9,.cls-42,.cls-43,.cls-44,.cls-45,.cls-46,.cls-10,.cls-47,.cls-48,.cls-49,.cls-50,.cls-51,.cls-52,.cls-53,.cls-54,.cls-55,.cls-56,.cls-57,.cls-58,.cls-59,.cls-60,.cls-61,.cls-62,.cls-63,.cls-64,.cls-65,.cls-66,.cls-67,.cls-68,.cls-69,.cls-70,.cls-13,.cls-71,.cls-72,.cls-73,.cls-74,.cls-75,.cls-76,.cls-77,.cls-78,.cls-79,.cls-80,.cls-81,.cls-17,.cls-82,.cls-83,.cls-84,.cls-85,.cls-86,.cls-87,.cls-88,.cls-89,.cls-90,.cls-91,.cls-92,.cls-93,.cls-94,.cls-95,.cls-96,.cls-97,.cls-98,.cls-99,.cls-100,.cls-101,.cls-102{fill-rule:evenodd;}.cls-20{fill:url(#_Áåçûìÿííûé_ãðàäèåíò_81-3);}.cls-2{fill:url(#_Áåçûìÿííûé_ãðàäèåíò_206-2);}.cls-3{fill:url(#radial-gradient);}.cls-21{fill:url(#_Áåçûìÿííûé_ãðàäèåíò_119-2);}.cls-22,.cls-25,.cls-37,.cls-69,.cls-74,.cls-75,.cls-82{mix-blend-mode:soft-light;}.cls-22,.cls-103,.cls-68,.cls-69{opacity:.2;}.cls-22,.cls-37{fill:#ecdedd;}.cls-104{fill:url(#_Áåçûìÿííûé_ãðàäèåíò_133);}.cls-23{fill:url(#_Áåçûìÿííûé_ãðàäèåíò_2-9);}.cls-105{fill:url(#_Áåçûìÿííûé_ãðàäèåíò_133-3);}.cls-24{fill:url(#_Áåçûìÿííûé_ãðàäèåíò_114);}.cls-25{opacity:.91;}.cls-25,.cls-75,.cls-82{fill:#ecaba4;}.cls-26{fill:#fff;}.cls-27{fill:url(#_Áåçûìÿííûé_ãðàäèåíò_2-2);}.cls-28{fill:url(#_Áåçûìÿííûé_ãðàäèåíò_115-3);}.cls-29{fill:#ff6890;}.cls-30{fill:url(#_Áåçûìÿííûé_ãðàäèåíò_80-2);}.cls-31{fill:#2d153d;}.cls-32,.cls-106{fill:#66619c;}.cls-33{fill:#220816;}.cls-34,.cls-37,.cls-7,.cls-40,.cls-9,.cls-10,.cls-48,.cls-49,.cls-13,.cls-75,.cls-86{opacity:.5;}.cls-34,.cls-54{fill:#1d0c27;}.cls-107{isolation:isolate;}.cls-35{fill:url(#_Áåçûìÿííûé_ãðàäèåíò_115-12);}.cls-4{fill:url(#_Áåçûìÿííûé_ãðàäèåíò_206);}.cls-36{fill:url(#_Áåçûìÿííûé_ãðàäèåíò_115-15);}.cls-5{fill:url(#radial-gradient-5);}.cls-38{fill:url(#_Áåçûìÿííûé_ãðàäèåíò_2-5);}.cls-6{fill:url(#_Áåçûìÿííûé_ãðàäèåíò_224-2);}.cls-7{fill:url(#_Áåçûìÿííûé_ãðàäèåíò_130-3);}.cls-39{fill:url(#_Áåçûìÿííûé_ãðàäèåíò_80-8);}.cls-40,.cls-46,.cls-48,.cls-49,.cls-68,.cls-86{mix-blend-mode:multiply;}.cls-40,.cls-46,.cls-68,.cls-69{fill:#ae9aff;}.cls-8{fill:url(#_Áåçûìÿííûé_ãðàäèåíò_206-3);}.cls-41{fill:url(#_Áåçûìÿííûé_ãðàäèåíò_122);}.cls-9{fill:url(#_Áåçûìÿííûé_ãðàäèåíò_130);}.cls-42{fill:url(#_Áåçûìÿííûé_ãðàäèåíò_115-9);}.cls-43{fill:url(#_Áåçûìÿííûé_ãðàäèåíò_80-6);}.cls-44{fill:url(#_Áåçûìÿííûé_ãðàäèåíò_115-6);}.cls-45{fill:#402f65;}.cls-46{opacity:.36;}.cls-10{fill:url(#_Áåçûìÿííûé_ãðàäèåíò_130-2);}.cls-47{fill:url(#_Áåçûìÿííûé_ãðàäèåíò_119-4);}.cls-48{fill:#b3a9be;}.cls-49{fill:#ae799a;}.cls-50{fill:url(#_Áåçûìÿííûé_ãðàäèåíò_119-3);}.cls-11{fill:url(#_Áåçûìÿííûé_ãðàäèåíò_184);}.cls-51{fill:#401738;}.cls-52{fill:url(#_Áåçûìÿííûé_ãðàäèåíò_115-7);}.cls-53{fill:url(#_Áåçûìÿííûé_ãðàäèåíò_84-2);}.cls-54{opacity:.6;}.cls-55{fill:url(#_Áåçûìÿííûé_ãðàäèåíò_2-6);}.cls-56{fill:url(#_Áåçûìÿííûé_ãðàäèåíò_115-16);}.cls-57{fill:url(#_Áåçûìÿííûé_ãðàäèåíò_80-5);}.cls-58{fill:url(#_Áåçûìÿííûé_ãðàäèåíò_2-7);}.cls-59{fill:#47fff2;}.cls-60{fill:url(#_Áåçûìÿííûé_ãðàäèåíò_115-5);}.cls-61,.cls-108{fill:#2a102c;}.cls-62{fill:url(#_Áåçûìÿííûé_ãðàäèåíò_2-3);}.cls-63{fill:#db9f9c;}.cls-64{fill:url(#_Áåçûìÿííûé_ãðàäèåíò_81);}.cls-12{fill:url(#_Áåçûìÿííûé_ãðàäèåíò_184-2);}.cls-65{fill:url(#_Áåçûìÿííûé_ãðàäèåíò_115-14);}.cls-66{fill:url(#_Áåçûìÿííûé_ãðàäèåíò_115-4);}.cls-67{fill:#48163a;}.cls-70{fill:#479cf2;}.cls-13{fill:url(#_Áåçûìÿííûé_ãðàäèåíò_130-4);}.cls-71{fill:url(#_Áåçûìÿííûé_ãðàäèåíò_133-4);}.cls-72{fill:url(#_Áåçûìÿííûé_ãðàäèåíò_122-4);}.cls-73{fill:url(#_Áåçûìÿííûé_ãðàäèåíò_80-3);}.cls-74{fill:#f4ceca;}.cls-76{fill:url(#_Áåçûìÿííûé_ãðàäèåíò_115-2);}.cls-109{fill:#471737;}.cls-14{fill:url(#_Áåçûìÿííûé_ãðàäèåíò_184-3);}.cls-77{fill:url(#_Áåçûìÿííûé_ãðàäèåíò_80);}.cls-78{fill:url(#_Áåçûìÿííûé_ãðàäèåíò_122-2);}.cls-79{fill:url(#_Áåçûìÿííûé_ãðàäèåíò_80-4);}.cls-80{fill:url(#_Áåçûìÿííûé_ãðàäèåíò_115-10);}.cls-15{fill:url(#radial-gradient-2);}.cls-16{fill:url(#radial-gradient-4);}.cls-81{fill:url(#_Áåçûìÿííûé_ãðàäèåíò_115-11);}.cls-17{fill:url(#_Áåçûìÿííûé_ãðàäèåíò_224);}.cls-83{fill:url(#_Áåçûìÿííûé_ãðàäèåíò_2-8);}.cls-18{fill:url(#radial-gradient-6);}.cls-84{fill:url(#_Áåçûìÿííûé_ãðàäèåíò_2-4);}.cls-85{fill:#624e8f;}.cls-86{fill:#68134a;}.cls-87{fill:url(#_Áåçûìÿííûé_ãðàäèåíò_80-7);}.cls-88{fill:#331732;}.cls-89{fill:#160122;}.cls-90{fill:url(#_Áåçûìÿííûé_ãðàäèåíò_115);}.cls-91{fill:url(#_Áåçûìÿííûé_ãðàäèåíò_115-8);}.cls-92{fill:url(#_Áåçûìÿííûé_ãðàäèåíò_80-9);}.cls-93{fill:url(#_Áåçûìÿííûé_ãðàäèåíò_122-3);}.cls-94{fill:#a45754;}.cls-95{fill:url(#_Áåçûìÿííûé_ãðàäèåíò_81-2);}.cls-96{fill:#69264d;}.cls-97{fill:url(#_Áåçûìÿííûé_ãðàäèåíò_133-2);}.cls-98{fill:#ff9390;}.cls-99{fill:url(#_Áåçûìÿííûé_ãðàäèåíò_2-10);}.cls-100{fill:url(#_Áåçûìÿííûé_ãðàäèåíò_119);}.cls-101{fill:url(#_Áåçûìÿííûé_ãðàäèåíò_2);}.cls-102{fill:url(#_Áåçûìÿííûé_ãðàäèåíò_115-13);}</style><linearGradient id="_Áåçûìÿííûé_ãðàäèåíò_114" x1="311.68" y1="303.28" x2="311.68" y2="117.35" gradientUnits="userSpaceOnUse"><stop offset="0" stop-color="#733152"/><stop offset="1" stop-color="#4f1d4f"/></linearGradient><linearGradient id="_Áåçûìÿííûé_ãðàäèåíò_84" x1="93.43" y1="336.63" x2="93.43" y2="33.16" gradientUnits="userSpaceOnUse"><stop offset="0" stop-color="#5c214a"/><stop offset="1" stop-color="#4f1d4f"/></linearGradient><linearGradient id="_Áåçûìÿííûé_ãðàäèåíò_84-2" x1="208.06" y1="331.7" x2="208.06" y2="0" xlink:href="#_Áåçûìÿííûé_ãðàäèåíò_84"/><radialGradient id="radial-gradient" cx="417.57" cy="-534.46" fx="417.57" fy="-534.46" r="49.39" gradientTransform="translate(-461.89 472.51) scale(1.62 .64)" gradientUnits="userSpaceOnUse"><stop offset="0" stop-color="#3300b3"/><stop offset=".23" stop-color="#3300b3" stop-opacity=".69"/><stop offset=".49" stop-color="#3300b3" stop-opacity=".4"/><stop offset=".71" stop-color="#3300b3" stop-opacity=".18"/><stop offset=".89" stop-color="#3300b3" stop-opacity=".05"/><stop offset="1" stop-color="#3300b3" stop-opacity="0"/></radialGradient><radialGradient id="radial-gradient-2" cx="417.57" cy="-534.46" fx="417.57" fy="-534.46" r="28.75" xlink:href="#radial-gradient"/><radialGradient id="radial-gradient-3" cx="646.71" cy="-3529.86" fx="646.71" fy="-3529.86" r="58.34" gradientTransform="translate(-2201.19 992.96) scale(3.74 .24)" gradientUnits="userSpaceOnUse"><stop offset="0" stop-color="#1f29c9"/><stop offset=".03" stop-color="#1f29c9" stop-opacity=".96"/><stop offset=".29" stop-color="#1f29c9" stop-opacity=".62"/><stop offset=".53" stop-color="#1f29c9" stop-opacity=".35"/><stop offset=".74" stop-color="#1f29c9" stop-opacity=".16"/><stop offset=".9" stop-color="#1f29c9" stop-opacity=".04"/><stop offset="1" stop-color="#1f29c9" stop-opacity="0"/></radialGradient><radialGradient id="radial-gradient-4" cx="646.71" fx="646.71" r="29.53" gradientTransform="translate(-3342.17 992.96) scale(5.51 .24)" xlink:href="#radial-gradient-3"/><radialGradient id="radial-gradient-5" cx="676.2" cy="-4593.93" fx="676.2" fy="-4593.93" r="17.24" gradientTransform="translate(-5162.81 1050.03) scale(7.96 .2)" xlink:href="#radial-gradient-3"/><radialGradient id="radial-gradient-6" cx="120.07" cy="316.4" fx="120.07" fy="316.4" r="14.08" gradientTransform="translate(142.7 -319.03) scale(.82 1.27)" xlink:href="#radial-gradient"/><linearGradient id="_Áåçûìÿííûé_ãðàäèåíò_80" x1="313.32" y1="328.65" x2="313.32" y2="328.64" gradientUnits="userSpaceOnUse"><stop offset="0" stop-color="#220936"/><stop offset="1" stop-color="#593155"/></linearGradient><linearGradient id="_Áåçûìÿííûé_ãðàäèåíò_80-2" x1="308.78" y1="330.04" x2="308.78" y2="298.67" xlink:href="#_Áåçûìÿííûé_ãðàäèåíò_80"/><linearGradient id="_Áåçûìÿííûé_ãðàäèåíò_133" x1="308.79" y1="325.27" x2="308.79" y2="303.44" gradientUnits="userSpaceOnUse"><stop offset="0" stop-color="#220e38"/><stop offset="1" stop-color="#220936"/></linearGradient><linearGradient id="_Áåçûìÿííûé_ãðàäèåíò_2" x1="293.2" y1="301.18" x2="306.97" y2="301.18" gradientUnits="userSpaceOnUse"><stop offset="0" stop-color="#593155"/><stop offset="1" stop-color="#220936"/></linearGradient><linearGradient id="_Áåçûìÿííûé_ãðàäèåíò_119" x1="312.73" y1="305.15" x2="312.73" y2="299.75" gradientUnits="userSpaceOnUse"><stop offset="0" stop-color="#220936"/><stop offset="1" stop-color="#402249"/></linearGradient><linearGradient id="_Áåçûìÿííûé_ãðàäèåíò_115" x1="314.47" y1="307.87" x2="318.92" y2="307.87" gradientUnits="userSpaceOnUse"><stop offset="0" stop-color="#220936"/><stop offset="1" stop-color="#250e36"/></linearGradient><linearGradient id="_Áåçûìÿííûé_ãðàäèåíò_115-2" x1="311.13" y1="325.92" x2="315.55" y2="325.92" xlink:href="#_Áåçûìÿííûé_ãðàäèåíò_115"/><linearGradient id="_Áåçûìÿííûé_ãðàäèåíò_115-3" y1="320.64" x2="318.37" y2="320.64" xlink:href="#_Áåçûìÿííûé_ãðàäèåíò_115"/><linearGradient id="_Áåçûìÿííûé_ãðàäèåíò_115-4" x1="315.89" y1="314.37" x2="319.77" y2="314.37" xlink:href="#_Áåçûìÿííûé_ãðàäèåíò_115"/><linearGradient id="_Áåçûìÿííûé_ãðàäèåíò_122" x1="308.79" y1="324.49" x2="308.79" y2="304.21" gradientUnits="userSpaceOnUse"><stop offset="0" stop-color="#b9abb9"/><stop offset="1" stop-color="#666d9a"/></linearGradient><linearGradient id="_Áåçûìÿííûé_ãðàäèåíò_2-2" x1="304.94" y1="319.47" x2="304.94" y2="309.58" xlink:href="#_Áåçûìÿííûé_ãðàäèåíò_2"/><linearGradient id="_Áåçûìÿííûé_ãðàäèåíò_130" x1="306.53" y1="323.31" x2="309.08" y2="318.89" gradientUnits="userSpaceOnUse"><stop offset="0" stop-color="#fff"/><stop offset="1" stop-color="#000"/></linearGradient><linearGradient id="_Áåçûìÿííûé_ãðàäèåíò_81" x1="310.18" y1="319.33" x2="310.18" y2="309.39" gradientUnits="userSpaceOnUse"><stop offset="0" stop-color="#ffa770"/><stop offset="1" stop-color="#e58b95"/></linearGradient><linearGradient id="_Áåçûìÿííûé_ãðàäèåíò_80-3" x1="314.06" y1="333.06" x2="314.06" y2="333.05" xlink:href="#_Áåçûìÿííûé_ãðàäèåíò_80"/><linearGradient id="_Áåçûìÿííûé_ãðàäèåíò_80-4" x1="310.8" y1="334.06" x2="310.8" y2="311.48" xlink:href="#_Áåçûìÿííûé_ãðàäèåíò_80"/><linearGradient id="_Áåçûìÿííûé_ãðàäèåíò_133-2" x1="310.8" y1="330.62" x2="310.8" y2="314.91" xlink:href="#_Áåçûìÿííûé_ãðàäèåíò_133"/><linearGradient id="_Áåçûìÿííûé_ãðàäèåíò_2-3" x1="299.59" y1="313.28" x2="309.5" y2="313.28" xlink:href="#_Áåçûìÿííûé_ãðàäèåíò_2"/><linearGradient id="_Áåçûìÿííûé_ãðàäèåíò_119-2" x1="313.64" y1="316.14" x2="313.64" y2="312.25" xlink:href="#_Áåçûìÿííûé_ãðàäèåíò_119"/><linearGradient id="_Áåçûìÿííûé_ãðàäèåíò_115-5" x1="314.89" y1="318.1" x2="318.1" y2="318.1" xlink:href="#_Áåçûìÿííûé_ãðàäèåíò_115"/><linearGradient id="_Áåçûìÿííûé_ãðàäèåíò_115-6" x1="312.49" y1="331.09" x2="315.67" y2="331.09" xlink:href="#_Áåçûìÿííûé_ãðàäèåíò_115"/><linearGradient id="_Áåçûìÿííûé_ãðàäèåíò_115-7" x1="314.89" y1="327.29" x2="317.7" y2="327.29" xlink:href="#_Áåçûìÿííûé_ãðàäèåíò_115"/><linearGradient id="_Áåçûìÿííûé_ãðàäèåíò_115-8" x1="315.92" y1="322.78" x2="318.71" y2="322.78" xlink:href="#_Áåçûìÿííûé_ãðàäèåíò_115"/><linearGradient id="_Áåçûìÿííûé_ãðàäèåíò_122-2" x1="310.8" y1="330.06" x2="310.8" y2="315.47" xlink:href="#_Áåçûìÿííûé_ãðàäèåíò_122"/><linearGradient id="_Áåçûìÿííûé_ãðàäèåíò_2-4" x1="308.03" y1="326.45" x2="308.03" y2="319.33" xlink:href="#_Áåçûìÿííûé_ãðàäèåíò_2"/><linearGradient id="_Áåçûìÿííûé_ãðàäèåíò_130-2" x1="309.18" y1="329.21" x2="311.01" y2="326.03" xlink:href="#_Áåçûìÿííûé_ãðàäèåíò_130"/><linearGradient id="_Áåçûìÿííûé_ãðàäèåíò_81-2" x1="346.57" y1="310.61" x2="346.57" y2="296.81" xlink:href="#_Áåçûìÿííûé_ãðàäèåíò_81"/><linearGradient id="_Áåçûìÿííûé_ãðàäèåíò_80-5" x1="351.96" y1="329.69" x2="351.96" y2="329.68" xlink:href="#_Áåçûìÿííûé_ãðàäèåíò_80"/><linearGradient id="_Áåçûìÿííûé_ãðàäèåíò_80-6" x1="347.43" y1="331.07" x2="347.43" y2="299.7" xlink:href="#_Áåçûìÿííûé_ãðàäèåíò_80"/><linearGradient id="_Áåçûìÿííûé_ãðàäèåíò_133-3" x1="347.43" y1="326.31" x2="347.43" y2="304.47" xlink:href="#_Áåçûìÿííûé_ãðàäèåíò_133"/><linearGradient id="_Áåçûìÿííûé_ãðàäèåíò_2-5" x1="331.85" y1="302.21" x2="345.62" y2="302.21" xlink:href="#_Áåçûìÿííûé_ãðàäèåíò_2"/><linearGradient id="_Áåçûìÿííûé_ãðàäèåíò_119-3" x1="351.37" y1="306.19" x2="351.37" y2="300.78" xlink:href="#_Áåçûìÿííûé_ãðàäèåíò_119"/><linearGradient id="_Áåçûìÿííûé_ãðàäèåíò_115-9" x1="353.12" y1="308.9" x2="357.56" y2="308.9" xlink:href="#_Áåçûìÿííûé_ãðàäèåíò_115"/><linearGradient id="_Áåçûìÿííûé_ãðàäèåíò_115-10" x1="349.77" y1="326.96" x2="354.2" y2="326.96" xlink:href="#_Áåçûìÿííûé_ãðàäèåíò_115"/><linearGradient id="_Áåçûìÿííûé_ãðàäèåíò_115-11" x1="353.12" y1="321.67" x2="357.02" y2="321.67" xlink:href="#_Áåçûìÿííûé_ãðàäèåíò_115"/><linearGradient id="_Áåçûìÿííûé_ãðàäèåíò_115-12" x1="354.54" y1="315.4" x2="358.41" y2="315.4" xlink:href="#_Áåçûìÿííûé_ãðàäèåíò_115"/><linearGradient id="_Áåçûìÿííûé_ãðàäèåíò_122-3" x1="347.43" y1="325.53" x2="347.43" y2="305.25" xlink:href="#_Áåçûìÿííûé_ãðàäèåíò_122"/><linearGradient id="_Áåçûìÿííûé_ãðàäèåíò_2-6" x1="343.58" y1="320.5" x2="343.58" y2="310.62" xlink:href="#_Áåçûìÿííûé_ãðàäèåíò_2"/><linearGradient id="_Áåçûìÿííûé_ãðàäèåíò_130-3" x1="345.17" y1="324.34" x2="347.72" y2="319.93" xlink:href="#_Áåçûìÿííûé_ãðàäèåíò_130"/><linearGradient id="_Áåçûìÿííûé_ãðàäèåíò_81-3" x1="278.22" y1="317.83" x2="278.22" y2="307.89" xlink:href="#_Áåçûìÿííûé_ãðàäèåíò_81"/><linearGradient id="_Áåçûìÿííûé_ãðàäèåíò_80-7" x1="282.11" y1="331.56" x2="282.11" y2="331.55" xlink:href="#_Áåçûìÿííûé_ãðàäèåíò_80"/><linearGradient id="_Áåçûìÿííûé_ãðàäèåíò_80-8" x1="278.84" y1="332.56" x2="278.84" y2="309.98" xlink:href="#_Áåçûìÿííûé_ãðàäèåíò_80"/><linearGradient id="_Áåçûìÿííûé_ãðàäèåíò_133-4" x1="278.85" y1="329.13" x2="278.85" y2="313.41" xlink:href="#_Áåçûìÿííûé_ãðàäèåíò_133"/><linearGradient id="_Áåçûìÿííûé_ãðàäèåíò_2-7" x1="267.63" y1="311.78" x2="277.54" y2="311.78" xlink:href="#_Áåçûìÿííûé_ãðàäèåíò_2"/><linearGradient id="_Áåçûìÿííûé_ãðàäèåíò_119-4" x1="281.68" y1="314.65" x2="281.68" y2="310.75" xlink:href="#_Áåçûìÿííûé_ãðàäèåíò_119"/><linearGradient id="_Áåçûìÿííûé_ãðàäèåíò_115-13" x1="282.94" y1="316.6" x2="286.14" y2="316.6" xlink:href="#_Áåçûìÿííûé_ãðàäèåíò_115"/><linearGradient id="_Áåçûìÿííûé_ãðàäèåíò_115-14" x1="280.53" y1="329.6" x2="283.72" y2="329.6" xlink:href="#_Áåçûìÿííûé_ãðàäèåíò_115"/><linearGradient id="_Áåçûìÿííûé_ãðàäèåíò_115-15" x1="282.94" y1="325.79" x2="285.74" y2="325.79" xlink:href="#_Áåçûìÿííûé_ãðàäèåíò_115"/><linearGradient id="_Áåçûìÿííûé_ãðàäèåíò_115-16" x1="283.96" y1="321.28" x2="286.75" y2="321.28" xlink:href="#_Áåçûìÿííûé_ãðàäèåíò_115"/><linearGradient id="_Áåçûìÿííûé_ãðàäèåíò_122-4" x1="278.85" y1="328.57" x2="278.85" y2="313.97" xlink:href="#_Áåçûìÿííûé_ãðàäèåíò_122"/><linearGradient id="_Áåçûìÿííûé_ãðàäèåíò_2-8" x1="276.07" y1="324.95" x2="276.07" y2="317.83" xlink:href="#_Áåçûìÿííûé_ãðàäèåíò_2"/><linearGradient id="_Áåçûìÿííûé_ãðàäèåíò_130-4" x1="277.22" y1="327.71" x2="279.05" y2="324.54" xlink:href="#_Áåçûìÿííûé_ãðàäèåíò_130"/><linearGradient id="_Áåçûìÿííûé_ãðàäèåíò_80-9" x1="311.93" y1="293.51" x2="311.93" y2="289.16" xlink:href="#_Áåçûìÿííûé_ãðàäèåíò_80"/><linearGradient id="_Áåçûìÿííûé_ãðàäèåíò_2-9" x1="303.47" y1="302" x2="303.47" y2="296.86" xlink:href="#_Áåçûìÿííûé_ãðàäèåíò_2"/><linearGradient id="_Áåçûìÿííûé_ãðàäèåíò_2-10" x1="537.3" y1="307.37" x2="537.3" y2="302.23" gradientTransform="translate(-309.64 120.67) rotate(-12.79)" xlink:href="#_Áåçûìÿííûé_ãðàäèåíò_2"/><radialGradient id="_Áåçûìÿííûé_ãðàäèåíò_184" cx="279.26" cy="-271.48" fx="279.26" fy="-271.48" r="12.55" gradientTransform="translate(8.43 472.51) scale(1.05 .64)" gradientUnits="userSpaceOnUse"><stop offset="0" stop-color="#3300b3"/><stop offset=".23" stop-color="#23007c"/><stop offset=".49" stop-color="#140047"/><stop offset=".71" stop-color="#090020"/><stop offset=".89" stop-color="#020008"/><stop offset="1" stop-color="#000"/></radialGradient><radialGradient id="_Áåçûìÿííûé_ãðàäèåíò_206" cx="279.26" cy="-271.48" fx="279.26" fy="-271.48" r="7.3" gradientTransform="translate(8.43 472.51) scale(1.05 .64)" gradientUnits="userSpaceOnUse"><stop offset="0" stop-color="#1a40b3"/><stop offset=".23" stop-color="#122c7c"/><stop offset=".49" stop-color="#0a1947"/><stop offset=".71" stop-color="#040b20"/><stop offset=".89" stop-color="#010308"/><stop offset="1" stop-color="#000"/></radialGradient><radialGradient id="_Áåçûìÿííûé_ãðàäèåíò_184-2" cx="259.47" cy="-272.39" fx="259.47" fy="-272.39" r="12.55" xlink:href="#_Áåçûìÿííûé_ãðàäèåíò_184"/><radialGradient id="_Áåçûìÿííûé_ãðàäèåíò_206-2" cx="259.47" cy="-272.39" fx="259.47" fy="-272.39" r="7.3" xlink:href="#_Áåçûìÿííûé_ãðàäèåíò_206"/><radialGradient id="_Áåçûìÿííûé_ãðàäèåíò_184-3" cx="284.94" cy="-283.89" fx="284.94" fy="-283.89" r="9.04" xlink:href="#_Áåçûìÿííûé_ãðàäèåíò_184"/><radialGradient id="_Áåçûìÿííûé_ãðàäèåíò_206-3" cx="284.94" cy="-283.89" fx="284.94" fy="-283.89" r="5.26" xlink:href="#_Áåçûìÿííûé_ãðàäèåíò_206"/><linearGradient id="_Áåçûìÿííûé_ãðàäèåíò_224" x1="302.61" y1="321.11" x2="436.52" y2="321.11" gradientUnits="userSpaceOnUse"><stop offset="0" stop-color="#633631"/><stop offset=".22" stop-color="#462623"/><stop offset=".56" stop-color="#201110"/><stop offset=".83" stop-color="#080404"/><stop offset="1" stop-color="#000"/></linearGradient><linearGradient id="_Áåçûìÿííûé_ãðàäèåíò_224-2" x1="303.66" y1="322.93" x2="411.7" y2="322.93" xlink:href="#_Áåçûìÿííûé_ãðàäèåíò_224"/></defs><g class="cls-107"><g id="Layer_2"><g id="space_background"><g><g><polygon class="cls-67" points="313.58 200.96 301.98 211.67 307.78 235.45 309.8 236.93 310.44 240.25 289.98 232.17 278.45 215.84 281.64 182.87 296.64 180.5 313.58 200.96"/><path class="cls-24" d="M385.22,287.75l-5.31-1.52-8.08,2.15-32.46-19.33-5.69-21.35-5.11-4.1-14.97-6.63-6.07-39.79,6.05,3.78,3.18,12.51,1.61,.97,4.13,21.3,1.05-.29-9.45-46.86-7.51-27.41-16.87-20.84-11.38-22.99-12.79,10.49,3.52,30.69-.95,2.27,4.93,34.74,6.95,78.56-13.39-19.7-7.5-.8-20.07,18.36-12.66,31.32,51.22-2.27,43.07-2.73,23.85-1.52,52.45-3.33-11.75-5.68Zm-95.24-55.58l-2.4-10.61-4.17-3.03-1.77-15.54,16.29-14.53,4.05,14.66h1.26l7.2,37.13-20.46-8.08Z"/></g><polygon class="cls-82" points="369.18 289.77 342.4 282.35 344.52 296.76 344.67 297.76 324.2 298.2 311.67 241.89 305.07 205.14 278.34 117.35 289.72 140.34 306.59 161.18 314.1 188.59 323.55 235.45 322.5 235.74 318.37 214.44 316.76 213.47 313.58 200.96 307.53 197.18 313.6 236.97 328.57 243.6 333.68 247.7 339.37 269.05 371.83 288.38 369.18 289.77"/><polygon class="cls-67" points="311.27 203.09 315.37 214.35 317.65 215.21 321.68 235.74 322.5 235.74 316.51 204.63 313.58 200.96 311.27 203.09"/><polygon class="cls-82" points="307.78 235.45 289.98 232.17 310.44 240.25 309.8 236.93 307.78 235.45"/><polygon class="cls-75" points="287.58 221.56 304.78 223.16 307.78 235.45 289.98 232.17 287.58 221.56"/><polygon class="cls-82" points="259.12 253.6 259.12 271.96 265.48 299.75 268.51 299.75 280 274.1 266.61 254.4 259.12 253.6"/><g><polygon class="cls-109" points="309.55 172.28 292.78 165.05 292.88 164.82 309.65 172.05 309.55 172.28"/><polygon class="cls-109" points="272.9 194.02 272.75 193.82 295.97 175.39 296.12 175.58 272.9 194.02"/><rect class="cls-109" x="268.83" y="175.5" width="27.37" height=".25" transform="translate(-49.49 196.3) rotate(-35.43)"/><polygon class="cls-109" points="278.33 189.51 276.47 179.84 276.72 179.79 278.58 189.46 278.33 189.51"/><polygon class="cls-109" points="269.16 158.62 268.99 158.44 286.06 142.67 286.13 142.69 293.71 144.98 293.64 145.22 286.13 142.95 269.16 158.62"/><polygon class="cls-109" points="276.51 237.3 276.42 237.06 289.94 232.05 290.03 232.29 276.51 237.3"/><polygon class="cls-109" points="286.19 172.95 281.52 146.94 281.77 146.89 286.44 172.9 286.19 172.95"/><rect class="cls-109" x="277.28" y="256.95" width="37.87" height=".25" transform="translate(-83.38 158.39) rotate(-26.38)"/><polygon class="cls-109" points="280.07 274.21 279.94 273.99 314.08 252.7 314.12 252.7 335.84 255.6 335.81 255.85 314.14 252.96 280.07 274.21"/><rect class="cls-109" x="270.82" y="288.14" width="50.55" height=".25" transform="translate(-52.52 66.38) rotate(-11.76)"/><polygon class="cls-109" points="300.1 299.79 296.09 288.31 296.33 288.23 300.33 299.7 300.1 299.79"/><rect class="cls-109" x="293.17" y="258.74" width=".25" height="6.76" transform="translate(-39.3 52.09) rotate(-9.51)"/><polygon class="cls-109" points="298.1 262.74 298.09 256.08 298.34 256.08 298.35 262.74 298.1 262.74"/></g><polygon class="cls-46" points="278.34 117.35 297.68 180.87 296.02 181.77 284.43 147.79 281.37 149.77 286.32 177.51 284.13 180.4 275.58 129.56 271.35 131.42 275.01 155.62 269.9 161.43 265.55 127.84 278.34 117.35"/><polygon class="cls-68" points="294.94 234.13 310.44 240.25 304.15 207.78 305.07 205.14 312.64 246.21 324.2 298.2 316.89 298.52 309.6 247.39 305.83 245.43 309.6 274.8 302.8 274.8 294.94 234.13"/><polygon class="cls-68" points="286.32 283.14 272.82 177.51 276.47 170.69 289.98 279.62 286.32 283.14"/><polygon class="cls-22" points="313.58 240.88 333.68 247.7 337.69 262.74 331.41 261.52 335.82 283.14 328.76 284.97 324.2 251.83 320.85 250.39 322.5 265.46 318.91 266.02 313.58 240.88"/><polygon class="cls-22" points="289.72 140.34 283.98 136.77 299.74 187.63 301.22 187.63 294.65 160.61 296.02 160.8 304.7 189.08 314.82 192.12 314.1 188.59 306.59 161.18 289.72 140.34"/><polygon class="cls-96" points="339.37 269.05 339.37 278.46 342.4 282.35 344.67 297.76 370.82 295.83 369.18 289.77 345.24 283.14 339.84 278.23 339.37 269.05"/><polygon class="cls-94" points="293.85 284.97 293.85 279.03 294.94 284.57 293.85 284.97"/><polygon class="cls-94" points="294.94 278.6 294.94 275.57 296.21 274.8 296.1 278.04 294.94 278.6"/><polygon class="cls-94" points="285.05 193.92 284.43 190.29 285.05 189.08 286.32 192.82 285.05 193.92"/><polygon class="cls-94" points="286.32 162.32 286.32 165.85 287.64 165.85 286.76 162.32 286.32 162.32"/></g><g><path class="cls-19" d="M128.68,234.13l9.47-11.94,4.17-14.97-8.53-17.24,1.14-13.97-2.08-3.84,17.05-123.54-13.01-15.47-13.77,5.08-19.9,84.82,1.09,3.88-1.77,8.84-4.17,.88-4.55,6.44,2.49,4.31-1.41-2.44-11.51,43.83,.83-.56-2.53,1.72-31.83,121.26-6.44,1.69-6.44,23.7,78.82-4.93,24.76-20.46-10.55-13.45-2.65-1.89-1.52-19.33-4.17-7.39,4.93-35.05h2.08Zm-37.52-50.59l-6.49,4.41,2.75-11.19,.95-.75,7.96-28.55,2.16,3.74-7.33,32.34Z"/><polygon class="cls-82" points="136.89 33.16 121.1 121.39 122.61 125.81 112.34 185.02 99.99 190.97 90.02 238.29 121.1 237.73 82.82 240.25 66.53 314.9 68.99 321.85 74.87 320.46 82.07 303.66 119.39 276.57 126.59 234.13 120.15 228.63 119.39 215.22 131.33 200.4 133.79 189.98 134.93 176.01 132.84 172.17 149.9 48.63 136.89 33.16"/><polygon class="cls-74" points="142.32 207.22 137.77 210.38 127.41 212.96 123.62 213.77 133.74 200.73 134.28 190.97 142.32 207.22"/><polygon class="cls-25" points="128.68 234.13 123.62 228.63 123.62 216.63 137.77 210.38 142.32 207.22 138.15 222.19 128.68 234.13"/><polygon class="cls-25" points="125.83 276.57 120.81 289.77 119.96 294.95 113.64 299.75 106.69 331.7 128.38 320.46 126.4 305.18 127.35 295.89 125.83 276.57"/><polygon class="cls-25" points="130 297.79 127.4 305.65 128.7 320.3 137.39 315.79 140.55 311.24 130 297.79"/><polygon class="cls-74" points="111.75 300.34 102.34 303.28 82.07 303.66 119.64 277.77 121.67 269.18 125.83 276.57 120.34 287.45 111.75 300.34"/><polygon class="cls-70" points="103.21 123.06 121.1 121.39 123.62 125.81 136.89 130.92 122.33 126.08 104.3 126.95 103.21 123.06"/><polygon class="cls-51" points="93.81 143.12 95.27 144.25 94.9 144.99 93.81 143.12"/><polygon class="cls-51" points="96.32 147.46 97.03 144.99 100.38 144.99 98.49 151.2 96.32 147.46"/><polygon class="cls-75" points="43.41 312.93 49.1 320.3 69.56 333.22 49.85 311.24 43.41 312.93"/><polygon class="cls-75" points="99.99 190.97 81.69 189.98 91.16 183.54 112.34 185.02 99.99 190.97"/><polygon class="cls-109" points="142.1 104.32 126.06 93.62 109.47 96.83 109.37 96.34 126.17 93.09 142.38 103.9 142.1 104.32"/><rect class="cls-109" x="137.93" y="64.37" width=".5" height="17.99" transform="translate(3 152.12) rotate(-58.19)"/><rect class="cls-109" x="123.56" y="86.11" width="26.17" height=".5" transform="translate(34.85 211.92) rotate(-83.26)"/><polygon class="cls-109" points="147.57 64.54 145.57 62.95 147.21 45.71 147.71 45.75 146.09 62.73 147.88 64.15 147.57 64.54"/><rect class="cls-109" x="94.03" y="64.95" width="60.66" height=".5" transform="translate(35.24 173.71) rotate(-78.27)"/><rect class="cls-109" x="114.8" y="71.39" width="8.66" height=".5" transform="translate(-15.54 37.16) rotate(-16.66)"/><rect class="cls-109" x="104.56" y="107.83" width="28.11" height=".5" transform="translate(-10.18 203.79) rotate(-78.95)"/><rect class="cls-109" x="63.55" y="182.74" width="111.19" height=".5" transform="translate(-81.94 268.11) rotate(-79.87)"/><polygon class="cls-109" points="97.26 156.98 97.21 156.48 117.23 154.42 123.89 156.49 123.74 156.97 117.18 154.93 97.26 156.98"/><rect class="cls-109" x="127.1" y="164.01" width=".5" height="11.85" transform="translate(-78.03 223.94) rotate(-67.88)"/><rect class="cls-109" x="107.39" y="188.52" width=".5" height="17.64" transform="translate(-103.06 275.66) rotate(-81.78)"/><rect class="cls-109" x="79.9" y="217.29" width="41.97" height=".5" transform="translate(-131.49 276.75) rotate(-79.41)"/><rect class="cls-109" x="73.71" y="278.74" width="45.81" height=".5" transform="translate(-28.83 11.72) rotate(-6.04)"/><rect class="cls-109" x="65.97" y="249.6" width="14.76" height=".5"/><polygon class="cls-109" points="54.74 316.47 54.25 316.36 69.32 249.8 69.8 249.91 54.74 316.47"/><rect class="cls-109" x="57.13" y="299.24" width="12.82" height=".5" transform="translate(-11.62 2.7) rotate(-2.23)"/><rect class="cls-109" x="52.32" y="219.88" width="60.99" height=".5" transform="translate(-150.23 251.81) rotate(-77.12)"/><rect class="cls-109" x="75.72" y="212.47" width="8.8" height=".5"/><polygon class="cls-34" points="82.07 303.66 68.99 321.85 71.27 331.7 49.85 311.24 69.56 333.22 69.95 334.57 106.69 331.7 111.14 311.24 102.34 303.28 82.07 303.66"/><polygon class="cls-34" points="43.41 312.93 49.1 320.3 43.41 336.23 65.97 334.82 36.97 336.63 43.41 312.93"/><polygon class="cls-22" points="82.82 240.25 70.69 295.83 76.76 294.44 89.63 248.97 91.41 248.97 84.52 286.42 87.24 286.42 95.71 245.43 109.42 243.23 103.95 281.41 119.64 277.77 126.08 237.73 82.82 240.25"/><polygon class="cls-22" points="134.93 176.01 117.54 170.69 108.21 217.15 115.44 217.15 123.81 183.54 127.35 183.54 124.32 196.08 132.84 196.08 133.92 188.46 134.93 176.01"/><polygon class="cls-22" points="136.89 33.16 122.81 111.79 126.97 115.14 136.89 53.84 138.18 56.07 130.54 108.08 135.1 111.79 142.24 56.07 143.74 57.06 142.24 68.62 146.78 71.23 149.9 48.63 136.89 33.16"/><polygon class="cls-22" points="135.1 156.73 126.4 153.98 130.75 128.88 138.47 131.42 135.1 156.73"/><polygon class="cls-40" points="121.1 121.39 136.89 33.16 126.48 37 114.98 87.28 117.59 86.36 125.93 46.36 130.54 45.73 118.19 121.66 121.1 121.39"/><polygon class="cls-40" points="122.33 126.08 112.34 185.02 97.01 183.95 104.76 143.37 106.69 143.37 100.38 180.88 103.21 180.76 111.37 128.26 109.67 128.26 107.2 141.35 105.56 141.28 107.52 126.79 122.33 126.08"/><polygon class="cls-40" points="99.99 190.97 90.02 238.29 86.42 238.29 93.43 200.87 88.89 200.78 73.84 273.85 68.99 274.8 85.85 190.41 99.99 190.97"/><polygon class="cls-40" points="66.53 314.9 73.46 283.14 65.97 283.14 59.8 314.9 66.53 314.9"/><polygon class="cls-48" points="90.15 297.79 93.43 283.14 101.9 283.14 99.99 290.65 90.15 297.79"/><polygon class="cls-48" points="61.87 265.46 66.03 265.46 59.38 294.82 53.39 297.79 61.87 265.46"/><polygon class="cls-94" points="57.14 315.66 61.32 307.08 57.75 316.8 57.14 315.66"/><polygon class="cls-94" points="70.08 282.35 71.5 276.57 70.79 280.93 70.08 282.35"/><polygon class="cls-94" points="78.04 224.08 77.89 218.81 77.14 220.13 78.04 224.08"/><polygon class="cls-94" points="74.74 235.52 75.78 234.35 74.74 239.81 74.74 235.52"/><polygon class="cls-74" points="133.74 200.73 142.32 207.22 134.28 190.97 133.74 200.73"/><polygon class="cls-59" points="106.86 122.72 110.16 126.66 116.49 126.36 113.56 122.09 106.86 122.72"/><polygon class="cls-59" points="121.9 123.1 119.74 126.16 122.33 126.08 124.1 126.67 124.96 126.33 123.62 125.81 121.9 123.1"/></g><polygon class="cls-88" points="250.19 243.41 228.72 247.83 221.08 253.24 221.9 289.77 226.38 303.28 240.28 312.93 230.55 321.66 182.49 321.66 182.49 255.73 209.39 206.46 245.96 230.72 250.19 243.41"/><polygon class="cls-51" points="190.84 271.09 221.08 253.24 221.9 289.77 226.38 303.28 240.28 312.93 230.55 321.66 184.27 320.46 190.84 271.09"/><path class="cls-53" d="M302.04,321.85l-21.41-3.6-5.31-12.5-10.61-2.09-5.23,1.28-.7-6.33-5.06-48.76,2.03-2.27-9.6-103.33h3.03l-3.79-40.17,2.78-2.78,.5-23.24-.5-6.06-5.56-16.67-6.06-3.79-1.77-25.77-3.92-8.97h-1.39l-5.63-5.43-.81-4.3-3.79-7.07-10.3,3.72-.88,22.05-14.59,4.55-.76-7.08-10.73,6.7-1.77,30.82-2.15,3.28-1.64,45.98-1.9,27.16,3.04,4.55-1.9,18.94,.63,5.18-2.27,32.21-3.16,30.57-5.05,1.26-7.08,15.54,.38,2.02,6.95,8.47-4.67,6.82-5.06,22.23-12.25,14.15-3.53,12.12-3.16,4.55-30.7,15.91h117.15l8.85-1.32,76.74-2.84-7.39-5.69Zm-69.66-5.68l-2.28-1.27-11.49,1.27-5.56-3.24v3.41l-13.01,4.12-13.01-2.9,3.46-42.25-1.06-8.66,2.15-6.76,10.99-12.43,7.7-2.28,.68,16.43,4.5,4.41,2.65-28.29,13.71-3.84,5.45,2.32,2.32,42.82,3.15,4.42,1.14,26.78-11.49,5.94Zm24-16.93l-2.78-3.41-3.29,7.45-.56,4.42-2.72,1.65-3.16-47.18,2.57-21.92,3.75,3.16,3.53,36.88,2.66,4.17v14.78Z"/><polygon class="cls-70" points="192.71 23.24 200.04 28.27 193.47 30.32 192.71 23.24"/><polygon class="cls-82" points="219.24 0 219.51 129.29 223.84 131.47 223.12 215.57 225.43 211.67 226.39 159.47 231.28 155.16 232.36 156.1 232.89 232.8 242.49 237.92 247.03 309.35 243.87 262.17 246.72 237.92 255.75 247.58 246.33 146.18 249.18 144.25 245.39 104.08 237.5 75.28 237.5 52.13 236.55 51.54 234.78 25.77 230.86 16.8 229.47 16.8 223.84 11.37 223.03 7.07 219.24 0"/><polygon class="cls-82" points="242.61 55.33 239.04 67.77 239.04 75.54 245.3 100.17 248.17 101.3 248.67 78.06 248.17 72 242.61 55.33"/><polygon class="cls-109" points="233.44 22.97 220.15 12.67 208.37 19.93 208.24 19.72 220.16 12.37 220.23 12.42 233.59 22.77 233.44 22.97"/><g><rect class="cls-109" x="179.81" y="57.79" width="18.62" height=".5" transform="translate(-8.71 57.52) rotate(-16.91)"/><polygon class="cls-109" points="176.53 108.74 176.42 108.25 214.19 99.59 214.19 36.52 219.22 31.99 219.37 32.09 236.06 42.25 235.8 42.68 219.27 32.62 214.69 36.74 214.69 99.99 176.53 108.74"/><rect class="cls-109" x="214.19" y="76.93" width="5.31" height=".5" transform="translate(-12.18 100.1) rotate(-25.31)"/><polygon class="cls-109" points="214.58 88.25 214.3 87.83 219.45 84.37 240.73 86.74 240.68 87.24 219.58 84.89 214.58 88.25"/><rect class="cls-109" x="195.35" y="56.07" width=".5" height="48.04"/><rect class="cls-109" x="197.77" y="49.64" width=".5" height="8.4"/><rect class="cls-109" x="180.99" y="32.91" width="13.13" height=".5" transform="translate(4.18 84.66) rotate(-25.71)"/><rect class="cls-109" x="173.84" y="124.13" width="46.5" height=".5" transform="translate(-28.41 65.51) rotate(-17.62)"/><rect class="cls-109" x="214.19" y="118.87" width=".5" height="12.05"/><rect class="cls-109" x="176.23" y="144.85" width="41.84" height=".5" transform="translate(-27.36 47.54) rotate(-12.87)"/><polygon class="cls-109" points="176.34 166.1 176.25 165.6 213.59 158.89 213.59 154.51 217.29 152.87 217.29 132.25 217.79 132.25 217.79 153.19 214.09 154.84 214.09 159.3 176.34 166.1"/><polygon class="cls-109" points="218.35 237.74 217.85 237.72 221.65 141.32 223.73 140.21 223.96 140.65 222.14 141.63 218.35 237.74"/><rect class="cls-109" x="174.27" y="188.65" width="17.03" height=".5" transform="translate(-40.36 49.97) rotate(-14.04)"/><rect class="cls-109" x="144.1" y="209.26" width="92.84" height=".5" transform="translate(-23.39 395.08) rotate(-88.66)"/><rect class="cls-109" x="189.88" y="214.97" width="29.68" height=".5" transform="translate(-45.63 55.36) rotate(-13.87)"/><rect class="cls-109" x="190.12" y="206.49" width="29.8" height=".5" transform="translate(-44.31 56.38) rotate(-14.15)"/><polygon class="cls-109" points="227.16 189.71 226.93 189.26 232.46 186.47 232.68 186.92 227.16 189.71"/><rect class="cls-109" x="242.8" y="205.49" width=".5" height="21.91" transform="translate(-43.17 371.35) rotate(-70.11)"/><rect class="cls-109" x="196.67" y="208.78" width=".5" height="8.37"/><polygon class="cls-109" points="210.52 245.2 210.02 245.16 210.38 240.09 217.99 236.36 218.21 236.81 210.86 240.41 210.52 245.2"/><rect class="cls-109" x="189.27" y="242.98" width="21.77" height=".5" transform="translate(-58.92 64.05) rotate(-15.88)"/><rect class="cls-109" x="185.15" y="138.95" width=".5" height="8.84"/></g><polygon class="cls-82" points="165.81 229.89 172.63 236.59 174.52 233.89 170.86 228.63 165.81 229.89"/><polygon class="cls-54" points="158.73 245.43 160.25 248.45 166.57 252.88 166.06 255.92 159.11 247.45 158.73 245.43"/><polygon class="cls-34" points="161.39 262.74 168.59 265.77 176.55 266.9 176.55 279.03 156.33 284.97 161.39 262.74"/><polygon class="cls-34" points="144.08 299.12 164.55 293.3 177.69 284.97 185.9 311.24 181.73 312.93 161.27 322.86 193.07 321.66 205.35 324 156.33 330.38 198.69 330.38 215.45 329.56 219.24 331.7 106.69 331.7 144.72 328.8 162.97 325.01 140.55 311.24 144.08 299.12"/><polygon class="cls-34" points="275.32 305.75 253.22 311.24 231.89 320.46 280.63 318.25 275.32 305.75"/><polygon class="cls-34" points="302.04 321.85 293.52 324.63 232.69 330.38 309.43 327.54 302.04 321.85"/><polygon class="cls-75" points="190.5 275.31 187.03 274.8 177.69 284.97 185.9 311.24 187.55 311.24 190.5 275.31"/><polygon class="cls-82" points="215.45 266.02 214.19 259.45 214.13 241.33 217.96 239.24 215.45 266.02"/><polygon class="cls-34" points="214.19 259.45 210.96 261.61 215.45 266.02 214.19 259.45"/><polygon class="cls-82" points="253.6 295.83 256.38 299.24 256.38 303.66 252.5 302.43 253.6 295.83"/><polygon class="cls-75" points="161.39 262.74 168.59 265.77 176.55 266.9 176.29 258.19 170.99 250.68 166.06 255.92 161.39 262.74"/><polygon class="cls-75" points="189.43 266.65 185.71 266.81 185.33 259.45 191.58 259.89 189.43 266.65"/><polygon class="cls-82" points="185.71 266.81 187.03 274.8 190.5 275.31 189.43 266.65 185.71 266.81"/><polygon class="cls-82" points="226.38 303.28 208.06 308.34 219.88 311.24 239.58 312.45 226.38 303.28"/><polygon class="cls-82" points="213.05 312.93 214.57 316.23 222.4 318.82 218.61 316.17 213.05 312.93"/><polygon class="cls-82" points="230.1 314.9 227.96 315.88 226.38 317.94 232.38 316.17 230.1 314.9"/><polygon class="cls-82" points="280.63 318.25 248.42 319.71 239.58 329.73 293.52 324.63 300.93 321.66 280.63 318.25"/><polygon class="cls-82" points="275.32 305.75 253.22 311.24 249.75 307.7 264.71 303.66 275.32 305.75"/><polygon class="cls-75" points="208.06 305.75 217.73 290.59 221.9 289.77 226.38 303.28 208.06 305.75"/><polygon class="cls-51" points="250.19 243.41 251.83 246.21 253.66 279.62 248.42 243.78 250.19 243.41"/><polygon class="cls-51" points="254.44 281.41 256.38 299.24 256.38 284.46 254.44 281.41"/><polygon class="cls-22" points="232.57 135.6 232.86 228.63 239.04 233.89 235.81 156.88 239.04 158.9 243.87 199.58 251.62 203.09 246.15 144.25 232.57 135.6"/><polygon class="cls-22" points="228.47 126.95 222.33 42.47 226.38 43.96 229.81 114.7 235.61 117.22 235.61 99.03 245.39 104.08 249.18 144.25 228.47 126.95"/><polygon class="cls-22" points="223.84 11.37 229.8 76.75 235.76 80.09 229.47 16.8 223.84 11.37"/><polygon class="cls-22" points="252.26 214.35 240.72 211.67 240.72 214.35 252.93 217.15 252.26 214.35"/><polygon class="cls-69" points="180.12 140.05 177.69 232.61 184.09 230.62 185.71 158.65 190.31 156.63 189.12 206.46 206.04 203.09 206.64 133.14 180.12 140.05"/><polygon class="cls-40" points="209.71 135.79 207.9 242.13 213.2 239.24 216.05 165.85 219.24 163.1 220.97 236.93 222.33 236.59 223.83 133.14 209.71 135.79"/><polygon class="cls-40" points="219.24 0 219.51 129.29 198.02 134.9 201.25 58.05 204.47 53.84 206.64 126.95 216.25 124.23 211.85 48.25 206.64 49.64 208.06 25.77 208.94 3.72 219.24 0"/><polygon class="cls-69" points="180.21 123.06 181.98 29.94 192.71 23.24 189.12 120.06 180.21 123.06"/><polygon class="cls-51" points="237.26 236.21 242.49 237.92 232.57 231.54 218.8 236.59 217.96 238.29 230.54 234.66 237.26 236.21"/><polygon class="cls-51" points="191.58 259.89 185.33 259.45 200.16 246.21 210.27 240.88 210.37 247.51 202.82 248.02 191.58 259.89"/><polygon class="cls-75" points="160.77 265.46 168 269.12 175.22 278.46 165.75 271.96 160.77 265.46"/><polygon class="cls-70" points="249.18 144.25 219.47 120.73 204.72 128.96 179.36 139.01 174.52 137.18 177.56 141.73 180.12 140.05 223.83 133.14 246.15 144.25 249.18 144.25"/><polygon class="cls-70" points="242.61 55.33 239.04 67.77 239.04 75.54 245.3 100.17 248.17 101.3 245.39 104.08 237.5 75.28 237.5 52.13 242.61 55.33"/><polygon class="cls-48" points="190.2 223.71 201.91 220.17 200.16 239.24 189.69 240.88 190.2 223.71"/><polygon class="cls-49" points="174.52 233.89 175.22 247.7 174.87 253.24 170.99 250.68 176.29 258.19 176.55 279.03 177.69 217.15 172.48 212.96 170.86 228.63 174.52 233.89"/><polygon class="cls-48" points="177.69 130.54 177.69 134.9 196.13 130.54 197.09 124.38 177.69 130.54"/><polygon class="cls-37" points="226.14 172.92 223.49 172.92 223.27 198.6 225.69 197.56 226.14 172.92"/><polygon class="cls-94" points="203.9 234.92 204.18 231.54 204.72 231.09 204.31 234.92 203.9 234.92"/><polygon class="cls-94" points="205.02 237.73 205.48 236.59 206.22 236.07 206.22 238.29 205.02 237.73"/><polygon class="cls-94" points="182.78 264.06 181.1 259.89 182.49 255.73 182.78 264.06"/><polygon class="cls-94" points="194.61 118.17 193.76 113.53 194.61 112.1 195.6 118.17 194.61 118.17"/><polygon class="cls-94" points="207.9 78.32 209.77 67.45 210.53 67.45 207.9 78.32"/><polygon class="cls-59" points="223.83 133.14 227 126.7 237.23 134.79 233.15 137.78 223.83 133.14"/><polygon class="cls-59" points="237.23 139.81 240.83 137.64 246.64 142.12 242.98 142.67 237.23 139.81"/><polygon class="cls-59" points="188.67 138.7 186.46 136.2 192.17 133.94 194.2 137.82 188.67 138.7"/><polygon class="cls-59" points="245.3 100.17 244.63 101.3 237.5 75.28 239.04 75.54 245.3 100.17"/><polygon class="cls-59" points="237.5 60.76 240.62 62.26 241.66 58.66 237.5 56.05 237.5 60.76"/><ellipse class="cls-3" cx="215.86" cy="131.42" rx="80.15" ry="31.52"/><ellipse class="cls-15" cx="215.86" cy="131.42" rx="46.67" ry="18.35"/><ellipse class="cls-1" cx="218.26" cy="133.08" rx="218.26" ry="14.21"/><ellipse class="cls-16" cx="218.26" cy="133.08" rx="162.57" ry="7.19"/><ellipse class="cls-5" cx="218.26" cy="133.08" rx="137.2" ry="3.44"/><ellipse class="cls-18" cx="241.4" cy="83.52" rx="11.58" ry="17.92"/><g><g><g><path class="cls-61" d="M304.19,314.35c0,2.2-.32,4.29-.89,6.19-.13,.44-.28,.87-.44,1.29-.93,2.45-2.31,4.5-3.98,5.95-.37,.33-.76,.62-1.16,.87-1.38,.89-2.91,1.39-4.52,1.39-1.99,0-3.85-.75-5.46-2.07l.42-.5v-.42l-1.58-.18c-.95-1.02-1.78-2.27-2.45-3.67l-.15-.35,1.02-.15v-.7l-1.35,.11c-.66-1.65-1.11-3.49-1.31-5.44l.95-.4v-1.12l-1.05,.1c0-.3-.02-.59-.02-.89,0-8.66,4.92-15.68,10.99-15.68s10.99,7.02,10.99,15.68Z"/><path class="cls-61" d="M290.6,329.59s9.04,2.77,19.9,.26l1.28-30.59s-10.59-4.47-21.18-.14v30.48Z"/><path class="cls-77" d="M313.31,328.65s0,0,.01,0c0,0,0,.01-.01,.01h0Z"/><path class="cls-30" d="M318.92,314.07v.97h.85c-.05,1.75-.31,3.42-.73,4.97l-.07,.25-.97-.25-.37,1.45,.74,.58c-.71,1.82-1.67,3.41-2.82,4.68l-1.55-.79-1.2,.6,.51,2.13c-1.38,.89-2.91,1.39-4.52,1.39-6.07,0-10.99-7.02-10.99-15.69s4.92-15.68,10.99-15.68c1.41,0,2.77,.38,4.01,1.08l-.26,1.43,1.08,.4,1.13-.4c1.46,1.34,2.67,3.16,3.55,5.31l-.79,.7,.39,1.16,1.02-.08c.5,1.68,.8,3.52,.85,5.44h0s-.85,.36-.85,.36Z"/><ellipse class="cls-104" cx="308.79" cy="314.35" rx="7.65" ry="10.92"/><polygon class="cls-33" points="307.21 324.24 305.93 329.5 300.47 329.5 297.73 328.65 291.98 326.87 289.94 328.38 287.75 327.97 288.16 327.47 288.16 327.04 289.36 327.18 291.48 325.05 298.89 327.78 299.63 328.05 303.34 327.97 306.45 323.93 307.21 324.24"/><polygon class="cls-33" points="303.79 321.31 302.87 321.83 299.87 323.51 297.15 323.58 290.15 320.06 287.73 323.19 284.13 323.19 283.98 322.85 285 322.7 285 322 286.83 321.85 289.86 317.57 297.14 321.53 299.09 321.56 303.2 320.38 303.3 320.54 303.79 321.31"/><polygon class="cls-33" points="301.76 315.78 297.8 316.32 295.27 316.4 288.65 311.95 285.36 316.4 282.34 316.66 283.28 316.26 283.28 315.14 284.53 315.03 288.77 308.79 295.27 314.52 297.8 314.35 301.69 314.35 301.76 315.78"/><polygon class="cls-33" points="302.52 309.58 298.84 307.69 295.27 307.3 291.48 302.1 285.36 305.84 283.98 305.84 284.58 304.63 285.74 304.51 292.76 299.6 296.51 305.86 299.9 305.13 302.85 308.79 302.52 309.58"/><path class="cls-101" d="M306.97,304.5l-.36-5.53h-4.66l.9-1.66s-3.84-.23-8.39,.59l-1.25,.32,8.48-.31-.82,1.69h4.18l.89,5.47,1.05-.57Z"/><polygon class="cls-100" points="314.75 301.18 311.77 305.15 310.71 304.59 312.8 299.75 312.54 301.18 313.62 301.57 314.75 301.18"/><polygon class="cls-90" points="318.92 308.27 314.93 309.25 314.47 308.27 318.29 306.48 317.51 307.19 317.9 308.35 318.92 308.27"/><polygon class="cls-76" points="312.8 326.53 313.31 328.65 311.13 323.93 312.27 323.19 315.55 326.71 314 325.92 312.8 326.53"/><polygon class="cls-28" points="317.64 321.45 318.37 322.03 314.47 320.44 315.05 319.25 318 320 317.64 321.45"/><polygon class="cls-66" points="319.77 313.7 319.77 313.71 318.92 314.07 318.92 315.03 315.89 315.03 315.89 314.35 319.77 313.7"/><path class="cls-41" d="M315.89,314.35c0,5.6-3.18,10.14-7.1,10.14s-7.1-4.54-7.1-10.14c0-.1,0-.19,0-.29,.1-5.47,3.24-9.85,7.1-9.85s7.1,4.54,7.1,10.14Z"/><ellipse class="cls-106" cx="308.79" cy="314.35" rx="6.85" ry="9.78"/><path class="cls-27" d="M308.4,314.52c0,2.73-1.55,4.94-3.46,4.94s-3.46-2.21-3.46-4.94,1.55-4.94,3.46-4.94,3.46,2.21,3.46,4.94Z"/></g><path class="cls-9" d="M303.45,318.79l2.25,4.01s3.95,3.13,7.64-1.44l-6.37-2.87s-1.05,1.21-3.52,.3Z"/><path class="cls-86" d="M315.89,314.35s-2.17-1.81-7.1-2.01c-4.79-.19-6.97,1.61-7.1,1.72,.1-5.47,3.24-9.85,7.1-9.85s7.1,4.54,7.1,10.14Z"/></g><path class="cls-86" d="M313.31,328.65s0,0,.01-.01c0,0,0,0-.01,0h0Z"/><polygon class="cls-85" points="307.27 275.83 311.68 270.9 326.06 271.12 322.89 276.58 307.27 275.83"/><polygon class="cls-63" points="326.06 271.12 331.9 273.27 332.84 278.26 322.89 276.58 326.06 271.12"/><polygon class="cls-85" points="274.67 308.81 278.85 302.94 275.92 302.81 281.73 296.06 286.75 296.97 278.59 308.87 274.67 308.81"/><polygon class="cls-45" points="284.35 300.17 278.85 308.41 281.35 308.98 286.75 300.71 284.35 300.17"/><polygon class="cls-45" points="275.92 302.81 277.63 304.66 278.85 302.94 275.92 302.81"/><path class="cls-64" d="M319.28,319.33l-18.21-3.92,4.81-5.81s11.17-2.5,13.4,9.73Z"/><polygon class="cls-89" points="333.37 294.8 329.78 301.69 318.35 302.15 320.23 294.43 333.37 294.8"/><polygon class="cls-85" points="276.66 291.84 296.95 275.83 319.62 275.83 304.45 292.58 276.66 291.84"/><polygon class="cls-63" points="319.62 275.83 334.56 278.34 340.06 286.27 340.25 292.69 304.45 292.58 319.62 275.83"/><polygon class="cls-45" points="276.66 291.84 281.55 302.05 306 302.77 304.45 292.58 276.66 291.84"/><polygon class="cls-31" points="340.25 292.69 304.45 292.58 306 302.77 317.87 302.77 323.4 295.66 339.66 294.26 340.25 292.69"/><polygon class="cls-89" points="308.35 302.77 307.94 297.68 312.09 295.42 316.54 297.68 315.93 302.77 308.35 302.77"/><path class="cls-45" d="M319.28,324.43h-8.12l-3.13-13.99s5.46-.14,7.52,1.03c2.06,1.17,4.19,9.18,3.73,12.96Z"/><g><path class="cls-61" d="M307.5,322.76c0,1.58-.23,3.09-.64,4.46-.09,.32-.2,.63-.31,.93-.67,1.76-1.66,3.24-2.86,4.28-.27,.23-.55,.44-.84,.63-.99,.64-2.1,1-3.26,1-1.43,0-2.77-.54-3.93-1.49l.3-.36v-.3l-1.14-.13c-.68-.74-1.28-1.63-1.76-2.64l-.11-.25,.74-.11v-.51l-.97,.08c-.47-1.19-.8-2.51-.95-3.92l.68-.29v-.81l-.76,.07c0-.21-.01-.42-.01-.64,0-6.24,3.54-11.29,7.91-11.29s7.91,5.05,7.91,11.29Z"/><path class="cls-61" d="M297.71,333.73s6.51,1.99,14.33,.19l.92-22.02s-7.62-3.21-15.24-.1v21.94Z"/><path class="cls-73" d="M314.06,333.06s0,0,0,0c0,0,0,0,0,0h0Z"/><path class="cls-79" d="M318.1,322.56v.7h.61c-.04,1.26-.22,2.46-.52,3.58-.02,.06-.03,.12-.05,.18l-.7-.18-.27,1.04,.53,.42c-.51,1.31-1.2,2.45-2.03,3.37l-1.12-.57-.87,.43,.37,1.53c-.99,.64-2.09,1-3.25,1-4.37,0-7.91-5.06-7.91-11.29s3.54-11.29,7.91-11.29c1.02,0,1.99,.28,2.89,.78l-.19,1.03,.78,.28,.81-.28c1.05,.97,1.93,2.28,2.55,3.82l-.57,.51,.28,.84,.73-.06c.36,1.21,.57,2.53,.61,3.91h0s-.61,.26-.61,.26Z"/><path class="cls-97" d="M316.31,322.77c0,4.34-2.46,7.86-5.51,7.86s-5.51-3.52-5.51-7.86,2.46-7.86,5.51-7.86,5.51,3.52,5.51,7.86Z"/><polygon class="cls-33" points="309.66 329.88 308.74 333.67 304.82 333.67 302.84 333.06 298.71 331.77 297.23 332.86 295.66 332.56 295.96 332.21 295.96 331.9 296.82 332 298.34 330.47 303.68 332.43 304.21 332.62 306.88 332.57 309.12 329.66 309.66 329.88"/><polygon class="cls-33" points="307.2 327.77 306.54 328.15 304.38 329.36 302.42 329.41 297.39 326.88 295.65 329.13 293.05 329.13 292.94 328.88 293.68 328.77 293.68 328.27 295 328.17 297.18 325.08 302.42 327.93 303.82 327.95 306.78 327.11 306.85 327.22 307.2 327.77"/><polygon class="cls-33" points="305.74 323.79 302.89 324.18 301.07 324.24 296.31 321.04 293.94 324.24 291.76 324.43 292.45 324.14 292.45 323.34 293.34 323.26 296.4 318.76 301.07 322.89 302.89 322.76 305.69 322.76 305.74 323.79"/><polygon class="cls-33" points="306.29 319.33 303.64 317.97 301.07 317.69 298.34 313.94 293.94 316.64 292.94 316.64 293.38 315.77 294.21 315.68 299.27 312.15 301.96 316.65 304.41 316.13 306.53 318.76 306.29 319.33"/><path class="cls-62" d="M309.5,315.68l-.26-3.98h-3.35l.65-1.2s-2.77-.16-6.04,.42l-.9,.23,6.1-.22-.59,1.22h3.01l.64,3.94,.75-.41Z"/><polygon class="cls-21" points="315.09 313.28 312.95 316.14 312.19 315.74 313.69 312.25 313.5 313.28 314.28 313.57 315.09 313.28"/><polygon class="cls-60" points="318.1 318.38 315.22 319.09 314.89 318.38 317.65 317.1 317.08 317.61 317.36 318.44 318.1 318.38"/><polygon class="cls-44" points="313.69 331.53 314.06 333.06 312.49 329.66 313.31 329.13 315.67 331.66 314.56 331.09 313.69 331.53"/><polygon class="cls-52" points="317.17 327.88 317.7 328.29 314.89 327.15 315.31 326.29 317.44 326.83 317.17 327.88"/><polygon class="cls-91" points="318.71 322.3 318.71 322.3 318.1 322.56 318.1 323.26 315.92 323.26 315.92 322.76 318.71 322.3"/><path class="cls-78" d="M315.92,322.76c0,4.03-2.29,7.3-5.11,7.3s-5.11-3.27-5.11-7.3c0-.07,0-.14,0-.21,.07-3.93,2.33-7.09,5.11-7.09s5.11,3.27,5.11,7.3Z"/><path class="cls-32" d="M315.74,322.77c0,3.89-2.21,7.04-4.93,7.04s-4.93-3.15-4.93-7.04,2.21-7.04,4.93-7.04,4.93,3.15,4.93,7.04Z"/><path class="cls-84" d="M310.52,322.89c0,1.96-1.12,3.56-2.49,3.56s-2.49-1.59-2.49-3.56,1.12-3.56,2.49-3.56,2.49,1.59,2.49,3.56Z"/></g><polygon class="cls-45" points="316.54 297.68 317.47 302.15 315.92 306.7 312.95 306.7 311.87 309.92 308.03 309.39 311.21 304.45 316.54 297.68"/><path class="cls-85" d="M293.77,309.39s-3.85,3.9-3.98,11.7l8.92-.43s3.1-8.82,10.04-11.79c-5.32-.15-9.71-.11-14.98,.52Z"/><path class="cls-63" d="M308.74,308.87s5.05,.55,8.23,2.6c0,0,3.39,4.91,3.65,12.96h-1.34s.06-6.41-3.37-11.79c0,0-2.62-1.84-7.17-2.2,0,0-6.36,2.82-8.54,11.18l-1.5-.96s2.85-9.13,10.04-11.79Z"/><polygon class="cls-45" points="289.79 321.09 291.33 321.98 300.21 321.62 298.71 320.66 289.79 321.09"/><polygon class="cls-85" points="304.82 308.81 310.26 299.1 308.03 298.8 307.94 297.68 312.09 295.42 316.54 297.68 314.17 304.21 311.21 304.45 308.74 308.87 304.82 308.81"/><polygon class="cls-45" points="311.21 304.45 312.95 306.7 315.92 306.7 314.17 304.21 311.21 304.45"/><path class="cls-10" d="M306.96,325.96l1.62,2.89s2.84,2.25,5.5-1.04l-4.58-2.07s-.75,.87-2.53,.22Z"/><path class="cls-86" d="M315.92,322.76s-1.56-1.31-5.11-1.45c-3.45-.14-5.02,1.16-5.11,1.24,.07-3.93,2.33-7.09,5.11-7.09s5.11,3.27,5.11,7.3Z"/><g><path class="cls-95" d="M359.22,310.61l-25.3-5.44,6.68-8.07s15.52-3.47,18.62,13.51Z"/><path class="cls-45" d="M359.22,317.7h-11.28l-4.35-19.44s7.59-.19,10.45,1.44c2.86,1.63,5.82,12.76,5.18,18Z"/><g><path class="cls-61" d="M342.84,315.39c0,2.2-.32,4.29-.89,6.19-.13,.44-.28,.87-.44,1.29-.93,2.45-2.31,4.5-3.98,5.95-.37,.33-.76,.62-1.16,.87-1.38,.89-2.91,1.39-4.52,1.39-1.99,0-3.85-.75-5.46-2.07l.42-.5v-.42l-1.58-.18c-.95-1.02-1.78-2.27-2.45-3.67l-.15-.35,1.02-.15v-.7l-1.35,.11c-.66-1.65-1.11-3.49-1.31-5.44l.95-.4v-1.12l-1.05,.1c0-.3-.02-.59-.02-.89,0-8.66,4.92-15.68,10.99-15.68s10.99,7.02,10.99,15.68Z"/><path class="cls-61" d="M329.24,330.63s9.04,2.77,19.9,.26l1.28-30.59s-10.59-4.47-21.18-.14v30.48Z"/><path class="cls-57" d="M351.96,329.68s0,0,.01,0c0,0,0,.01-.01,.01h0Z"/><path class="cls-43" d="M357.56,315.1v.97h.85c-.05,1.75-.31,3.42-.73,4.97-.02,.08-.05,.17-.07,.25l-.97-.25-.37,1.45,.74,.58c-.71,1.82-1.67,3.41-2.82,4.68l-1.55-.79-1.2,.6,.51,2.13c-1.38,.89-2.91,1.39-4.52,1.39-6.07,0-10.99-7.02-10.99-15.69s4.92-15.68,10.99-15.68c1.41,0,2.77,.38,4.01,1.08l-.26,1.43,1.08,.4,1.13-.4c1.46,1.34,2.67,3.16,3.55,5.31l-.79,.7,.39,1.16,1.02-.08c.5,1.68,.8,3.52,.85,5.44h0s-.85,.36-.85,.36Z"/><ellipse class="cls-105" cx="347.43" cy="315.39" rx="7.65" ry="10.92"/><polygon class="cls-33" points="345.85 325.27 344.57 330.53 339.12 330.53 336.37 329.68 330.63 327.9 328.58 329.42 326.39 329 326.81 328.5 326.81 328.08 328 328.21 330.12 326.09 337.54 328.81 338.27 329.08 341.98 329.01 345.09 324.97 345.85 325.27"/><polygon class="cls-33" points="342.43 322.35 341.51 322.87 338.51 324.55 335.79 324.62 328.79 321.1 326.38 324.23 322.77 324.23 322.62 323.88 323.65 323.73 323.65 323.03 325.48 322.89 328.5 318.6 335.79 322.56 337.73 322.6 341.85 321.42 341.95 321.58 342.43 322.35"/><polygon class="cls-33" points="340.4 316.82 336.44 317.36 333.92 317.44 327.3 312.99 324.01 317.44 320.98 317.7 321.93 317.3 321.93 316.18 323.18 316.07 327.42 309.83 333.92 315.56 336.44 315.39 340.33 315.39 340.4 316.82"/><polygon class="cls-33" points="341.17 310.61 337.48 308.73 333.91 308.33 330.12 303.13 324.01 306.87 322.62 306.87 323.23 305.67 324.38 305.55 331.41 300.64 335.15 306.89 338.55 306.17 341.49 309.83 341.17 310.61"/><path class="cls-38" d="M345.62,305.54l-.36-5.53h-4.66l.9-1.66s-3.84-.23-8.39,.59l-1.25,.32,8.48-.31-.82,1.69h4.18l.89,5.47,1.05-.57Z"/><polygon class="cls-50" points="353.39 302.21 350.42 306.19 349.36 305.63 351.44 300.78 351.18 302.21 352.26 302.61 353.39 302.21"/><polygon class="cls-42" points="357.56 309.3 353.57 310.28 353.12 309.3 356.94 307.52 356.15 308.22 356.55 309.39 357.56 309.3"/><polygon class="cls-80" points="351.44 327.56 351.95 329.69 349.77 324.97 350.91 324.23 354.2 327.75 352.65 326.96 351.44 327.56"/><polygon class="cls-81" points="356.28 322.49 357.02 323.07 353.12 321.48 353.7 320.28 356.65 321.04 356.28 322.49"/><polygon class="cls-35" points="358.41 314.74 358.41 314.74 357.56 315.1 357.56 316.07 354.54 316.07 354.54 315.39 358.41 314.74"/><path class="cls-93" d="M354.54,315.39c0,5.6-3.18,10.14-7.1,10.14s-7.1-4.54-7.1-10.14c0-.1,0-.19,0-.29,.1-5.47,3.24-9.85,7.1-9.85s7.1,4.54,7.1,10.14Z"/><path class="cls-32" d="M354.28,315.39c0,5.4-3.07,9.78-6.85,9.78s-6.85-4.38-6.85-9.78,3.07-9.78,6.85-9.78,6.85,4.38,6.85,9.78Z"/><path class="cls-55" d="M347.04,315.56c0,2.73-1.55,4.94-3.46,4.94s-3.46-2.21-3.46-4.94,1.55-4.94,3.46-4.94,3.46,2.21,3.46,4.94Z"/></g><path class="cls-85" d="M323.84,297.37s-5.42,4.86-5.6,15.69l12.39-.6s4.3-12.26,13.94-16.38c-7.39-.21-14.52-.07-20.74,1.29Z"/><path class="cls-63" d="M344.57,296.08s7.02,.76,11.43,3.62c0,0,4.71,6.83,5.07,18h-1.86s.09-8.9-4.68-16.39c0,0-3.64-2.55-9.97-3.05,0,0-8.84,3.91-11.86,15.53l-2.08-1.33s3.96-12.68,13.94-16.38Z"/><polygon class="cls-45" points="318.24 313.06 320.37 314.29 332.71 313.79 330.63 312.46 318.24 313.06"/><path class="cls-7" d="M342.1,319.82l2.25,4.01s3.95,3.13,7.64-1.44l-6.37-2.87s-1.05,1.21-3.52,.3Z"/><path class="cls-86" d="M354.54,315.39s-2.17-1.81-7.1-2.01c-4.79-.19-6.97,1.61-7.1,1.72,.1-5.47,3.24-9.85,7.1-9.85s7.1,4.54,7.1,10.14Z"/></g><path class="cls-20" d="M287.33,317.83l-18.21-3.92,4.81-5.81s11.17-2.5,13.4,9.73Z"/><path class="cls-45" d="M287.33,322.93h-8.12l-3.13-13.99s5.46-.14,7.52,1.03c2.06,1.17,4.19,9.18,3.73,12.96Z"/><g><path class="cls-61" d="M275.54,321.27c0,1.58-.23,3.09-.64,4.46-.09,.32-.2,.62-.31,.93-.67,1.76-1.66,3.24-2.86,4.28-.27,.23-.55,.44-.84,.63-.99,.64-2.1,1-3.26,1-1.43,0-2.77-.54-3.93-1.49l.3-.36v-.3l-1.14-.13c-.68-.74-1.28-1.63-1.76-2.64l-.11-.25,.74-.11v-.51l-.97,.08c-.47-1.19-.8-2.51-.95-3.92l.68-.29v-.81l-.76,.07c0-.21-.01-.42-.01-.64,0-6.24,3.54-11.29,7.91-11.29s7.91,5.05,7.91,11.29Z"/><path class="cls-61" d="M265.75,332.24s6.51,1.99,14.33,.19l.92-22.02s-7.62-3.21-15.24-.1v21.94Z"/><path class="cls-87" d="M282.1,331.56s0,0,0,0c0,0,0,0,0,0h0Z"/><path class="cls-39" d="M286.14,321.06v.7h.61c-.04,1.26-.22,2.46-.52,3.58-.02,.06-.03,.12-.05,.18l-.7-.18-.27,1.04,.53,.42c-.51,1.31-1.2,2.45-2.03,3.37l-1.12-.57-.87,.43,.37,1.53c-.99,.64-2.09,1-3.25,1-4.37,0-7.91-5.06-7.91-11.29s3.54-11.29,7.91-11.29c1.02,0,1.99,.28,2.89,.78l-.19,1.03,.78,.28,.81-.28c1.05,.97,1.93,2.28,2.55,3.82l-.57,.51,.28,.84,.73-.06c.36,1.21,.57,2.53,.61,3.91h0s-.61,.26-.61,.26Z"/><path class="cls-71" d="M284.35,321.27c0,4.34-2.46,7.86-5.51,7.86s-5.51-3.52-5.51-7.86,2.46-7.86,5.51-7.86,5.51,3.52,5.51,7.86Z"/><polygon class="cls-33" points="277.71 328.38 276.79 332.17 272.86 332.17 270.89 331.56 266.75 330.28 265.28 331.37 263.7 331.07 264 330.71 264 330.4 264.86 330.5 266.39 328.97 271.72 330.93 272.25 331.13 274.92 331.07 277.16 328.16 277.71 328.38"/><polygon class="cls-33" points="275.25 326.28 274.58 326.65 272.43 327.86 270.47 327.91 265.43 325.38 263.69 327.63 261.1 327.63 260.99 327.38 261.72 327.28 261.72 326.77 263.04 326.67 265.22 323.58 270.46 326.43 271.86 326.46 274.83 325.61 274.9 325.72 275.25 326.28"/><polygon class="cls-33" points="273.78 322.3 270.94 322.68 269.12 322.74 264.35 319.54 261.98 322.74 259.81 322.93 260.49 322.64 260.49 321.84 261.39 321.76 264.44 317.27 269.12 321.39 270.94 321.27 273.73 321.27 273.78 322.3"/><polygon class="cls-33" points="274.34 317.83 271.68 316.47 269.12 316.19 266.39 312.45 261.98 315.14 260.99 315.14 261.42 314.27 262.25 314.18 267.31 310.65 270.01 315.15 272.45 314.63 274.57 317.27 274.34 317.83"/><path class="cls-58" d="M277.54,314.18l-.26-3.98h-3.35l.65-1.2s-2.77-.16-6.04,.42l-.9,.23,6.1-.22-.59,1.22h3.01l.64,3.94,.75-.41Z"/><polygon class="cls-47" points="283.14 311.78 281 314.65 280.23 314.24 281.73 310.75 281.54 311.78 282.32 312.07 283.14 311.78"/><polygon class="cls-102" points="286.14 316.89 283.27 317.59 282.94 316.89 285.69 315.6 285.12 316.11 285.41 316.95 286.14 316.89"/><polygon class="cls-65" points="281.73 330.03 282.1 331.56 280.53 328.16 281.35 327.63 283.72 330.17 282.6 329.6 281.73 330.03"/><polygon class="cls-36" points="285.21 326.38 285.74 326.79 282.94 325.65 283.35 324.79 285.48 325.34 285.21 326.38"/><polygon class="cls-56" points="286.75 320.8 286.75 320.8 286.14 321.06 286.14 321.76 283.96 321.76 283.96 321.27 286.75 320.8"/><path class="cls-72" d="M283.96,321.27c0,4.03-2.29,7.3-5.11,7.3s-5.11-3.27-5.11-7.3c0-.07,0-.14,0-.21,.07-3.93,2.33-7.09,5.11-7.09s5.11,3.27,5.11,7.3Z"/><path class="cls-32" d="M283.78,321.27c0,3.89-2.21,7.04-4.93,7.04s-4.93-3.15-4.93-7.04,2.21-7.04,4.93-7.04,4.93,3.15,4.93,7.04Z"/><path class="cls-83" d="M278.56,321.39c0,1.96-1.12,3.56-2.49,3.56s-2.49-1.59-2.49-3.56,1.12-3.56,2.49-3.56,2.49,1.59,2.49,3.56Z"/></g><path class="cls-85" d="M261.86,308.3s-3.9,3.5-4.03,11.3l8.92-.43s3.1-8.82,10.04-11.79c-5.32-.15-10.45-.05-14.93,.93Z"/><path class="cls-63" d="M276.79,307.37s5.05,.55,8.23,2.6c0,0,3.39,4.91,3.65,12.96h-1.34s.06-6.41-3.37-11.79c0,0-2.62-1.84-7.17-2.2,0,0-6.36,2.82-8.54,11.18l-1.5-.96s2.85-9.13,10.04-11.79Z"/><polygon class="cls-45" points="257.83 319.6 259.37 320.48 268.25 320.12 266.75 319.16 257.83 319.6"/><path class="cls-13" d="M275.01,324.46l1.62,2.89s2.84,2.25,5.5-1.04l-4.58-2.07s-.75,.87-2.53,.22Z"/><path class="cls-86" d="M283.96,321.27s-1.56-1.31-5.11-1.45c-3.45-.14-5.02,1.16-5.11,1.24,.07-3.93,2.33-7.09,5.11-7.09s5.11,3.27,5.11,7.3Z"/><polygon class="cls-85" points="321.33 279.23 322.83 276.36 343.12 281.71 342.53 283.78 321.33 279.23"/><polygon class="cls-63" points="343.12 281.71 350.64 286.3 350.37 287.89 342.53 283.78 343.12 281.71"/><polygon class="cls-45" points="308.03 298.8 308.33 302.55 310.26 299.1 308.03 298.8"/><polygon class="cls-85" points="323.75 292.58 329.24 283.99 330.24 283.99 325.33 292.6 323.75 292.58"/><polygon class="cls-45" points="330.24 283.99 338.82 286.73 339 292.69 338.77 292.67 338.54 286.88 330.13 284.18 330.24 283.99"/><polygon class="cls-45" points="278.17 291.88 285.22 299.52 300.67 299.95 302.93 292.54 278.17 291.88"/><polygon class="cls-85" points="285.22 299.52 284.66 300.17 300.23 300.71 300.67 299.95 285.22 299.52"/><polygon class="cls-31" points="281.24 288.22 307.92 288.75 324.82 289.16 328.4 283.53 316.54 279.23 292.64 279.23 281.24 288.22"/><polygon class="cls-85" points="293.34 279.23 291.68 288.43 295.81 288.51 315.85 279.23 314.78 279.23 295.56 288.18 292.23 288.14 293.84 279.23 293.34 279.23"/><polygon class="cls-85" points="316.54 279.23 307.92 288.75 307.27 288.74 315.85 279.23 316.54 279.23"/><polygon class="cls-85" points="293.34 279.23 282.09 288.24 281.24 288.22 292.64 279.23 293.34 279.23"/><polygon class="cls-86" points="321.33 279.23 340.25 292.69 340.06 286.27 321.33 279.23"/><polygon class="cls-31" points="316.54 270.92 317.49 253.21 318.09 253.46 317.3 268.12 323.21 268.41 323.44 269.74 323.8 269.84 324.38 258.36 324.7 258.32 324.16 271.12 316.54 270.92"/><polygon class="cls-31" points="329.24 272.29 332.15 250.39 332.84 250.39 329.42 272.36 329.24 272.29"/><g><path class="cls-92" d="M308.93,289.16s3.57-.13,5.74,1.01c0,0,.68,1.12-.1,2.79,0,0-1.61,.82-5.64,.45v-4.25Z"/><ellipse class="cls-108" cx="308.93" cy="291.29" rx=".99" ry="2.13"/><path class="cls-26" d="M309.56,291.29c0,.88-.33,1.59-.74,1.59s-.74-.71-.74-1.59,.33-1.59,.74-1.59,.74,.71,.74,1.59Z"/></g><g><path class="cls-23" d="M304.66,299.37c.07,1.42-.4,2.6-1.06,2.63s-1.26-1.09-1.33-2.51c-.07-1.42,.4-2.6,1.06-2.63s1.26,1.09,1.33,2.51Z"/><path class="cls-26" d="M304.66,299.39c.06,1.06-.3,1.95-.79,1.97-.49,.03-.94-.82-1-1.88-.06-1.06,.3-1.95,.79-1.97,.49-.03,.94,.82,1,1.88Z"/></g><g><path class="cls-99" d="M282.94,298.68c.39,1.37,.19,2.62-.45,2.8-.64,.18-1.47-.78-1.85-2.15-.39-1.37-.19-2.62,.45-2.8,.64-.18,1.47,.78,1.85,2.15Z"/><path class="cls-26" d="M282.95,298.7c.29,1.03,.14,1.97-.34,2.1-.48,.14-1.1-.59-1.39-1.61-.29-1.03-.14-1.97,.34-2.1,.48-.13,1.1,.59,1.39,1.61Z"/></g></g><polygon class="cls-45" points="321.33 279.23 339.67 286.27 349.77 287.89 342.09 283.78 321.33 279.23"/><g class="cls-103"><path class="cls-98" d="M314.06,333.06s0,0,0,0c0,0,0,0,0,0h0Z"/><path class="cls-98" d="M351.96,329.69s0,0,.01-.01c0,0,0,0-.01,0h0Z"/><path class="cls-98" d="M282.1,331.56s0,0,0,0c0,0,0,0,0,0h0Z"/><path class="cls-29" d="M361.07,317.7c-.36-11.17-5.07-18-5.07-18-4.41-2.86-11.43-3.62-11.43-3.62-4.1-.12-8.11-.12-11.94,.13l.73-1.41h0l6.29-.54,.6-1.56-.2-6.42,9.72,1.3-7.24-3.79,7.84,4.1,.26-1.59-7.52-4.58-7.6-2-.95-1.37-1.76-.3-.9-4.77-2.65-.98,.17,.06,3.42-21.96h-.69l-2.91,21.9-3.19-1.17-1.9-.03,.55-12.77-.33,.04-.57,11.48-.37-.1-.23-1.33-5.91-.29,.79-14.66-.59-.25-.95,17.71,4.83,.12-9.69-.15-4.41,4.93h-10.33l-9.56,7.55-6.14,4.85h0l-4.58,3.62,3.11,6.5-3.86,4.47,1.71,1.85-1.91,2.69c-4.94-.11-9.68,.04-13.85,.95,0,0-3.9,3.5-4.03,11.3l1.54,.88,.38-.02c-.01,.27-.03,.53-.03,.8,0,.22,0,.43,.01,.64l.76-.07v.81l-.68,.29c.14,1.41,.47,2.73,.95,3.92l.97-.08v.51l-.74,.11,.11,.25c.48,1.01,1.08,1.91,1.77,2.64l1.14,.13v.3l-.3,.36c.63,.52,1.32,.9,2.05,1.16h0s.21,.08,.6,.17c.1,.02,.21,.05,.31,.07,2.04,.47,7.32,1.36,13.41-.04v-.02c.71-.16,1.39-.44,2.02-.85l-.37-1.53,.87-.43,1.12,.57c.82-.92,1.52-2.06,2.03-3.37l-.53-.42,.24-.93c.36,.51,.73,.98,1.13,1.42l1.58,.18v.42l-.42,.5c.88,.72,1.84,1.27,2.85,1.62h0s.04,.02,.11,.04c.4,.13,.81,.24,1.23,.31,.47,.11,1.06,.23,1.76,.35,.34,.55,.72,1.06,1.13,1.5l1.14,.13v.3l-.3,.36c.63,.52,1.32,.9,2.05,1.16h0s.22,.08,.6,.17c.1,.02,.21,.05,.31,.07,2.04,.47,7.32,1.36,13.41-.04v-.02c.71-.16,1.39-.44,2.02-.85l-.37-1.53,.87-.43,1.12,.57c.82-.92,1.52-2.06,2.03-3.37l-.53-.42,.27-1.04,.7,.18c.02-.06,.03-.12,.05-.18,.21-.76,.33-1.57,.42-2.4h2.02c-.09-2.69-.53-5.01-1.07-6.94,.11-.8,.19-1.62,.21-2.46h-.85v-.97l.61-.26,.84,.48,.53-.02c-.02,.37-.04,.74-.04,1.12,0,.3,0,.59,.02,.89l1.05-.1v1.12l-.95,.4c.2,1.95,.66,3.79,1.31,5.44l1.35-.11v.7l-1.02,.15,.15,.35c.67,1.41,1.5,2.65,2.45,3.67l1.58,.18v.42l-.42,.5c.88,.72,1.84,1.27,2.85,1.62h0s.04,.02,.11,.04c.4,.13,.81,.24,1.23,.31,2.89,.65,10.17,1.86,18.57-.08v-.02c.98-.22,1.93-.61,2.81-1.18l-.51-2.13,1.2-.6,1.55,.79c1.14-1.27,2.11-2.87,2.82-4.68l-.74-.58,.37-1.45,.97,.25,.07-.25c.29-1.06,.49-2.18,.61-3.34h2.78Zm-74.8-15.51c-.62,.72-1.18,1.54-1.68,2.44h-.01s-.23,.45-.23,.45c-.11,.21-.22,.42-.32,.64l-.06,.11h0c-.43,.96-.79,1.98-1.07,3.07-.4-.16-.81-.32-1.22-.45l4.1-6.28h.48Zm32.43,6.11l-.8,.07-.39-1.16,.79-.7c-.39-.97-.87-1.86-1.39-2.68l.35-1.04h.61l.48-.62,2.3-.09c-.77,1.62-1.5,3.7-1.95,6.22Z"/></g><ellipse class="cls-11" cx="303" cy="299.25" rx="13.23" ry="8.01"/><path class="cls-4" d="M310.7,299.25c0,2.57-3.45,4.66-7.7,4.66s-7.7-2.09-7.7-4.66,3.45-4.66,7.7-4.66,7.7,2.09,7.7,4.66Z"/><ellipse class="cls-12" cx="282.12" cy="298.67" rx="13.23" ry="8.01"/><path class="cls-2" d="M289.83,298.67c0,2.57-3.45,4.66-7.7,4.66s-7.7-2.09-7.7-4.66,3.45-4.66,7.7-4.66,7.7,2.09,7.7,4.66Z"/><ellipse class="cls-14" cx="308.98" cy="291.33" rx="9.53" ry="5.77"/><path class="cls-8" d="M314.53,291.33c0,1.85-2.48,3.36-5.55,3.36s-5.55-1.5-5.55-3.36,2.48-3.36,5.55-3.36,5.55,1.5,5.55,3.36Z"/><path class="cls-17" d="M303.66,334.63s20.02-10.68,25.93-11.08c5.91-.4-.19,5.64,1.81,6.05,2,.4-.86-9.11,39.29-19.51,40.14-10.39,62.2,13.76,65.83,23.64l-133.91,.94,1.05-.04Z"/><path class="cls-6" d="M303.66,334.63s9.23-6.84,27.13-3.56c17.9,3.28,26.64-19.2,51.32-19.83,24.68-.63,29.58,22.67,29.58,22.67l-108.03,.72Z"/></g></g></g></svg>