<?xml version="1.0" encoding="UTF-8"?><svg xmlns="http://www.w3.org/2000/svg" width="303.48" height="147.52" xmlns:xlink="http://www.w3.org/1999/xlink" viewBox="0 0 303.48 147.52"><defs><style>.cls-1,.cls-2,.cls-3{fill:#fff;}.cls-4{fill:url(#Degradado_sin_nombre_21);}.cls-2{opacity:.25;}.cls-2,.cls-3{mix-blend-mode:overlay;}.cls-5{fill:url(#Degradado_sin_nombre_39);}.cls-6{fill:#f44b3c;opacity:.3;}.cls-6,.cls-7,.cls-8{mix-blend-mode:multiply;}.cls-7{fill:#993eff;opacity:.5;}.cls-9{isolation:isolate;}.cls-8{fill:#022c90;opacity:.2;}.cls-10{fill:url(#Degradado_sin_nombre_25);}.cls-11{fill:url(#Degradado_sin_nombre_2);}.cls-3{opacity:.35;}</style><linearGradient id="Degradado_sin_nombre_2" x1="186.34" y1="146.77" x2="116.85" y2="1.14" gradientUnits="userSpaceOnUse"><stop offset="0" stop-color="#3b31bc"/><stop offset=".13" stop-color="#3c35bd"/><stop offset=".27" stop-color="#3f44c0"/><stop offset=".43" stop-color="#445cc7"/><stop offset=".6" stop-color="#4b7dcf"/><stop offset=".77" stop-color="#55a7da"/><stop offset=".95" stop-color="#60dbe7"/><stop offset="1" stop-color="#64ebec"/></linearGradient><linearGradient id="Degradado_sin_nombre_39" x1="326.8" y1="34.41" x2="-139.27" y2="143.79" gradientUnits="userSpaceOnUse"><stop offset="0" stop-color="#35029c"/><stop offset=".1" stop-color="#38039a"/><stop offset=".18" stop-color="#420795"/><stop offset=".25" stop-color="#530d8c"/><stop offset=".32" stop-color="#6b1680"/><stop offset=".39" stop-color="#8a2271"/><stop offset=".45" stop-color="#af305e"/><stop offset=".52" stop-color="#dc4148"/><stop offset=".55" stop-color="#f44b3c"/><stop offset=".67" stop-color="#f6772b"/><stop offset="1" stop-color="#fced00"/></linearGradient><linearGradient id="Degradado_sin_nombre_25" x1="32.64" y1="58.98" x2="57.92" y2="90.99" gradientTransform="translate(66.02 -9.98) rotate(45)" gradientUnits="userSpaceOnUse"><stop offset="0" stop-color="#ba55ff"/><stop offset=".3" stop-color="#8836da"/><stop offset=".62" stop-color="#5b19b8"/><stop offset=".86" stop-color="#3f08a3"/><stop offset="1" stop-color="#35029c"/></linearGradient><linearGradient id="Degradado_sin_nombre_21" x1="282.86" y1="82.22" x2="253.77" y2="42.41" gradientUnits="userSpaceOnUse"><stop offset="0" stop-color="#fced00"/><stop offset=".33" stop-color="#f6772b"/><stop offset=".45" stop-color="#f44b3c"/><stop offset=".49" stop-color="#eb4c57"/><stop offset=".55" stop-color="#de4e84"/><stop offset=".61" stop-color="#d350a9"/><stop offset=".68" stop-color="#ca52c8"/><stop offset=".75" stop-color="#c253e0"/><stop offset=".82" stop-color="#bd54f1"/><stop offset=".9" stop-color="#ba54fb"/><stop offset="1" stop-color="#ba55ff"/></linearGradient></defs><g class="cls-9"><g id="Layer_2"><g id="OBJECTS"><g><g><g><path class="cls-1" d="M82.3,25.6c-10.29,.59-10.4,.94-10.99,14.75-.59-13.81-.7-14.16-10.99-14.75,10.29-.59,10.4-.94,10.99-14.75,.59,13.81,.7,14.16,10.99,14.75Z"/><path class="cls-1" d="M67.85,40.34c-6.08,.35-6.15,.51-6.5,7.95-.35-7.45-.41-7.61-6.5-7.95,6.08-.35,6.15-.51,6.5-7.95,.35,7.45,.41,7.61,6.5,7.95Z"/></g><g><path class="cls-1" d="M253.2,111.77c-12.4,.71-12.54,1.13-13.24,17.77-.71-16.64-.85-17.07-13.24-17.77,12.4-.71,12.54-1.13,13.24-17.78,.71,16.64,.85,17.07,13.24,17.78Z"/><path class="cls-1" d="M260.16,125.25c-8.64,.49-8.73,.72-9.23,11.29-.49-10.57-.59-10.8-9.23-11.29,8.64-.49,8.73-.72,9.23-11.29,.49,10.57,.59,10.8,9.23,11.29Z"/><path class="cls-1" d="M262.13,107.42c-6.25,.36-6.32,.52-6.68,8.18-.36-7.65-.43-7.82-6.68-8.18,6.25-.36,6.32-.52,6.68-8.18,.36,7.65,.43,7.82,6.68,8.18Z"/></g></g><g><g><circle class="cls-11" cx="151.5" cy="73.76" r="73.76"/><path class="cls-2" d="M77.74,73.76c0,2.07,.11,4.12,.27,6.15,11.51,13.26,28.48,21.66,47.42,21.66,34.68,0,62.79-28.11,62.79-62.79,0-12.4-3.61-23.95-9.81-33.69-8.34-3.27-17.41-5.09-26.91-5.09-40.74,0-73.76,33.02-73.76,73.76Z"/><path class="cls-8" d="M183.36,7.22c11.17,12.93,17.94,29.76,17.94,48.18,0,40.74-33.02,73.76-73.76,73.76-11.41,0-22.22-2.59-31.86-7.22,13.53,15.66,33.51,25.58,55.83,25.58,40.74,0,73.76-33.02,73.76-73.76,0-29.33-17.12-54.65-41.9-66.54Z"/><path class="cls-2" d="M167.93,23.81c-2.4,5.16-11.41,6.05-20.14,2-8.73-4.05-13.86-11.52-11.47-16.68,2.4-5.16,11.41-6.05,20.14-2,8.73,4.05,13.86,11.52,11.47,16.68Zm-.67,11.03c-4.13-1.92-8.39-1.49-9.52,.94-1.13,2.44,1.29,5.97,5.42,7.88,4.13,1.92,8.39,1.49,9.52-.94s-1.29-5.97-5.42-7.88Zm8.65-6.69c-2.82-1.31-5.74-1.02-6.52,.65-.77,1.67,.89,4.08,3.71,5.4,2.82,1.31,5.74,1.02,6.52-.65s-.89-4.08-3.71-5.4Z"/></g><g><path class="cls-5" d="M303.12,33.2c-4.22-15.38-44.23-18.65-98.21-10.28,1.17,1.23,2.29,2.49,3.38,3.79,42.55-6.4,72.94-4.71,75.88,5.98,4.33,15.78-52.81,45.2-127.62,65.71C81.73,118.92,17.57,122.75,13.25,106.96c-3.01-10.98,23.73-28.56,65.47-45.15,.25-1.54,.55-3.05,.9-4.55C28.91,77.6-3.85,100.82,.36,116.2c5.75,20.99,78.19,19.43,161.79-3.49,83.6-22.92,146.71-58.51,140.96-79.5Z"/><path class="cls-3" d="M206.86,25.05s.96,1.1,1.43,1.66c42.55-6.4,72.94-4.71,75.88,5.98,4.33,15.78-52.81,45.2-127.62,65.71C81.73,118.92,17.57,122.75,13.25,106.96c-3.01-10.98,23.73-28.56,65.47-45.15,.16-.98,.15-.99,.35-1.95C37.5,77.33,5.15,95.73,8.71,108.73c5.17,18.86,73.57,13.44,148.71-7.16,75.14-20.6,136.63-48.93,130.76-67.59-7.16-22.75-80.84-8.37-81.32-8.92Z"/><path class="cls-7" d="M162.16,109.35C78.56,132.27,6.12,133.83,.36,112.84c-.1-.38-.17-.77-.23-1.16-.24,1.57-.17,3.07,.23,4.51,5.75,20.99,78.19,19.43,161.79-3.49,82.19-22.53,144.56-57.31,141.19-78.42-3.08,21.3-63.22,53.69-141.19,75.07Z"/></g><g><g><circle class="cls-10" cx="45.06" cy="74.7" r="18.68" transform="translate(-39.62 53.74) rotate(-45)"/><path class="cls-2" d="M26.38,74.7c0,.64,.03,1.26,.09,1.88,2.82,3.76,7.31,6.21,12.37,6.21,8.55,0,15.48-6.93,15.48-15.48,0-4.1-1.6-7.81-4.2-10.58-1.61-.45-3.31-.71-5.07-.71-10.31,0-18.68,8.36-18.68,18.68Z"/><path class="cls-7" d="M51.9,57.33c3.53,3.4,5.73,8.16,5.73,13.44,0,10.31-8.36,18.68-18.68,18.68-2.42,0-4.72-.47-6.84-1.31,3.36,3.24,7.92,5.24,12.95,5.24,10.31,0,18.68-8.36,18.68-18.68,0-7.9-4.91-14.64-11.84-17.37Z"/></g><g><circle class="cls-4" cx="267.9" cy="61.75" r="21.94"/><path class="cls-3" d="M245.96,61.75c0,1.55,.16,3.07,.47,4.53,3.19,3.09,7.54,4.99,12.33,4.99,9.81,0,17.76-7.95,17.76-17.76,0-5.46-2.47-10.34-6.34-13.59-.75-.08-1.5-.12-2.27-.12-12.12,0-21.94,9.82-21.94,21.94Z"/><path class="cls-6" d="M276.26,41.46c4.28,4,6.96,9.7,6.96,16.03,0,12.12-9.82,21.94-21.94,21.94-2.96,0-5.78-.59-8.36-1.65,3.92,3.67,9.19,5.92,14.98,5.92,12.12,0,21.94-9.82,21.94-21.94,0-9.16-5.61-17-13.58-20.29Z"/></g></g></g></g></g></g></g></svg>